<?xml version="1.0" standalone="no"?>
<!DOCTYPE svg PUBLIC "-//W3C//DTD SVG 1.1//EN" "http://www.w3.org/Graphics/SVG/1.1/DTD/svg11.dtd" >
<svg xmlns="http://www.w3.org/2000/svg" xmlns:xlink="http://www.w3.org/1999/xlink" version="1.1">
<metadata>
Created by FontForge 20141024 at Sun Dec 14 07:46:21 2014
 By System Administrator
Copyright (c) 2012 Kemie Guaida (www.pixilate.com), with Reserved Font Name "Bellota".  Based on "Snippet" by Gesine Todt. This Font Software is licensed under the SIL Open Font License, Version 1.1. This license is available with a FAQ at: http://scripts.sil.org/OFL
</metadata>
<defs>
<font id="Bellota-Regular" horiz-adv-x="609" >
  <font-face 
    font-family="Bellota"
    font-weight="400"
    font-stretch="normal"
    units-per-em="1000"
    panose-1="2 1 5 3 4 0 0 2 0 4"
    ascent="800"
    descent="-200"
    x-height="498"
    cap-height="684"
    bbox="-106 -313 1317 1142"
    underline-thickness="50"
    underline-position="0"
    stemh="55"
    stemv="55"
    unicode-range="U+0020-1F330"
  />
<missing-glyph horiz-adv-x="500" 
d="M0 0v700h500v-700h-500zM250 395l170 255h-340zM280 350l170 -255v510zM80 50h340l-170 255zM50 605v-510l170 255z" />
    <glyph glyph-name="fi" unicode="fi" horiz-adv-x="478" 
d="M54 -260v724c0 34 3 66 8 95s14 55 26 76s28 38 48 50c20 13 45 19 75 19c27 0 50 -4 69 -12c19 -9 34 -20 46 -35l-41 -41c-7 11 -17 20 -29 26c-13 7 -28 10 -45 10c-21 0 -38 -5 -51 -15s-24 -23 -31 -40c-8 -17 -13 -37 -16 -60s-4 -46 -4 -71v-16h219v-369
c0 -9 3 -17 10 -24s15 -11 24 -11c13 0 22 5 29 15l46 -30c-9 -13 -19 -23 -32 -30c-13 -8 -28 -11 -43 -11c-25 0 -46 9 -63 26s-26 39 -26 64v317h-164v-657h-55z" />
    <glyph glyph-name="fl" unicode="fl" horiz-adv-x="530" 
d="M62 -262v723c0 34 3 66 8 95s14 55 26 76s28 38 48 51s45 19 75 19c24 0 45 -4 63 -11c17 -7 32 -17 44 -29c11 -12 20 -26 27 -43c6 -17 9 -34 10 -52v-485c0 -9 3 -17 10 -24s15 -11 24 -11c13 0 22 5 29 15l46 -30c-9 -13 -19 -23 -32 -30c-13 -8 -28 -11 -43 -11
c-25 0 -46 9 -63 26s-26 39 -26 64v484c-1 23 -9 42 -24 59s-36 25 -65 25c-33 0 -57 -12 -72 -36s-24 -54 -30 -90v-272h148v-52h-148v-461h-55z" />
    <glyph glyph-name="f_f" unicode="ff" horiz-adv-x="595" 
d="M37 -262v722c0 34 3 66 8 95s14 55 26 76s28 38 48 50c20 13 45 19 75 19c23 0 44 -3 61 -10s32 -16 44 -27c25 25 58 37 99 37c25 0 46 -4 65 -11c18 -8 33 -18 45 -31s21 -29 27 -46s9 -35 9 -54c0 -61 -18 -108 -53 -143s-84 -52 -147 -52h-48v-112h148v-52h-148v-461
h-55v461h-149v-461h-55zM241 251v209c0 30 2 58 6 84c3 26 10 49 19 70c-7 10 -17 18 -28 25c-12 7 -27 10 -44 10c-21 0 -38 -5 -51 -15s-24 -23 -31 -41c-8 -17 -13 -37 -16 -59c-3 -23 -4 -46 -4 -71v-212h149zM296 415l48 1c26 0 48 4 66 12s33 19 45 32
c11 13 20 29 25 46s7 34 7 53c0 24 -7 45 -22 63s-37 27 -67 27c-21 0 -38 -5 -51 -15s-24 -23 -31 -40c-8 -17 -13 -37 -16 -60s-4 -46 -4 -71v-48z" />
    <glyph glyph-name="f_f_i" unicode="ffi" horiz-adv-x="681" 
d="M44 -260v724c0 34 3 66 8 95s14 55 26 76s28 38 48 50c20 13 45 19 75 19c27 0 50 -4 69 -12c15 -7 29 -17 40 -28c7 8 16 15 26 21c20 13 45 19 75 19c27 0 50 -4 69 -12c19 -9 34 -20 46 -35l-41 -41c-7 11 -17 20 -29 26c-13 7 -28 10 -45 10c-21 0 -38 -5 -51 -15
s-24 -23 -31 -40c-8 -17 -13 -37 -16 -60s-4 -46 -4 -71v-16h164v1h55v-370c0 -9 3 -17 10 -24s15 -11 24 -11c13 0 22 5 29 15l46 -30c-9 -13 -19 -23 -32 -30c-13 -8 -28 -11 -43 -11c-25 0 -46 9 -63 26s-26 39 -26 64v317h-164v-657h-55v657h-155v-657h-55zM282 623
l-7 -7c-7 11 -17 20 -29 27c-13 7 -28 10 -45 10c-21 0 -38 -5 -51 -15s-24 -23 -31 -41c-8 -17 -13 -37 -16 -59c-3 -23 -4 -46 -4 -71v-16h155v13c0 34 3 66 8 95c7 36 11 45 20 64z" />
    <glyph glyph-name="f_f_l" unicode="ffl" horiz-adv-x="798" 
d="M54 -260v723c0 34 3 66 8 95s14 55 26 76s28 38 48 51s45 19 75 19c27 0 50 -4 69 -13s34 -20 46 -35l-41 -41c-7 11 -17 20 -29 27c-13 7 -28 10 -45 10c-21 0 -38 -6 -51 -17s-24 -25 -31 -44c-8 -19 -13 -40 -16 -63s-4 -47 -4 -72v-204h213v219c0 34 3 65 8 94
s14 53 26 73s28 36 48 47s45 17 75 17c24 0 45 -4 63 -11c17 -7 32 -17 44 -29c11 -12 20 -26 27 -43c6 -17 9 -34 10 -52v-485c0 -9 3 -17 10 -24s15 -11 24 -11c13 0 22 5 29 15l46 -30c-9 -13 -19 -23 -32 -30c-13 -8 -28 -11 -43 -11c-25 0 -46 9 -63 26s-26 39 -26 64
v484c-1 23 -9 42 -24 59s-36 25 -65 25c-33 0 -57 -12 -72 -36s-24 -54 -30 -90v-272h148v-52h-148v-461h-55v461h-213v-459h-55z" />
    <glyph glyph-name=".notdef" horiz-adv-x="500" 
d="M0 0v700h500v-700h-500zM250 395l170 255h-340zM280 350l170 -255v510zM80 50h340l-170 255zM50 605v-510l170 255z" />
    <glyph glyph-name="A" unicode="A" horiz-adv-x="775" 
d="M715 0h-64l-95 227h-295l-73 -177c-7 -17 -18 -30 -34 -40s-34 -14 -49 -14c-22 0 -42 8 -58 21c-21 17 -29 36 -32 54l57 11c2 -8 7 -16 12 -20s11 -7 21 -7c16 0 25 8 30 20l264 611h19zM398 552l-113 -268h247l-113 268l-2 5l-4 11c-2 5 -4 10 -5 17z" />
    <glyph glyph-name="Aacute" unicode="&#xc1;" horiz-adv-x="775" 
d="M575 863l-172 -110l-22 34l158 125zM651 0l-95 227h-295l-73 -177c-7 -17 -18 -30 -34 -40s-34 -14 -49 -14c-22 0 -42 8 -58 21c-21 17 -29 36 -32 54l57 11c2 -8 7 -16 12 -20s11 -7 21 -7c16 0 25 8 30 20l264 611h19l297 -686h-64zM285 284h247l-113 268l-2 5l-4 11
c-2 5 -4 10 -5 17l-10 -33z" />
    <glyph glyph-name="Abreve" unicode="&#x102;" horiz-adv-x="775" 
d="M489 915h61c-1 -40 -13 -73 -36 -98c-23 -26 -58 -39 -106 -39c-47 0 -82 13 -105 39c-23 25 -36 58 -37 98h61c1 -25 8 -45 21 -60c12 -15 32 -23 60 -23c30 0 51 8 63 23c11 15 17 35 18 60zM651 0l-95 227h-295l-73 -177c-7 -17 -18 -30 -34 -40s-34 -14 -49 -14
c-22 0 -42 8 -58 21c-21 17 -29 36 -32 54l57 11c2 -8 7 -16 12 -20s11 -7 21 -7c16 0 25 8 30 20l264 611h19l297 -686h-64zM285 284h247l-113 268l-2 5l-4 11c-2 5 -4 10 -5 17l-10 -33z" />
    <glyph glyph-name="Abreveacute" unicode="&#x1eae;" horiz-adv-x="775" 
d="M575 1063l-172 -110l-22 34l158 125zM489 915h61c-1 -40 -13 -73 -36 -98c-23 -26 -58 -39 -106 -39c-47 0 -82 13 -105 39c-23 25 -36 58 -37 98h61c1 -25 8 -45 21 -60c12 -15 32 -23 60 -23c30 0 51 8 63 23c11 15 17 35 18 60zM651 0l-95 227h-295l-73 -177
c-7 -17 -18 -30 -34 -40s-34 -14 -49 -14c-22 0 -42 8 -58 21c-21 17 -29 36 -32 54l57 11c2 -8 7 -16 12 -20s11 -7 21 -7c16 0 25 8 30 20l264 611h19l297 -686h-64zM285 284h247l-113 268l-2 5l-4 11c-2 5 -4 10 -5 17l-10 -33z" />
    <glyph glyph-name="Abrevedotbelow" unicode="&#x1eb6;" horiz-adv-x="775" 
d="M488 937h61c-1 -40 -13 -73 -36 -98c-23 -26 -58 -39 -106 -39c-47 0 -82 13 -105 39c-23 25 -36 58 -37 98h61c1 -25 8 -45 21 -60c12 -15 32 -23 60 -23c30 0 51 8 63 23c11 15 17 35 18 60zM651 0l-95 227h-295l-73 -177c-7 -17 -18 -30 -34 -40s-34 -14 -49 -14
c-22 0 -42 8 -58 21c-21 17 -29 36 -32 54l57 11c2 -8 7 -16 12 -20s11 -7 21 -7c16 0 25 8 30 20l264 611h19l297 -686h-64zM285 284h247l-113 268l-2 5l-4 11c-2 5 -4 10 -5 17l-10 -33zM407 -113c12 0 22 -4 30 -12s12 -18 12 -30c0 -11 -4 -21 -12 -29s-18 -12 -30 -12
c-17 0 -21 4 -29 12s-12 18 -12 29c0 12 4 22 12 30s18 12 29 12z" />
    <glyph glyph-name="Abrevegrave" unicode="&#x1eb0;" horiz-adv-x="775" 
d="M248 863l20 28c-1 7 -2 16 -2 24h61c1 -18 5 -33 11 -46l43 -34c8 -2 17 -3 27 -3c30 0 51 8 63 23c11 15 17 35 18 60h61c-1 -40 -13 -73 -36 -98c-18 -20 -43 -33 -77 -37l-17 -27l-42 27c-32 5 -57 17 -75 37c-6 6 -11 13 -16 21zM715 0h-64l-95 227h-295l-73 -177
c-7 -17 -18 -30 -34 -40s-34 -14 -49 -14c-22 0 -42 8 -58 21c-21 17 -29 36 -32 54l57 11c2 -8 7 -16 12 -20s11 -7 21 -7c16 0 25 8 30 20l264 611h19zM532 284l-113 268l-2 5l-4 11c-2 5 -4 10 -5 17l-10 -33l-113 -268h247z" />
    <glyph glyph-name="Abrevetilde" unicode="&#x1eb4;" horiz-adv-x="775" 
d="M265 939l-33 41c17 14 33 25 48 32s30 11 45 13h14c10 0 20 -1 31 -3c15 -4 31 -9 48 -16c14 -6 27 -10 38 -13c8 -2 15 -3 23 -3c3 0 6 0 9 1c10 1 20 4 31 9c10 5 21 13 33 23l34 -41c-32 -27 -63 -41 -93 -44h-7l-6 -1c-15 0 -29 2 -43 6s-27 9 -39 14
c-14 5 -26 9 -37 12c-9 2 -16 3 -24 3h-8c-10 -1 -20 -5 -30 -10c-11 -5 -22 -13 -34 -23zM489 915h61c-1 -40 -13 -73 -36 -98c-23 -26 -58 -39 -106 -39c-47 0 -82 13 -105 39c-23 25 -36 58 -37 98h61c1 -25 8 -45 21 -60c12 -15 32 -23 60 -23c30 0 51 8 63 23
c11 15 17 35 18 60zM651 0l-95 227h-295l-73 -177c-7 -17 -18 -30 -34 -40s-34 -14 -49 -14c-22 0 -42 8 -58 21c-21 17 -29 36 -32 54l57 11c2 -8 7 -16 12 -20s11 -7 21 -7c16 0 25 8 30 20l264 611h19l297 -686h-64zM285 284h247l-113 268l-2 5l-4 11c-2 5 -4 10 -5 17
l-10 -33z" />
    <glyph glyph-name="Acaron" unicode="&#x1cd;" horiz-adv-x="775" 
d="M433 781h-49l-123 142h67l81 -89l80 89h68zM651 0l-95 227h-295l-73 -177c-7 -17 -18 -30 -34 -40s-34 -14 -49 -14c-22 0 -42 8 -58 21c-21 17 -29 36 -32 54l57 11c2 -8 7 -16 12 -20s11 -7 21 -7c16 0 25 8 30 20l264 611h19l297 -686h-64zM285 284h247l-113 268l-2 5
l-4 11c-2 5 -4 10 -5 17l-10 -33z" />
    <glyph glyph-name="Acircumflex" unicode="&#xc2;" horiz-adv-x="775" 
d="M557 791h-68l-80 89l-81 -89h-67l123 142h49zM651 0l-95 227h-295l-73 -177c-7 -17 -18 -30 -34 -40s-34 -14 -49 -14c-22 0 -42 8 -58 21c-21 17 -29 36 -32 54l57 11c2 -8 7 -16 12 -20s11 -7 21 -7c16 0 25 8 30 20l264 611h19l297 -686h-64zM285 284h247l-113 268
l-2 5l-4 11c-2 5 -4 10 -5 17l-10 -33z" />
    <glyph glyph-name="Acircumflexacute" unicode="&#x1ea4;" horiz-adv-x="775" 
d="M575 1083l-172 -110l-22 34l158 125zM557 791h-68l-80 89l-81 -89h-67l123 142h49zM651 0l-95 227h-295l-73 -177c-7 -17 -18 -30 -34 -40s-34 -14 -49 -14c-22 0 -42 8 -58 21c-21 17 -29 36 -32 54l57 11c2 -8 7 -16 12 -20s11 -7 21 -7c16 0 25 8 30 20l264 611h19
l297 -686h-64zM285 284h247l-113 268l-2 5l-4 11c-2 5 -4 10 -5 17l-10 -33z" />
    <glyph glyph-name="Acircumflexdotbelow" unicode="&#x1eac;" horiz-adv-x="775" 
d="M557 791h-68l-80 89l-81 -89h-67l123 142h49zM651 0l-95 227h-295l-73 -177c-7 -17 -18 -30 -34 -40s-34 -14 -49 -14c-22 0 -42 8 -58 21c-21 17 -29 36 -32 54l57 11c2 -8 7 -16 12 -20s11 -7 21 -7c16 0 25 8 30 20l264 611h19l297 -686h-64zM285 284h247l-113 268
l-2 5l-4 11c-2 5 -4 10 -5 17l-10 -33zM407 -113c12 0 22 -4 30 -12s12 -18 12 -30c0 -11 -4 -21 -12 -29s-18 -12 -30 -12c-17 0 -21 4 -29 12s-12 18 -12 29c0 12 4 22 12 30s18 12 29 12z" />
    <glyph glyph-name="Acircumflexgrave" unicode="&#x1ea6;" horiz-adv-x="775" 
d="M442 987l-22 -34l-172 110l36 49zM557 791h-68l-80 89l-81 -89h-67l123 142h49zM651 0l-95 227h-295l-73 -177c-7 -17 -18 -30 -34 -40s-34 -14 -49 -14c-22 0 -42 8 -58 21c-21 17 -29 36 -32 54l57 11c2 -8 7 -16 12 -20s11 -7 21 -7c16 0 25 8 30 20l264 611h19
l297 -686h-64zM285 284h247l-113 268l-2 5l-4 11c-2 5 -4 10 -5 17l-10 -33z" />
    <glyph glyph-name="Acircumflextilde" unicode="&#x1eaa;" horiz-adv-x="775" 
d="M265 959l-33 41c17 14 33 25 48 32s30 11 45 13h14c10 0 20 -1 31 -3c15 -4 31 -9 48 -16c14 -6 27 -10 38 -13c8 -2 15 -3 23 -3c3 0 6 0 9 1c10 1 20 4 31 9c10 5 21 13 33 23l34 -41c-32 -27 -63 -41 -93 -44h-7l-6 -1c-15 0 -29 2 -43 6s-27 9 -39 14
c-14 5 -26 9 -37 12c-9 2 -16 3 -24 3h-8c-10 -1 -20 -5 -30 -10c-11 -5 -22 -13 -34 -23zM557 791h-68l-80 89l-81 -89h-67l123 142h49zM651 0l-95 227h-295l-73 -177c-7 -17 -18 -30 -34 -40s-34 -14 -49 -14c-22 0 -42 8 -58 21c-21 17 -29 36 -32 54l57 11
c2 -8 7 -16 12 -20s11 -7 21 -7c16 0 25 8 30 20l264 611h19l297 -686h-64zM285 284h247l-113 268l-2 5l-4 11c-2 5 -4 10 -5 17l-10 -33z" />
    <glyph glyph-name="Adieresis" unicode="&#xc4;" horiz-adv-x="775" 
d="M297 803c-23 0 -42 19 -42 42c0 24 19 43 42 43c24 0 43 -19 43 -43c0 -23 -19 -42 -43 -42zM519 803c-23 0 -42 19 -42 42c0 24 19 43 42 43c24 0 43 -19 43 -43c0 -23 -19 -42 -43 -42zM715 0h-64l-95 227h-295l-73 -177c-7 -17 -18 -30 -34 -40s-34 -14 -49 -14
c-22 0 -42 8 -58 21c-21 17 -29 36 -32 54l57 11c2 -8 7 -16 12 -20s11 -7 21 -7c16 0 25 8 30 20l264 611h19zM532 284l-113 268l-2 5l-4 11c-2 5 -4 10 -5 17l-10 -33l-113 -268h247z" />
    <glyph glyph-name="Adieresismacron" unicode="&#x1de;" horiz-adv-x="775" 
d="M572 923h-326v57h326v-57zM255 845c0 24 19 43 42 43c24 0 43 -19 43 -43c0 -23 -19 -42 -43 -42c-23 0 -42 19 -42 42zM477 845c0 24 19 43 42 43c24 0 43 -19 43 -43c0 -23 -19 -42 -43 -42c-23 0 -42 19 -42 42zM715 0h-64l-95 227h-295l-73 -177
c-7 -17 -18 -30 -34 -40s-34 -14 -49 -14c-22 0 -42 8 -58 21c-21 17 -29 36 -32 54l57 11c2 -8 7 -16 12 -20s11 -7 21 -7c16 0 25 8 30 20l264 611h19zM532 284l-113 268l-2 5l-4 11c-2 5 -4 10 -5 17l-10 -33l-113 -268h247z" />
    <glyph glyph-name="Adotaccent" unicode="&#x226;" horiz-adv-x="775" 
d="M406 894c24 0 43 -19 43 -43c0 -23 -19 -42 -43 -42c-23 0 -42 19 -42 42c0 24 19 43 42 43zM651 0l-95 227h-295l-73 -177c-7 -17 -18 -30 -34 -40s-34 -14 -49 -14c-22 0 -42 8 -58 21c-21 17 -29 36 -32 54l57 11c2 -8 7 -16 12 -20s11 -7 21 -7c16 0 25 8 30 20
l264 611h19l297 -686h-64zM285 284h247l-113 268l-2 5l-4 11c-2 5 -4 10 -5 17l-10 -33z" />
    <glyph glyph-name="Adotbelow" unicode="&#x1ea0;" horiz-adv-x="775" 
d="M715 0h-64l-95 227h-295l-73 -177c-7 -17 -18 -30 -34 -40s-34 -14 -49 -14c-22 0 -42 8 -58 21c-21 17 -29 36 -32 54l57 11c2 -8 7 -16 12 -20s11 -7 21 -7c16 0 25 8 30 20l264 611h19zM398 552l-113 -268h247l-113 268l-2 5l-4 11c-2 5 -4 10 -5 17zM407 -113
c12 0 22 -4 30 -12s12 -18 12 -30c0 -11 -4 -21 -12 -29s-18 -12 -30 -12c-17 0 -21 4 -29 12s-12 18 -12 29c0 12 4 22 12 30s18 12 29 12z" />
    <glyph glyph-name="Adotmacron" unicode="&#x1e0;" horiz-adv-x="775" 
d="M406 1004c24 0 43 -19 43 -43c0 -23 -19 -42 -43 -42c-23 0 -42 19 -42 42c0 24 19 43 42 43zM572 813h-326v57h326v-57zM651 0l-95 227h-295l-73 -177c-7 -17 -18 -30 -34 -40s-34 -14 -49 -14c-22 0 -42 8 -58 21c-21 17 -29 36 -32 54l57 11c2 -8 7 -16 12 -20
s11 -7 21 -7c16 0 25 8 30 20l264 611h19l297 -686h-64zM285 284h247l-113 268l-2 5l-4 11c-2 5 -4 10 -5 17l-10 -33z" />
    <glyph glyph-name="Agrave" unicode="&#xc0;" horiz-adv-x="775" 
d="M442 787l-22 -34l-172 110l36 49zM651 0l-95 227h-295l-73 -177c-7 -17 -18 -30 -34 -40s-34 -14 -49 -14c-22 0 -42 8 -58 21c-21 17 -29 36 -32 54l57 11c2 -8 7 -16 12 -20s11 -7 21 -7c16 0 25 8 30 20l264 611h19l297 -686h-64zM285 284h247l-113 268l-2 5l-4 11
c-2 5 -4 10 -5 17l-10 -33z" />
    <glyph glyph-name="Amacron" unicode="&#x100;" horiz-adv-x="775" 
d="M572 813h-326v57h326v-57zM651 0l-95 227h-295l-73 -177c-7 -17 -18 -30 -34 -40s-34 -14 -49 -14c-22 0 -42 8 -58 21c-21 17 -29 36 -32 54l57 11c2 -8 7 -16 12 -20s11 -7 21 -7c16 0 25 8 30 20l264 611h19l297 -686h-64zM285 284h247l-113 268l-2 5l-4 11
c-2 5 -4 10 -5 17l-10 -33z" />
    <glyph glyph-name="Aogonek" unicode="&#x104;" horiz-adv-x="775" 
d="M729 -131l25 -45c-12 -9 -27 -16 -43 -21s-33 -8 -47 -8c-21 0 -43 6 -62 25c-16 16 -24 37 -24 63c0 13 2 27 8 39c2 4 11 21 19 31c7 9 24 26 26 28l20 19l-95 227h-295l-73 -177c-7 -17 -18 -30 -34 -40s-34 -14 -49 -14c-22 0 -42 8 -58 21c-21 17 -29 36 -32 54
l57 11c2 -8 7 -16 12 -20s11 -7 21 -7c16 0 25 8 30 20l264 611h19l297 -686h-1l-26 -27c-7 -8 -20 -21 -26 -29c-7 -9 -16 -23 -19 -28c-5 -8 -8 -17 -8 -28c0 -7 1 -16 8 -25c4 -5 9 -10 19 -13c4 -1 9 -2 14 -2c4 0 7 1 11 1c9 2 17 5 25 10zM532 284l-113 268l-2 5
l-4 11c-2 5 -4 10 -5 17l-10 -33l-113 -268h247z" />
    <glyph glyph-name="Aring" unicode="&#xc5;" horiz-adv-x="775" 
d="M411 939c29 0 52 -7 71 -27c16 -17 28 -44 28 -76c0 -27 -8 -52 -27 -73s-45 -30 -75 -30s-55 9 -73 28c-20 21 -27 48 -27 73c0 33 12 61 27 77s38 28 76 28zM411 895c-18 0 -31 -6 -40 -16c-9 -11 -14 -26 -14 -43s5 -34 13 -44c9 -11 23 -16 39 -16c12 0 27 3 38 17
c8 10 15 27 15 45c0 17 -6 30 -14 40c-9 11 -19 17 -37 17zM651 0l-95 227h-295l-73 -177c-7 -17 -18 -30 -34 -40s-34 -14 -49 -14c-22 0 -42 8 -58 21c-21 17 -29 36 -32 54l57 11c2 -8 7 -16 12 -20s11 -7 21 -7c16 0 25 8 30 20l264 611h19l297 -686h-64zM285 284h247
l-113 268l-2 5l-4 11c-2 5 -4 10 -5 17l-10 -33z" />
    <glyph glyph-name="Aringacute" unicode="&#x1fa;" horiz-adv-x="775" 
d="M575 1093l-172 -110l-22 34l158 125zM411 939c29 0 52 -7 71 -27c16 -17 28 -44 28 -76c0 -27 -8 -52 -27 -73s-45 -30 -75 -30s-55 9 -73 28c-20 21 -27 48 -27 73c0 33 12 61 27 77s38 28 76 28zM411 895c-18 0 -31 -6 -40 -16c-9 -11 -14 -26 -14 -43s5 -34 13 -44
c9 -11 23 -16 39 -16c12 0 27 3 38 17c8 10 15 27 15 45c0 17 -6 30 -14 40c-9 11 -19 17 -37 17zM651 0l-95 227h-295l-73 -177c-7 -17 -18 -30 -34 -40s-34 -14 -49 -14c-22 0 -42 8 -58 21c-21 17 -29 36 -32 54l57 11c2 -8 7 -16 12 -20s11 -7 21 -7c16 0 25 8 30 20
l264 611h19l297 -686h-64zM285 284h247l-113 268l-2 5l-4 11c-2 5 -4 10 -5 17l-10 -33z" />
    <glyph glyph-name="Atilde" unicode="&#xc3;" horiz-adv-x="775" 
d="M265 799l-33 41c17 14 33 25 48 32s30 11 45 13h14c10 0 20 -1 31 -3c15 -4 31 -9 48 -16c14 -6 27 -10 38 -13c8 -2 15 -3 23 -3c3 0 6 0 9 1c10 1 20 4 31 9c10 5 21 13 33 23l34 -41c-32 -27 -63 -41 -93 -44h-7l-6 -1c-15 0 -29 2 -43 6s-27 9 -39 14
c-14 5 -26 9 -37 12c-9 2 -16 3 -24 3h-8c-10 -1 -20 -5 -30 -10c-11 -5 -22 -13 -34 -23zM651 0l-95 227h-295l-73 -177c-7 -17 -18 -30 -34 -40s-34 -14 -49 -14c-22 0 -42 8 -58 21c-21 17 -29 36 -32 54l57 11c2 -8 7 -16 12 -20s11 -7 21 -7c16 0 25 8 30 20l264 611
h19l297 -686h-64zM285 284h247l-113 268l-2 5l-4 11c-2 5 -4 10 -5 17l-10 -33z" />
    <glyph glyph-name="AE" unicode="&#xc6;" horiz-adv-x="935" 
d="M845 627h-387v-237h317v-57h-317v-276h407v-57h-468v227h-192l-117 -227h-73l359 684h471v-57zM397 623l-11 -36c-5 -16 -13 -35 -24 -56l-128 -247h163v339z" />
    <glyph glyph-name="AEacute" unicode="&#x1fc;" horiz-adv-x="935" 
d="M624 859l-172 -110l-22 34l158 125zM458 627v-237h317v-57h-317v-276h407v-57h-468v227h-192l-117 -227h-73l359 684h471v-57h-387zM397 623l-11 -36c-5 -16 -13 -35 -24 -56l-128 -247h163v339z" />
    <glyph glyph-name="AEmacron" unicode="&#x1e2;" horiz-adv-x="935" 
d="M621 809h-326v57h326v-57zM458 627v-237h317v-57h-317v-276h407v-57h-468v227h-192l-117 -227h-73l359 684h471v-57h-387zM397 623l-11 -36c-5 -16 -13 -35 -24 -56l-128 -247h163v339z" />
    <glyph glyph-name="B" unicode="B" horiz-adv-x="645" 
d="M118 695h222c29 0 56 -4 82 -13s43 -19 64 -38s31 -34 41 -56s15 -46 15 -74c0 -38 -9 -61 -20 -80c-14 -24 -32 -41 -56 -55c-5 -3 -8 -4 -15 -6l-15 -5c8 -3 13 -3 16 -4l16 -6c36 -19 60 -44 77 -71c20 -32 28 -66 28 -101c0 -28 -5 -55 -16 -80
c-10 -23 -27 -46 -46 -62c-21 -18 -46 -31 -73 -40c-33 -11 -68 -14 -115 -14c-2 0 -40 0 -68 1c-32 1 -43 2 -63 4l-53 6v638h-19c-13 0 -25 -5 -34 -14s-15 -20 -15 -35h-56c0 18 4 30 8 40c5 12 11 22 22 33s18 17 34 24c10 4 22 8 39 8zM200 640v-589l65 -4
c22 -1 30 -2 52 -2c80 0 121 13 151 38c32 27 46 64 46 106c0 19 -3 38 -12 58c-8 17 -19 32 -36 47c-11 10 -28 22 -52 30c-23 8 -45 11 -68 11h-95v55h88c42 0 79 12 104 33c26 22 39 53 39 92c0 35 -11 68 -34 89c-22 20 -57 33 -94 35z" />
    <glyph glyph-name="C" unicode="C" horiz-adv-x="740" 
d="M625 155l45 -31c-43 -63 -68 -79 -119 -106c-46 -25 -101 -40 -161 -40c-52 0 -100 11 -139 28c-41 18 -80 46 -111 78c-32 33 -59 75 -74 113c-16 40 -26 89 -26 139c0 49 10 100 28 144c17 42 43 83 77 119s73 62 115 81s87 30 136 30c25 0 56 -3 81 -9
c21 -5 52 -16 74 -29c24 -14 45 -34 54 -47c10 -14 20 -37 20 -65c0 -24 -7 -47 -25 -66c-15 -16 -36 -27 -63 -27c-19 0 -38 6 -55 19l34 43c6 -4 12 -8 21 -8c8 0 17 3 24 11c8 9 10 19 10 28c0 17 -8 33 -17 42c-8 8 -24 20 -43 29c-15 7 -36 14 -56 18s-37 6 -58 6
c-43 0 -80 -9 -117 -26c-42 -19 -72 -43 -97 -70c-30 -32 -50 -63 -65 -100c-17 -42 -24 -83 -24 -122c0 -46 10 -88 22 -118c14 -35 35 -66 63 -96c23 -24 52 -48 94 -66c32 -14 67 -24 115 -24c54 0 101 13 139 34c36 20 74 52 98 88z" />
    <glyph glyph-name="Cacute" unicode="&#x106;" horiz-adv-x="740" 
d="M537 890l-172 -110l-22 34l158 125zM625 155l45 -31c-43 -63 -68 -79 -119 -106c-46 -25 -101 -40 -161 -40c-52 0 -100 11 -139 28c-41 18 -80 46 -111 78c-32 33 -59 75 -74 113c-16 40 -26 89 -26 139c0 49 10 100 28 144c17 42 43 83 77 119s73 62 115 81
s87 30 136 30c25 0 56 -3 81 -9c21 -5 52 -16 74 -29c24 -14 45 -34 54 -47c10 -14 20 -37 20 -65c0 -24 -7 -47 -25 -66c-15 -16 -36 -27 -63 -27c-19 0 -38 6 -55 19l34 43c6 -4 12 -8 21 -8c8 0 17 3 24 11c8 9 10 19 10 28c0 17 -8 33 -17 42c-8 8 -24 20 -43 29
c-15 7 -36 14 -56 18s-37 6 -58 6c-43 0 -80 -9 -117 -26c-42 -19 -72 -43 -97 -70c-30 -32 -50 -63 -65 -100c-17 -42 -24 -83 -24 -122c0 -46 10 -88 22 -118c14 -35 35 -66 63 -96c23 -24 52 -48 94 -66c32 -14 67 -24 115 -24c54 0 101 13 139 34c36 20 74 52 98 88z
" />
    <glyph glyph-name="Ccaron" unicode="&#x10c;" horiz-adv-x="740" 
d="M395 808h-49l-123 142h67l81 -89l80 89h68zM625 155l45 -31c-43 -63 -68 -79 -119 -106c-46 -25 -101 -40 -161 -40c-52 0 -100 11 -139 28c-41 18 -80 46 -111 78c-32 33 -59 75 -74 113c-16 40 -26 89 -26 139c0 49 10 100 28 144c17 42 43 83 77 119s73 62 115 81
s87 30 136 30c25 0 56 -3 81 -9c21 -5 52 -16 74 -29c24 -14 45 -34 54 -47c10 -14 20 -37 20 -65c0 -24 -7 -47 -25 -66c-15 -16 -36 -27 -63 -27c-19 0 -38 6 -55 19l34 43c6 -4 12 -8 21 -8c8 0 17 3 24 11c8 9 10 19 10 28c0 17 -8 33 -17 42c-8 8 -24 20 -43 29
c-15 7 -36 14 -56 18s-37 6 -58 6c-43 0 -80 -9 -117 -26c-42 -19 -72 -43 -97 -70c-30 -32 -50 -63 -65 -100c-17 -42 -24 -83 -24 -122c0 -46 10 -88 22 -118c14 -35 35 -66 63 -96c23 -24 52 -48 94 -66c32 -14 67 -24 115 -24c54 0 101 13 139 34c36 20 74 52 98 88z
" />
    <glyph glyph-name="Ccedilla" unicode="&#xc7;" horiz-adv-x="740" 
d="M625 155l45 -31c-43 -63 -68 -79 -119 -106c-43 -24 -95 -38 -150 -40l-10 -48c23 -3 41 -11 54 -31c10 -15 17 -36 17 -57c0 -15 -3 -28 -7 -39c-6 -16 -13 -25 -22 -35s-20 -18 -32 -23c-14 -6 -27 -8 -40 -8v53c14 0 28 5 37 18s11 30 11 38c0 22 -16 38 -48 38h-31
l10 96h12c-38 4 -72 13 -101 26c-41 18 -80 46 -111 78c-32 33 -59 75 -74 113c-16 40 -26 89 -26 139c0 49 10 100 28 144c17 42 43 83 77 119s73 62 115 81s87 30 136 30c25 0 56 -3 81 -9c21 -5 52 -16 74 -29c24 -14 45 -34 54 -47c10 -14 20 -37 20 -65
c0 -24 -7 -47 -25 -66c-15 -16 -36 -27 -63 -27c-19 0 -38 6 -55 19l34 43c6 -4 12 -8 21 -8c8 0 17 3 24 11c8 9 10 19 10 28c0 17 -8 33 -17 42c-8 8 -24 20 -43 29c-15 7 -36 14 -56 18s-37 6 -58 6c-43 0 -80 -9 -117 -26c-42 -19 -72 -43 -97 -70
c-30 -32 -50 -63 -65 -100c-17 -42 -24 -83 -24 -122c0 -46 10 -88 22 -118c14 -35 35 -66 63 -96c23 -24 52 -48 94 -66c32 -14 67 -24 115 -24c54 0 101 13 139 34c36 20 74 52 98 88z" />
    <glyph glyph-name="Ccircumflex" unicode="&#x108;" horiz-adv-x="740" 
d="M519 818h-68l-80 89l-81 -89h-67l123 142h49zM625 155l45 -31c-43 -63 -68 -79 -119 -106c-46 -25 -101 -40 -161 -40c-52 0 -100 11 -139 28c-41 18 -80 46 -111 78c-32 33 -59 75 -74 113c-16 40 -26 89 -26 139c0 49 10 100 28 144c17 42 43 83 77 119s73 62 115 81
s87 30 136 30c25 0 56 -3 81 -9c21 -5 52 -16 74 -29c24 -14 45 -34 54 -47c10 -14 20 -37 20 -65c0 -24 -7 -47 -25 -66c-15 -16 -36 -27 -63 -27c-19 0 -38 6 -55 19l34 43c6 -4 12 -8 21 -8c8 0 17 3 24 11c8 9 10 19 10 28c0 17 -8 33 -17 42c-8 8 -24 20 -43 29
c-15 7 -36 14 -56 18s-37 6 -58 6c-43 0 -80 -9 -117 -26c-42 -19 -72 -43 -97 -70c-30 -32 -50 -63 -65 -100c-17 -42 -24 -83 -24 -122c0 -46 10 -88 22 -118c14 -35 35 -66 63 -96c23 -24 52 -48 94 -66c32 -14 67 -24 115 -24c54 0 101 13 139 34c36 20 74 52 98 88z
" />
    <glyph glyph-name="Cdotaccent" unicode="&#x10a;" horiz-adv-x="740" 
d="M368 921c24 0 43 -19 43 -43c0 -23 -19 -42 -43 -42c-23 0 -42 19 -42 42c0 24 19 43 42 43zM625 155l45 -31c-43 -63 -68 -79 -119 -106c-46 -25 -101 -40 -161 -40c-52 0 -100 11 -139 28c-41 18 -80 46 -111 78c-32 33 -59 75 -74 113c-16 40 -26 89 -26 139
c0 49 10 100 28 144c17 42 43 83 77 119s73 62 115 81s87 30 136 30c25 0 56 -3 81 -9c21 -5 52 -16 74 -29c24 -14 45 -34 54 -47c10 -14 20 -37 20 -65c0 -24 -7 -47 -25 -66c-15 -16 -36 -27 -63 -27c-19 0 -38 6 -55 19l34 43c6 -4 12 -8 21 -8c8 0 17 3 24 11
c8 9 10 19 10 28c0 17 -8 33 -17 42c-8 8 -24 20 -43 29c-15 7 -36 14 -56 18s-37 6 -58 6c-43 0 -80 -9 -117 -26c-42 -19 -72 -43 -97 -70c-30 -32 -50 -63 -65 -100c-17 -42 -24 -83 -24 -122c0 -46 10 -88 22 -118c14 -35 35 -66 63 -96c23 -24 52 -48 94 -66
c32 -14 67 -24 115 -24c54 0 101 13 139 34c36 20 74 52 98 88z" />
    <glyph glyph-name="D" unicode="D" horiz-adv-x="805" 
d="M118 690h299c53 -5 91 -15 132 -35c39 -19 70 -41 100 -75c26 -29 47 -61 63 -106c14 -39 22 -83 22 -132c0 -45 -7 -93 -24 -139c-16 -43 -39 -79 -70 -111c-29 -30 -65 -57 -109 -76c-45 -19 -84 -26 -197 -26c-43 0 -32 1 -73 2c-68 2 -58 2 -75 3l-27 2l-20 3v634
h-25c-13 -2 -22 -7 -31 -16c-10 -11 -13 -21 -13 -33h-56c0 14 2 26 8 41c4 10 10 21 23 33c8 8 19 17 34 23c10 4 22 8 39 8zM200 634v-584c68 -4 69 -2 75 -2c8 0 26 -3 80 -3c77 0 116 6 152 21s64 36 90 63c21 22 42 50 57 92c13 36 20 76 20 122c0 43 -6 79 -19 115
c-14 39 -32 68 -53 91c-23 25 -55 47 -84 60c-27 12 -67 23 -111 25h-207z" />
    <glyph glyph-name="DZ" unicode="&#x1f1;" horiz-adv-x="1384" 
d="M118 690h299c53 -5 91 -15 132 -35c39 -19 70 -41 100 -75c26 -29 47 -61 63 -106c14 -39 22 -83 22 -132c0 -45 -7 -93 -24 -139c-16 -43 -39 -79 -70 -111c-29 -30 -65 -57 -109 -76c-45 -19 -84 -26 -197 -26c-43 0 -32 1 -73 2c-68 2 -58 2 -75 3l-27 2l-20 3v634
h-25c-13 -2 -22 -7 -31 -16c-10 -11 -13 -21 -13 -33h-56c0 14 2 26 8 41c4 10 10 21 23 33c8 8 19 17 34 23c10 4 22 8 39 8zM930 90l34 -6c10 -2 25 -5 37 -9c37 -11 58 -17 88 -25c27 -7 49 -11 73 -11c17 0 32 2 48 8c13 5 26 12 36 18c9 5 16 10 24 18l9 8l38 -37
l-12 -12c-8 -7 -18 -15 -32 -23c-13 -8 -30 -17 -48 -23c-20 -7 -36 -10 -62 -10c-31 0 -56 4 -88 12c-29 7 -61 17 -89 26c-41 13 -55 17 -83 22l-36 -61l-45 27l368 616h-313v53h406zM200 634v-584c68 -4 69 -2 75 -2c8 0 26 -3 80 -3c77 0 116 6 152 21s64 36 90 63
c21 22 42 50 57 92c13 36 20 76 20 122c0 43 -6 79 -19 115c-14 39 -32 68 -53 91c-23 25 -55 47 -84 60c-27 12 -67 23 -111 25h-207z" />
    <glyph glyph-name="DZcaron" unicode="&#x1c4;" horiz-adv-x="1384" 
d="M1114 778h-49l-123 142h67l81 -89l80 89h68zM118 690h299c53 -5 91 -15 132 -35c39 -19 70 -41 100 -75c26 -29 47 -61 63 -106c14 -39 22 -83 22 -132c0 -45 -7 -93 -24 -139c-16 -43 -39 -79 -70 -111c-29 -30 -65 -57 -109 -76c-45 -19 -84 -26 -197 -26
c-43 0 -32 1 -73 2c-68 2 -58 2 -75 3l-27 2l-20 3v634h-25c-13 -2 -22 -7 -31 -16c-10 -11 -13 -21 -13 -33h-56c0 14 2 26 8 41c4 10 10 21 23 33c8 8 19 17 34 23c10 4 22 8 39 8zM930 90l34 -6c10 -2 25 -5 37 -9c37 -11 58 -17 88 -25c27 -7 49 -11 73 -11
c17 0 32 2 48 8c13 5 26 12 36 18c9 5 16 10 24 18l9 8l38 -37l-12 -12c-8 -7 -18 -15 -32 -23c-13 -8 -30 -17 -48 -23c-20 -7 -36 -10 -62 -10c-31 0 -56 4 -88 12c-29 7 -61 17 -89 26c-41 13 -55 17 -83 22l-36 -61l-45 27l368 616h-313v53h406zM200 634v-584
c68 -4 69 -2 75 -2c8 0 26 -3 80 -3c77 0 116 6 152 21s64 36 90 63c21 22 42 50 57 92c13 36 20 76 20 122c0 43 -6 79 -19 115c-14 39 -32 68 -53 91c-23 25 -55 47 -84 60c-27 12 -67 23 -111 25h-207z" />
    <glyph glyph-name="Eth" unicode="&#xd0;" horiz-adv-x="805" 
d="M118 690h299c53 -5 91 -15 132 -35c39 -19 70 -41 100 -75c26 -29 47 -61 63 -106c14 -39 22 -83 22 -132c0 -45 -7 -93 -24 -139c-16 -43 -39 -79 -70 -111c-29 -30 -65 -57 -109 -76c-45 -19 -84 -26 -197 -26c-43 0 -32 1 -73 2c-68 2 -58 2 -75 3l-27 2l-20 3v307
h-85v57h85v270h-25c-13 -2 -22 -7 -31 -16c-10 -11 -13 -21 -13 -33h-56c0 14 2 26 8 41c4 10 10 21 23 33c8 8 19 17 34 23c10 4 22 8 39 8zM200 307v-257c68 -4 69 -2 75 -2c8 0 26 -3 80 -3c77 0 116 6 152 21s64 36 90 63c21 22 42 50 57 92c13 36 20 76 20 122
c0 43 -6 79 -19 115c-14 39 -32 68 -53 91c-23 25 -55 47 -84 60c-27 12 -67 23 -111 25h-207v-270h151v-57h-151z" />
    <glyph glyph-name="Dcaron" unicode="&#x10e;" horiz-adv-x="805" 
d="M427 779h-49l-123 142h67l81 -89l80 89h68zM118 690h299c53 -5 91 -15 132 -35c39 -19 70 -41 100 -75c26 -29 47 -61 63 -106c14 -39 22 -83 22 -132c0 -45 -7 -93 -24 -139c-16 -43 -39 -79 -70 -111c-29 -30 -65 -57 -109 -76c-45 -19 -84 -26 -197 -26
c-43 0 -32 1 -73 2c-68 2 -58 2 -75 3l-27 2l-20 3v634h-25c-13 -2 -22 -7 -31 -16c-10 -11 -13 -21 -13 -33h-56c0 14 2 26 8 41c4 10 10 21 23 33c8 8 19 17 34 23c10 4 22 8 39 8zM200 634v-584c68 -4 69 -2 75 -2c8 0 26 -3 80 -3c77 0 116 6 152 21s64 36 90 63
c21 22 42 50 57 92c13 36 20 76 20 122c0 43 -6 79 -19 115c-14 39 -32 68 -53 91c-23 25 -55 47 -84 60c-27 12 -67 23 -111 25h-207z" />
    <glyph glyph-name="Dcroat" unicode="&#x110;" horiz-adv-x="805" 
d="M566 811h-326v57h326v-57zM118 690h299c53 -5 91 -15 132 -35c39 -19 70 -41 100 -75c26 -29 47 -61 63 -106c14 -39 22 -83 22 -132c0 -45 -7 -93 -24 -139c-16 -43 -39 -79 -70 -111c-29 -30 -65 -57 -109 -76c-45 -19 -84 -26 -197 -26c-43 0 -32 1 -73 2
c-68 2 -58 2 -75 3l-27 2l-20 3v634h-25c-13 -2 -22 -7 -31 -16c-10 -11 -13 -21 -13 -33h-56c0 14 2 26 8 41c4 10 10 21 23 33c8 8 19 17 34 23c10 4 22 8 39 8zM200 634v-584c68 -4 69 -2 75 -2c8 0 26 -3 80 -3c77 0 116 6 152 21s64 36 90 63c21 22 42 50 57 92
c13 36 20 76 20 122c0 43 -6 79 -19 115c-14 39 -32 68 -53 91c-23 25 -55 47 -84 60c-27 12 -67 23 -111 25h-207z" />
    <glyph glyph-name="Dz" unicode="&#x1f2;" horiz-adv-x="1336" 
d="M118 690h299c53 -5 91 -15 132 -35c39 -19 70 -41 100 -75c26 -29 47 -61 63 -106c14 -39 22 -83 22 -132c0 -45 -7 -93 -24 -139c-16 -43 -39 -79 -70 -111c-29 -30 -65 -57 -109 -76c-45 -19 -84 -26 -197 -26c-43 0 -32 1 -73 2c-68 2 -58 2 -75 3l-27 2l-20 3v634
h-25c-13 -2 -22 -7 -31 -16c-10 -11 -13 -21 -13 -33h-56c0 14 2 26 8 41c4 10 10 21 23 33c8 8 19 17 34 23c10 4 22 8 39 8zM200 634v-584c68 -4 69 -2 75 -2c8 0 26 -3 80 -3c77 0 116 6 152 21s64 36 90 63c21 22 42 50 57 92c13 36 20 76 20 122c0 43 -6 79 -19 115
c-14 39 -32 68 -53 91c-23 25 -55 47 -84 60c-27 12 -67 23 -111 25h-207zM1228 485l-273 -398l80 -28c20 -7 39 -12 57 -15s38 -5 61 -5c27 0 57 12 90 35l25 -44c-58 -43 -77 -43 -115 -43c-25 0 -48 2 -69 6s-42 9 -61 16l-99 32l-42 -61l-43 33l295 433h-257v52h351v-13
z" />
    <glyph glyph-name="Dzcaron" unicode="&#x1c5;" horiz-adv-x="1336" 
d="M1095 592h-49l-123 142h67l81 -89l80 89h68zM118 690h299c53 -5 91 -15 132 -35c39 -19 70 -41 100 -75c26 -29 47 -61 63 -106c14 -39 22 -83 22 -132c0 -45 -7 -93 -24 -139c-16 -43 -39 -79 -70 -111c-29 -30 -65 -57 -109 -76c-45 -19 -84 -26 -197 -26
c-43 0 -32 1 -73 2c-68 2 -58 2 -75 3l-27 2l-20 3v634h-25c-13 -2 -22 -7 -31 -16c-10 -11 -13 -21 -13 -33h-56c0 14 2 26 8 41c4 10 10 21 23 33c8 8 19 17 34 23c10 4 22 8 39 8zM200 634v-584c68 -4 69 -2 75 -2c8 0 26 -3 80 -3c77 0 116 6 152 21s64 36 90 63
c21 22 42 50 57 92c13 36 20 76 20 122c0 43 -6 79 -19 115c-14 39 -32 68 -53 91c-23 25 -55 47 -84 60c-27 12 -67 23 -111 25h-207zM1228 485l-273 -398l80 -28c20 -7 39 -12 57 -15s38 -5 61 -5c27 0 57 12 90 35l25 -44c-58 -43 -77 -43 -115 -43c-25 0 -48 2 -69 6
s-42 9 -61 16l-99 32l-42 -61l-43 33l295 433h-257v52h351v-13z" />
    <glyph glyph-name="E" unicode="E" horiz-adv-x="648" 
d="M578 628h-387v-238h267v-57h-267v-276h387v-57h-448v628h-12c-12 0 -25 -5 -34 -14c-8 -8 -14 -22 -14 -35h-56c0 18 4 30 8 40c5 12 11 22 22 33c10 10 18 17 34 24c10 4 22 8 39 8h461v-56z" />
    <glyph glyph-name="Eacute" unicode="&#xc9;" horiz-adv-x="648" 
d="M515 861l-172 -110l-22 34l158 125zM191 628v-238h267v-57h-267v-276h387v-57h-448v628h-12c-12 0 -25 -5 -34 -14c-8 -8 -14 -22 -14 -35h-56c0 18 4 30 8 40c5 12 11 22 22 33c10 10 18 17 34 24c10 4 22 8 39 8h461v-56h-387z" />
    <glyph glyph-name="Ebreve" unicode="&#x114;" horiz-adv-x="648" 
d="M429 913h61c-1 -40 -13 -73 -36 -98c-23 -26 -58 -39 -106 -39c-47 0 -82 13 -105 39c-23 25 -36 58 -37 98h61c1 -25 8 -45 21 -60c12 -15 32 -23 60 -23c30 0 51 8 63 23c11 15 17 35 18 60zM191 628v-238h267v-57h-267v-276h387v-57h-448v628h-12
c-12 0 -25 -5 -34 -14c-8 -8 -14 -22 -14 -35h-56c0 18 4 30 8 40c5 12 11 22 22 33c10 10 18 17 34 24c10 4 22 8 39 8h461v-56h-387z" />
    <glyph glyph-name="Ecaron" unicode="&#x11a;" horiz-adv-x="648" 
d="M373 779h-49l-123 142h67l81 -89l80 89h68zM191 628v-238h267v-57h-267v-276h387v-57h-448v628h-12c-12 0 -25 -5 -34 -14c-8 -8 -14 -22 -14 -35h-56c0 18 4 30 8 40c5 12 11 22 22 33c10 10 18 17 34 24c10 4 22 8 39 8h461v-56h-387z" />
    <glyph glyph-name="uni0228" unicode="&#x228;" horiz-adv-x="648" 
d="M191 628v-238h267v-57h-267v-276h387v-57h-188l-10 -49c23 -3 41 -11 54 -31c10 -15 17 -36 17 -57c0 -15 -3 -28 -7 -39c-6 -16 -13 -25 -22 -35s-20 -18 -32 -23c-14 -6 -27 -8 -40 -8v53c14 0 28 5 37 18s11 30 11 38c0 22 -16 38 -48 38h-31l10 95h-199v628h-12
c-12 0 -25 -5 -34 -14c-8 -8 -14 -22 -14 -35h-56c0 18 4 30 8 40c5 12 11 22 22 33c10 10 18 17 34 24c10 4 22 8 39 8h461v-56h-387z" />
    <glyph glyph-name="Ecircumflex" unicode="&#xca;" horiz-adv-x="648" 
d="M497 789h-68l-80 89l-81 -89h-67l123 142h49zM191 628v-238h267v-57h-267v-276h387v-57h-448v628h-12c-12 0 -25 -5 -34 -14c-8 -8 -14 -22 -14 -35h-56c0 18 4 30 8 40c5 12 11 22 22 33c10 10 18 17 34 24c10 4 22 8 39 8h461v-56h-387z" />
    <glyph glyph-name="Ecircumflexacute" unicode="&#x1ebe;" horiz-adv-x="648" 
d="M490 1081l-172 -110l-22 34l158 125zM472 789h-68l-80 89l-81 -89h-67l123 142h49zM578 628h-387v-238h267v-57h-267v-276h387v-57h-448v628h-12c-12 0 -25 -5 -34 -14c-8 -8 -14 -22 -14 -35h-56c0 18 4 30 8 40c5 12 11 22 22 33c10 10 18 17 34 24c10 4 22 8 39 8h461
v-56z" />
    <glyph glyph-name="Ecircumflexdotbelow" unicode="&#x1ec6;" horiz-adv-x="648" 
d="M497 789h-68l-80 89l-81 -89h-67l123 142h49zM578 628h-387v-238h267v-57h-267v-276h387v-57h-448v628h-12c-12 0 -25 -5 -34 -14c-8 -8 -14 -22 -14 -35h-56c0 18 4 30 8 40c5 12 11 22 22 33c10 10 18 17 34 24c10 4 22 8 39 8h461v-56zM358 -113c12 0 22 -4 30 -12
s12 -18 12 -30c0 -11 -4 -21 -12 -29s-18 -12 -30 -12c-17 0 -21 4 -29 12s-12 18 -12 29c0 12 4 22 12 30s18 12 29 12z" />
    <glyph glyph-name="Ecircumflexgrave" unicode="&#x1ec0;" horiz-adv-x="648" 
d="M357 1002l-22 -34l-172 110l36 49zM472 789h-68l-80 89l-81 -89h-67l123 142h49zM578 628h-387v-238h267v-57h-267v-276h387v-57h-448v628h-12c-12 0 -25 -5 -34 -14c-8 -8 -14 -22 -14 -35h-56c0 18 4 30 8 40c5 12 11 22 22 33c10 10 18 17 34 24c10 4 22 8 39 8h461
v-56z" />
    <glyph glyph-name="Ecircumflextilde" unicode="&#x1ec4;" horiz-adv-x="648" 
d="M180 957l-33 41c17 14 33 25 48 32s30 11 45 13h14c10 0 20 -1 31 -3c15 -4 31 -9 48 -16c14 -6 27 -10 38 -13c8 -2 15 -3 23 -3c3 0 6 0 9 1c10 1 20 4 31 9c10 5 21 13 33 23l34 -41c-32 -27 -63 -41 -93 -44h-7l-6 -1c-15 0 -29 2 -43 6s-27 9 -39 14
c-14 5 -26 9 -37 12c-9 2 -16 3 -24 3h-8c-10 -1 -20 -5 -30 -10c-11 -5 -22 -13 -34 -23zM472 789h-68l-80 89l-81 -89h-67l123 142h49zM578 628h-387v-238h267v-57h-267v-276h387v-57h-448v628h-12c-12 0 -25 -5 -34 -14c-8 -8 -14 -22 -14 -35h-56c0 18 4 30 8 40
c5 12 11 22 22 33c10 10 18 17 34 24c10 4 22 8 39 8h461v-56z" />
    <glyph glyph-name="Edieresis" unicode="&#xcb;" horiz-adv-x="648" 
d="M237 801c-23 0 -42 19 -42 42c0 24 19 43 42 43c24 0 43 -19 43 -43c0 -23 -19 -42 -43 -42zM459 801c-23 0 -42 19 -42 42c0 24 19 43 42 43c24 0 43 -19 43 -43c0 -23 -19 -42 -43 -42zM191 628v-238h267v-57h-267v-276h387v-57h-448v628h-12c-12 0 -25 -5 -34 -14
c-8 -8 -14 -22 -14 -35h-56c0 18 4 30 8 40c5 12 11 22 22 33c10 10 18 17 34 24c10 4 22 8 39 8h461v-56h-387z" />
    <glyph glyph-name="Edotaccent" unicode="&#x116;" horiz-adv-x="648" 
d="M346 892c24 0 43 -19 43 -43c0 -23 -19 -42 -43 -42c-23 0 -42 19 -42 42c0 24 19 43 42 43zM578 628h-387v-238h267v-57h-267v-276h387v-57h-448v628h-12c-12 0 -25 -5 -34 -14c-8 -8 -14 -22 -14 -35h-56c0 18 4 30 8 40c5 12 11 22 22 33c10 10 18 17 34 24
c10 4 22 8 39 8h461v-56z" />
    <glyph glyph-name="Edotbelow" unicode="&#x1eb8;" horiz-adv-x="648" 
d="M578 628h-387v-238h267v-57h-267v-276h387v-57h-448v628h-12c-12 0 -25 -5 -34 -14c-8 -8 -14 -22 -14 -35h-56c0 18 4 30 8 40c5 12 11 22 22 33c10 10 18 17 34 24c10 4 22 8 39 8h461v-56zM358 -113c12 0 22 -4 30 -12s12 -18 12 -30c0 -11 -4 -21 -12 -29
s-18 -12 -30 -12c-17 0 -21 4 -29 12s-12 18 -12 29c0 12 4 22 12 30s18 12 29 12z" />
    <glyph glyph-name="Egrave" unicode="&#xc8;" horiz-adv-x="648" 
d="M382 785l-22 -34l-172 110l36 49zM578 628h-387v-238h267v-57h-267v-276h387v-57h-448v628h-12c-12 0 -25 -5 -34 -14c-8 -8 -14 -22 -14 -35h-56c0 18 4 30 8 40c5 12 11 22 22 33c10 10 18 17 34 24c10 4 22 8 39 8h461v-56z" />
    <glyph glyph-name="Emacron" unicode="&#x112;" horiz-adv-x="648" 
d="M512 811h-326v57h326v-57zM578 628h-387v-238h267v-57h-267v-276h387v-57h-448v628h-12c-12 0 -25 -5 -34 -14c-8 -8 -14 -22 -14 -35h-56c0 18 4 30 8 40c5 12 11 22 22 33c10 10 18 17 34 24c10 4 22 8 39 8h461v-56z" />
    <glyph glyph-name="Eogonek" unicode="&#x118;" horiz-adv-x="648" 
d="M598 -121l25 -45c-12 -9 -27 -16 -43 -21s-33 -8 -47 -8c-21 0 -43 6 -62 25c-16 16 -24 37 -24 63c0 13 2 27 8 39c2 4 11 21 19 31c7 9 24 26 26 28l10 9h-380v628h-12c-12 0 -25 -5 -34 -14c-8 -8 -14 -22 -14 -35h-56c0 18 4 30 8 40c5 12 11 22 22 33
c10 10 18 17 34 24c10 4 22 8 39 8h461v-56h-387v-238h267v-57h-267v-276h387v-46l5 -1l-5 -5v-5h-5l-16 -17c-7 -8 -20 -21 -26 -29c-7 -9 -16 -23 -19 -28c-5 -8 -8 -17 -8 -28c0 -7 1 -16 8 -25c4 -5 9 -10 19 -13c4 -1 9 -2 14 -2c4 0 7 1 11 1c9 2 17 5 25 10z" />
    <glyph glyph-name="Etilde" unicode="&#x1ebc;" horiz-adv-x="648" 
d="M205 797l-33 41c17 14 33 25 48 32s30 11 45 13h14c10 0 20 -1 31 -3c15 -4 31 -9 48 -16c14 -6 27 -10 38 -13c8 -2 15 -3 23 -3c3 0 6 0 9 1c10 1 20 4 31 9c10 5 21 13 33 23l34 -41c-32 -27 -63 -41 -93 -44h-7l-6 -1c-15 0 -29 2 -43 6s-27 9 -39 14
c-14 5 -26 9 -37 12c-9 2 -16 3 -24 3h-8c-10 -1 -20 -5 -30 -10c-11 -5 -22 -13 -34 -23zM578 628h-387v-238h267v-57h-267v-276h387v-57h-448v628h-12c-12 0 -25 -5 -34 -14c-8 -8 -14 -22 -14 -35h-56c0 18 4 30 8 40c5 12 11 22 22 33c10 10 18 17 34 24c10 4 22 8 39 8
h461v-56z" />
    <glyph glyph-name="F" unicode="F" horiz-adv-x="608" 
d="M578 627h-387v-238h267v-57h-267v-333h-61v628h-12c-12 0 -25 -5 -34 -14c-8 -8 -14 -22 -14 -35h-56c0 18 4 30 8 40c5 12 11 22 22 33s18 17 34 24c10 4 22 8 39 8h461v-56z" />
    <glyph glyph-name="G" unicode="G" horiz-adv-x="751" 
d="M612 -178v260c-32 -43 -65 -67 -103 -85c-43 -20 -87 -28 -129 -28c-50 0 -90 11 -128 28c-42 19 -78 44 -109 76c-33 34 -59 75 -75 113c-20 47 -28 96 -28 141c0 52 10 100 28 145c20 50 47 87 77 119c33 35 69 61 113 81c42 19 87 30 137 30c26 0 54 -3 80 -9
c30 -7 53 -17 72 -28c17 -10 36 -23 52 -45c13 -18 21 -37 21 -64s-8 -49 -26 -67c-15 -15 -35 -26 -62 -26c-20 0 -38 6 -54 18l34 43c7 -5 14 -7 20 -7c10 0 21 6 25 11c5 6 9 16 9 27c0 15 -7 30 -15 39s-25 21 -40 29c-11 6 -35 14 -55 18s-39 6 -59 6
c-41 0 -79 -8 -117 -25c-36 -16 -68 -39 -97 -70c-30 -32 -50 -64 -65 -101s-24 -77 -24 -123c0 -43 8 -84 23 -120c13 -31 35 -67 64 -97c25 -26 59 -50 92 -65c29 -13 66 -23 109 -23c28 0 56 4 87 16c23 9 47 22 70 43c20 18 35 37 49 64c15 29 20 49 24 78v79h57v-481
c0 -11 -2 -23 -7 -35s-13 -23 -20 -30c-11 -11 -22 -17 -31 -21c-12 -5 -24 -7 -35 -7c-18 0 -32 5 -43 11c-13 7 -25 18 -33 30l48 33c6 -9 15 -15 28 -15c11 0 19 4 25 10s10 13 11 24z" />
    <glyph glyph-name="Gacute" unicode="&#x1f4;" horiz-adv-x="751" 
d="M551 876l-172 -110l-22 34l158 125zM612 -178v260c-32 -43 -65 -67 -103 -85c-43 -20 -87 -28 -129 -28c-50 0 -90 11 -128 28c-42 19 -78 44 -109 76c-33 34 -59 75 -75 113c-20 47 -28 96 -28 141c0 52 10 100 28 145c20 50 47 87 77 119c33 35 69 61 113 81
c42 19 87 30 137 30c26 0 54 -3 80 -9c30 -7 53 -17 72 -28c17 -10 36 -23 52 -45c13 -18 21 -37 21 -64s-8 -49 -26 -67c-15 -15 -35 -26 -62 -26c-20 0 -38 6 -54 18l34 43c7 -5 14 -7 20 -7c10 0 21 6 25 11c5 6 9 16 9 27c0 15 -7 30 -15 39s-25 21 -40 29
c-11 6 -35 14 -55 18s-39 6 -59 6c-41 0 -79 -8 -117 -25c-36 -16 -68 -39 -97 -70c-30 -32 -50 -64 -65 -101s-24 -77 -24 -123c0 -43 8 -84 23 -120c13 -31 35 -67 64 -97c25 -26 59 -50 92 -65c29 -13 66 -23 109 -23c28 0 56 4 87 16c23 9 47 22 70 43
c20 18 35 37 49 64c15 29 20 49 24 78v79h57v-481c0 -11 -2 -23 -7 -35s-13 -23 -20 -30c-11 -11 -22 -17 -31 -21c-12 -5 -24 -7 -35 -7c-18 0 -32 5 -43 11c-13 7 -25 18 -33 30l48 33c6 -9 15 -15 28 -15c11 0 19 4 25 10s10 13 11 24z" />
    <glyph glyph-name="Gbreve" unicode="&#x11e;" horiz-adv-x="751" 
d="M465 928h61c-1 -40 -13 -73 -36 -98c-23 -26 -58 -39 -106 -39c-47 0 -82 13 -105 39c-23 25 -36 58 -37 98h61c1 -25 8 -45 21 -60c12 -15 32 -23 60 -23c30 0 51 8 63 23c11 15 17 35 18 60zM612 -178v260c-32 -43 -65 -67 -103 -85c-43 -20 -87 -28 -129 -28
c-50 0 -90 11 -128 28c-42 19 -78 44 -109 76c-33 34 -59 75 -75 113c-20 47 -28 96 -28 141c0 52 10 100 28 145c20 50 47 87 77 119c33 35 69 61 113 81c42 19 87 30 137 30c26 0 54 -3 80 -9c30 -7 53 -17 72 -28c17 -10 36 -23 52 -45c13 -18 21 -37 21 -64
s-8 -49 -26 -67c-15 -15 -35 -26 -62 -26c-20 0 -38 6 -54 18l34 43c7 -5 14 -7 20 -7c10 0 21 6 25 11c5 6 9 16 9 27c0 15 -7 30 -15 39s-25 21 -40 29c-11 6 -35 14 -55 18s-39 6 -59 6c-41 0 -79 -8 -117 -25c-36 -16 -68 -39 -97 -70c-30 -32 -50 -64 -65 -101
s-24 -77 -24 -123c0 -43 8 -84 23 -120c13 -31 35 -67 64 -97c25 -26 59 -50 92 -65c29 -13 66 -23 109 -23c28 0 56 4 87 16c23 9 47 22 70 43c20 18 35 37 49 64c15 29 20 49 24 78v79h57v-481c0 -11 -2 -23 -7 -35s-13 -23 -20 -30c-11 -11 -22 -17 -31 -21
c-12 -5 -24 -7 -35 -7c-18 0 -32 5 -43 11c-13 7 -25 18 -33 30l48 33c6 -9 15 -15 28 -15c11 0 19 4 25 10s10 13 11 24z" />
    <glyph glyph-name="Gcaron" unicode="&#x1e6;" horiz-adv-x="751" 
d="M409 794h-49l-123 142h67l81 -89l80 89h68zM612 -178v260c-32 -43 -65 -67 -103 -85c-43 -20 -87 -28 -129 -28c-50 0 -90 11 -128 28c-42 19 -78 44 -109 76c-33 34 -59 75 -75 113c-20 47 -28 96 -28 141c0 52 10 100 28 145c20 50 47 87 77 119c33 35 69 61 113 81
c42 19 87 30 137 30c26 0 54 -3 80 -9c30 -7 53 -17 72 -28c17 -10 36 -23 52 -45c13 -18 21 -37 21 -64s-8 -49 -26 -67c-15 -15 -35 -26 -62 -26c-20 0 -38 6 -54 18l34 43c7 -5 14 -7 20 -7c10 0 21 6 25 11c5 6 9 16 9 27c0 15 -7 30 -15 39s-25 21 -40 29
c-11 6 -35 14 -55 18s-39 6 -59 6c-41 0 -79 -8 -117 -25c-36 -16 -68 -39 -97 -70c-30 -32 -50 -64 -65 -101s-24 -77 -24 -123c0 -43 8 -84 23 -120c13 -31 35 -67 64 -97c25 -26 59 -50 92 -65c29 -13 66 -23 109 -23c28 0 56 4 87 16c23 9 47 22 70 43
c20 18 35 37 49 64c15 29 20 49 24 78v79h57v-481c0 -11 -2 -23 -7 -35s-13 -23 -20 -30c-11 -11 -22 -17 -31 -21c-12 -5 -24 -7 -35 -7c-18 0 -32 5 -43 11c-13 7 -25 18 -33 30l48 33c6 -9 15 -15 28 -15c11 0 19 4 25 10s10 13 11 24z" />
    <glyph glyph-name="Gcircumflex" unicode="&#x11c;" horiz-adv-x="751" 
d="M533 804h-68l-80 89l-81 -89h-67l123 142h49zM612 -178v260c-32 -43 -65 -67 -103 -85c-43 -20 -87 -28 -129 -28c-50 0 -90 11 -128 28c-42 19 -78 44 -109 76c-33 34 -59 75 -75 113c-20 47 -28 96 -28 141c0 52 10 100 28 145c20 50 47 87 77 119c33 35 69 61 113 81
c42 19 87 30 137 30c26 0 54 -3 80 -9c30 -7 53 -17 72 -28c17 -10 36 -23 52 -45c13 -18 21 -37 21 -64s-8 -49 -26 -67c-15 -15 -35 -26 -62 -26c-20 0 -38 6 -54 18l34 43c7 -5 14 -7 20 -7c10 0 21 6 25 11c5 6 9 16 9 27c0 15 -7 30 -15 39s-25 21 -40 29
c-11 6 -35 14 -55 18s-39 6 -59 6c-41 0 -79 -8 -117 -25c-36 -16 -68 -39 -97 -70c-30 -32 -50 -64 -65 -101s-24 -77 -24 -123c0 -43 8 -84 23 -120c13 -31 35 -67 64 -97c25 -26 59 -50 92 -65c29 -13 66 -23 109 -23c28 0 56 4 87 16c23 9 47 22 70 43
c20 18 35 37 49 64c15 29 20 49 24 78v79h57v-481c0 -11 -2 -23 -7 -35s-13 -23 -20 -30c-11 -11 -22 -17 -31 -21c-12 -5 -24 -7 -35 -7c-18 0 -32 5 -43 11c-13 7 -25 18 -33 30l48 33c6 -9 15 -15 28 -15c11 0 19 4 25 10s10 13 11 24z" />
    <glyph glyph-name="Gcommaaccent" unicode="&#x122;" horiz-adv-x="751" 
d="M612 -178v260c-32 -43 -65 -67 -103 -85c-43 -20 -87 -28 -129 -28c-50 0 -90 11 -128 28c-42 19 -78 44 -109 76c-33 34 -59 75 -75 113c-20 47 -28 96 -28 141c0 52 10 100 28 145c20 50 47 87 77 119c33 35 69 61 113 81c42 19 87 30 137 30c26 0 54 -3 80 -9
c30 -7 53 -17 72 -28c17 -10 36 -23 52 -45c13 -18 21 -37 21 -64s-8 -49 -26 -67c-15 -15 -35 -26 -62 -26c-20 0 -38 6 -54 18l34 43c7 -5 14 -7 20 -7c10 0 21 6 25 11c5 6 9 16 9 27c0 15 -7 30 -15 39s-25 21 -40 29c-11 6 -35 14 -55 18s-39 6 -59 6
c-41 0 -79 -8 -117 -25c-36 -16 -68 -39 -97 -70c-30 -32 -50 -64 -65 -101s-24 -77 -24 -123c0 -43 8 -84 23 -120c13 -31 35 -67 64 -97c25 -26 59 -50 92 -65c29 -13 66 -23 109 -23c28 0 56 4 87 16c23 9 47 22 70 43c20 18 35 37 49 64c15 29 20 49 24 78v79h57v-481
c0 -11 -2 -23 -7 -35s-13 -23 -20 -30c-11 -11 -22 -17 -31 -21c-12 -5 -24 -7 -35 -7c-18 0 -32 5 -43 11c-13 7 -25 18 -33 30l48 33c6 -9 15 -15 28 -15c11 0 19 4 25 10s10 13 11 24zM360 -313h-54l40 207h64z" />
    <glyph glyph-name="Gdotaccent" unicode="&#x120;" horiz-adv-x="751" 
d="M382 907c24 0 43 -19 43 -43c0 -23 -19 -42 -43 -42c-23 0 -42 19 -42 42c0 24 19 43 42 43zM612 -178v260c-32 -43 -65 -67 -103 -85c-43 -20 -87 -28 -129 -28c-50 0 -90 11 -128 28c-42 19 -78 44 -109 76c-33 34 -59 75 -75 113c-20 47 -28 96 -28 141
c0 52 10 100 28 145c20 50 47 87 77 119c33 35 69 61 113 81c42 19 87 30 137 30c26 0 54 -3 80 -9c30 -7 53 -17 72 -28c17 -10 36 -23 52 -45c13 -18 21 -37 21 -64s-8 -49 -26 -67c-15 -15 -35 -26 -62 -26c-20 0 -38 6 -54 18l34 43c7 -5 14 -7 20 -7c10 0 21 6 25 11
c5 6 9 16 9 27c0 15 -7 30 -15 39s-25 21 -40 29c-11 6 -35 14 -55 18s-39 6 -59 6c-41 0 -79 -8 -117 -25c-36 -16 -68 -39 -97 -70c-30 -32 -50 -64 -65 -101s-24 -77 -24 -123c0 -43 8 -84 23 -120c13 -31 35 -67 64 -97c25 -26 59 -50 92 -65c29 -13 66 -23 109 -23
c28 0 56 4 87 16c23 9 47 22 70 43c20 18 35 37 49 64c15 29 20 49 24 78v79h57v-481c0 -11 -2 -23 -7 -35s-13 -23 -20 -30c-11 -11 -22 -17 -31 -21c-12 -5 -24 -7 -35 -7c-18 0 -32 5 -43 11c-13 7 -25 18 -33 30l48 33c6 -9 15 -15 28 -15c11 0 19 4 25 10s10 13 11 24z
" />
    <glyph glyph-name="H" unicode="H" horiz-adv-x="700" 
d="M66 613l-52 35c18 26 45 41 77 41c14 0 27 -3 36 -7c12 -5 23 -13 30 -20c11 -11 17 -22 21 -31c5 -12 7 -24 7 -35v-212h369v300h61v-684h-61v327h-369v-327h-62v596c0 9 -3 16 -9 22s-13 9 -22 9s-19 -3 -26 -14z" />
    <glyph glyph-name="Hbar" unicode="&#x126;" horiz-adv-x="700" 
d="M630 501h-15v-501h-61v327h-369v-327h-62v501h-21v52h21v43c0 9 -3 16 -9 22s-13 9 -22 9s-19 -3 -26 -14l-52 35c18 26 45 41 77 41c14 0 27 -3 36 -7c12 -5 23 -13 30 -20c11 -11 17 -22 21 -31c5 -12 7 -24 7 -35v-43h369v131h61v-131h15v-52zM554 501h-369v-117h369
v117z" />
    <glyph glyph-name="uni021E" unicode="&#x21e;" horiz-adv-x="700" 
d="M402 779h-49l-123 142h67l81 -89l80 89h68zM66 613l-52 35c18 26 45 41 77 41c14 0 27 -3 36 -7c12 -5 23 -13 30 -20c11 -11 17 -22 21 -31c5 -12 7 -24 7 -35v-212h369v300h61v-684h-61v327h-369v-327h-62v596c0 9 -3 16 -9 22s-13 9 -22 9s-19 -3 -26 -14z" />
    <glyph glyph-name="Hcircumflex" unicode="&#x124;" horiz-adv-x="700" 
d="M526 789h-68l-80 89l-81 -89h-67l123 142h49zM66 613l-52 35c18 26 45 41 77 41c14 0 27 -3 36 -7c12 -5 23 -13 30 -20c11 -11 17 -22 21 -31c5 -12 7 -24 7 -35v-212h369v300h61v-684h-61v327h-369v-327h-62v596c0 9 -3 16 -9 22s-13 9 -22 9s-19 -3 -26 -14z" />
    <glyph glyph-name="I" unicode="I" horiz-adv-x="204" 
d="M115 0h-61v684h61v-684z" />
    <glyph glyph-name="IJ" unicode="&#x132;" horiz-adv-x="672" 
d="M235 667l13 5c4 3 11 6 24 10c5 2 29 9 34 10c13 3 32 4 38 4c8 0 22 -2 34 -6l51 -18c26 -8 41 -11 55 -11s22 3 34 11c7 4 19 14 18 15h56v-496c0 -44 -2 -28 -2 -27c-1 -6 -1 -19 -6 -37c-3 -10 -8 -25 -16 -42c-9 -18 -17 -28 -28 -39c-34 -37 -78 -50 -127 -50
c-53 0 -100 15 -133 51c-18 18 -28 38 -35 59s-11 44 -12 73l33 -2c7 0 12 0 15 -1l6 -1h1l2 -1l1 -15c2 -6 0 -5 4 -22c1 -4 4 -15 10 -27c5 -11 10 -17 16 -25c22 -21 53 -32 92 -32c41 0 65 12 86 31c9 10 13 17 19 30c5 12 9 23 11 31c2 9 4 19 5 30l1 19v423
c-7 -4 -18 -8 -21 -9c-7 -2 -20 -4 -33 -4c-16 0 -35 3 -47 6c-10 3 -39 14 -42 15l-27 10c-8 2 -13 4 -24 4c-16 0 -32 -4 -44 -8c-9 -3 -22 -8 -34 -14l-3 1zM54 0v684h61v-684h-61z" />
    <glyph glyph-name="Iacute" unicode="&#xcd;" horiz-adv-x="204" 
d="M253 861l-172 -110l-22 34l158 125zM54 0v684h61v-684h-61z" />
    <glyph glyph-name="Ibreve" unicode="&#x12c;" horiz-adv-x="204" 
d="M167 913h61c-1 -40 -13 -73 -36 -98c-23 -26 -58 -39 -106 -39c-47 0 -82 13 -105 39c-23 25 -36 58 -37 98h61c1 -25 8 -45 21 -60c12 -15 32 -23 60 -23c30 0 51 8 63 23c11 15 17 35 18 60zM54 0v684h61v-684h-61z" />
    <glyph glyph-name="Icaron" unicode="&#x1cf;" horiz-adv-x="204" 
d="M111 779h-49l-123 142h67l81 -89l80 89h68zM54 0v684h61v-684h-61z" />
    <glyph glyph-name="Icircumflex" unicode="&#xce;" horiz-adv-x="204" 
d="M235 789h-68l-80 89l-81 -89h-67l123 142h49zM54 0v684h61v-684h-61z" />
    <glyph glyph-name="Idieresis" unicode="&#xcf;" horiz-adv-x="204" 
d="M-25 886c24 0 43 -19 43 -43c0 -23 -19 -42 -43 -42c-23 0 -42 19 -42 42c0 24 19 43 42 43zM197 886c24 0 43 -19 43 -43c0 -23 -19 -42 -43 -42c-23 0 -42 19 -42 42c0 24 19 43 42 43zM54 684h61v-684h-61v684z" />
    <glyph glyph-name="Idotaccent" unicode="&#x130;" horiz-adv-x="204" 
d="M84 892c24 0 43 -19 43 -43c0 -23 -19 -42 -43 -42c-23 0 -42 19 -42 42c0 24 19 43 42 43zM54 0v684h61v-684h-61z" />
    <glyph glyph-name="Idotbelow" unicode="&#x1eca;" horiz-adv-x="204" 
d="M54 0v684h61v-684h-61zM83 -114c12 0 22 -4 30 -12s12 -18 12 -30c0 -11 -4 -21 -12 -29s-18 -12 -30 -12c-17 0 -21 4 -29 12s-12 18 -12 29c0 12 4 22 12 30s18 12 29 12z" />
    <glyph glyph-name="Igrave" unicode="&#xcc;" horiz-adv-x="204" 
d="M120 785l-22 -34l-172 110l36 49zM115 0h-61v684h61v-684z" />
    <glyph glyph-name="Imacron" unicode="&#x12a;" horiz-adv-x="204" 
d="M250 811h-326v57h326v-57zM115 0h-61v684h61v-684z" />
    <glyph glyph-name="Iogonek" unicode="&#x12e;" horiz-adv-x="204" 
d="M130 -131l25 -45c-12 -9 -27 -16 -43 -21s-33 -8 -47 -8c-21 0 -43 6 -62 25c-16 16 -24 37 -24 63c0 13 2 27 8 39c2 4 11 21 19 31c7 9 24 26 26 28l22 20v683h61v-684l-26 -27c-7 -8 -20 -21 -26 -29c-7 -9 -16 -23 -19 -28c-5 -8 -8 -17 -8 -28c0 -7 1 -16 8 -25
c4 -5 9 -10 19 -13c4 -1 9 -2 14 -2c4 0 7 1 11 1c9 2 17 5 25 10z" />
    <glyph glyph-name="Itilde" unicode="&#x128;" horiz-adv-x="204" 
d="M-57 797l-33 41c17 14 33 25 48 32s30 11 45 13h14c10 0 20 -1 31 -3c15 -4 31 -9 48 -16c14 -6 27 -10 38 -13c8 -2 15 -3 23 -3c3 0 6 0 9 1c10 1 20 4 31 9c10 5 21 13 33 23l34 -41c-32 -27 -63 -41 -93 -44h-7l-6 -1c-15 0 -29 2 -43 6s-27 9 -39 14
c-14 5 -26 9 -37 12c-9 2 -16 3 -24 3h-8c-10 -1 -20 -5 -31 -10c-10 -5 -21 -13 -33 -23zM115 0h-61v684h61v-684z" />
    <glyph glyph-name="J" unicode="J" horiz-adv-x="468" 
d="M31 667l13 5c4 3 11 6 24 10c5 2 29 9 34 10c13 3 32 4 38 4c8 0 22 -2 34 -6l51 -18c26 -8 41 -11 55 -11s22 3 34 11c7 4 19 14 18 15h56v-496c0 -44 -2 -28 -2 -27c-1 -6 -1 -19 -6 -37c-3 -10 -8 -25 -16 -42c-9 -18 -17 -28 -28 -39c-34 -37 -78 -50 -127 -50
c-53 0 -100 15 -133 51c-18 18 -28 38 -35 59s-11 44 -12 73l33 -2c7 0 12 0 15 -1l6 -1h1l2 -1l1 -15c2 -6 0 -5 4 -22c1 -4 4 -15 10 -27c5 -11 10 -17 16 -25c22 -21 53 -32 92 -32c41 0 65 12 86 31c9 10 13 17 19 30c5 12 9 23 11 31c2 9 4 19 5 30l1 19v423
c-7 -4 -18 -8 -21 -9c-7 -2 -20 -4 -33 -4c-16 0 -35 3 -47 6c-10 3 -39 14 -42 15l-27 10c-8 2 -13 4 -24 4c-16 0 -32 -4 -44 -8c-9 -3 -22 -8 -34 -14l-3 1z" />
    <glyph glyph-name="Jcircumflex" unicode="&#x134;" horiz-adv-x="468" 
d="M373 787h-68l-80 89l-81 -89h-67l123 142h49zM31 667l13 5c4 3 11 6 24 10c5 2 29 9 34 10c13 3 32 4 38 4c8 0 22 -2 34 -6l51 -18c26 -8 41 -11 55 -11s22 3 34 11c7 4 19 14 18 15h56v-496c0 -44 -2 -28 -2 -27c-1 -6 -1 -19 -6 -37c-3 -10 -8 -25 -16 -42
c-9 -18 -17 -28 -28 -39c-34 -37 -78 -50 -127 -50c-53 0 -100 15 -133 51c-18 18 -28 38 -35 59s-11 44 -12 73l33 -2c7 0 12 0 15 -1l6 -1h1l2 -1l1 -15c2 -6 0 -5 4 -22c1 -4 4 -15 10 -27c5 -11 10 -17 16 -25c22 -21 53 -32 92 -32c41 0 65 12 86 31c9 10 13 17 19 30
c5 12 9 23 11 31c2 9 4 19 5 30l1 19v423c-7 -4 -18 -8 -21 -9c-7 -2 -20 -4 -33 -4c-16 0 -35 3 -47 6c-10 3 -39 14 -42 15l-27 10c-8 2 -13 4 -24 4c-16 0 -32 -4 -44 -8c-9 -3 -22 -8 -34 -14l-3 1z" />
    <glyph glyph-name="K" unicode="K" horiz-adv-x="643" 
d="M414 684h75c-48 -85 -35 -66 -51 -96c-12 -23 -42 -78 -52 -96c-16 -29 -36 -60 -52 -84c-13 -19 -34 -45 -54 -61l200 -283c6 -9 15 -15 28 -15c9 0 17 3 24 10s10 15 10 25h57c0 -11 -2 -23 -7 -35s-12 -22 -19 -29c-9 -9 -16 -14 -29 -20s-23 -8 -35 -8
c-18 0 -34 5 -42 9c-12 6 -25 17 -34 30l-207 293c-29 -9 -54 -12 -83 -12c-2 0 -15 0 -26 1v-312h-63v683h61v-312h43c31 1 50 7 65 14c19 9 34 22 46 37c16 20 50 74 68 106c19 33 48 94 77 155z" />
    <glyph glyph-name="Kcaron" unicode="&#x1e8;" horiz-adv-x="643" 
d="M346 779h-49l-123 142h67l81 -89l80 89h68zM414 684h75c-48 -85 -35 -66 -51 -96c-12 -23 -42 -78 -52 -96c-16 -29 -36 -60 -52 -84c-13 -19 -34 -45 -54 -61l200 -283c6 -9 15 -15 28 -15c9 0 17 3 24 10s10 15 10 25h57c0 -11 -2 -23 -7 -35s-12 -22 -19 -29
c-9 -9 -16 -14 -29 -20s-23 -8 -35 -8c-18 0 -34 5 -42 9c-12 6 -25 17 -34 30l-207 293c-29 -9 -54 -12 -83 -12c-2 0 -15 0 -26 1v-312h-63v683h61v-312h43c31 1 50 7 65 14c19 9 34 22 46 37c16 20 50 74 68 106c19 33 48 94 77 155z" />
    <glyph glyph-name="Kcommaaccent" unicode="&#x136;" horiz-adv-x="643" 
d="M414 684h75c-48 -85 -35 -66 -51 -96c-12 -23 -42 -78 -52 -96c-16 -29 -36 -60 -52 -84c-13 -19 -34 -45 -54 -61l200 -283c6 -9 15 -15 28 -15c9 0 17 3 24 10s10 15 10 25h57c0 -11 -2 -23 -7 -35s-12 -22 -19 -29c-9 -9 -16 -14 -29 -20s-23 -8 -35 -8
c-18 0 -34 5 -42 9c-12 6 -25 17 -34 30l-207 293c-29 -9 -54 -12 -83 -12c-2 0 -15 0 -26 1v-312h-63v683h61v-312h43c31 1 50 7 65 14c19 9 34 22 46 37c16 20 50 74 68 106c19 33 48 94 77 155zM301 -285h-54l40 207h64z" />
    <glyph glyph-name="L" unicode="L" horiz-adv-x="512" 
d="M115 57h327v-57h-388v684h61v-627z" />
    <glyph glyph-name="LJ" unicode="&#x1c7;" horiz-adv-x="980" 
d="M543 667l13 5c4 3 11 6 24 10c5 2 29 9 34 10c13 3 32 4 38 4c8 0 22 -2 34 -6l51 -18c26 -8 41 -11 55 -11s22 3 34 11c7 4 19 14 18 15h56v-496c0 -44 -2 -28 -2 -27c-1 -6 -1 -19 -6 -37c-3 -10 -8 -25 -16 -42c-9 -18 -17 -28 -28 -39c-34 -37 -78 -50 -127 -50
c-53 0 -100 15 -133 51c-18 18 -28 38 -35 59s-11 44 -12 73l33 -2c7 0 12 0 15 -1l6 -1h1l2 -1l1 -15c2 -6 0 -5 4 -22c1 -4 4 -15 10 -27c5 -11 10 -17 16 -25c22 -21 53 -32 92 -32c41 0 65 12 86 31c9 10 13 17 19 30c5 12 9 23 11 31c2 9 4 19 5 30l1 19v423
c-7 -4 -18 -8 -21 -9c-7 -2 -20 -4 -33 -4c-16 0 -35 3 -47 6c-10 3 -39 14 -42 15l-27 10c-8 2 -13 4 -24 4c-16 0 -32 -4 -44 -8c-9 -3 -22 -8 -34 -14l-3 1zM442 57v-57h-388v684h61v-627h327z" />
    <glyph glyph-name="Lacute" unicode="&#x139;" horiz-adv-x="512" 
d="M422 861l-172 -110l-22 34l158 125zM442 57v-57h-388v684h61v-627h327z" />
    <glyph glyph-name="Lcaron" unicode="&#x13d;" horiz-adv-x="512" 
d="M442 57v-57h-388v684h61v-627h327z" />
    <glyph glyph-name="Lcommaaccent" unicode="&#x13b;" horiz-adv-x="512" 
d="M442 57v-57h-388v684h61v-627h327zM235 -285h-54l40 207h64z" />
    <glyph glyph-name="Ldot" unicode="&#x13f;" horiz-adv-x="512" 
d="M442 57v-57h-388v684h61v-627h327zM285 386c32 0 59 -27 59 -59c0 -33 -27 -60 -59 -60c-33 0 -60 27 -60 60c0 32 27 59 60 59z" />
    <glyph glyph-name="Lj" unicode="&#x1c8;" horiz-adv-x="726" 
d="M615 708c24 0 43 -19 43 -43c0 -23 -19 -42 -43 -42c-23 0 -42 19 -42 42c0 24 19 43 42 43zM442 57v-57h-388v684h61v-627h327zM646 501v-671c0 -13 -2 -25 -7 -36s-11 -20 -19 -28s-17 -14 -28 -19s-23 -7 -35 -7c-15 0 -29 3 -42 10s-24 17 -33 30l46 30
c7 -10 16 -15 29 -15c9 0 17 3 24 10s10 16 10 25v671h55z" />
    <glyph glyph-name="Lslash" unicode="&#x141;" horiz-adv-x="525" 
d="M475 57v-57h-388v324l-77 -55v63l77 56v296h61v-252l82 59v-64l-82 -59v-311h327z" />
    <glyph glyph-name="M" unicode="M" horiz-adv-x="1011" 
d="M951 0h-57l-113 563l-6 38l-11 -39l-203 -562h-59l-202 561l-11 40l-6 -40l-100 -497c-4 -20 -14 -37 -30 -50c-17 -14 -35 -21 -54 -21c-18 0 -35 5 -50 15c-15 9 -27 23 -34 40l52 21c3 -5 7 -10 12 -14s10 -6 17 -6c16 0 26 7 31 22l126 613h59l209 -571l11 -39l11 39
l211 571h57z" />
    <glyph glyph-name="N" unicode="N" horiz-adv-x="780" 
d="M288 559l340 -408l11 -22v554h59v-684h-18l-471 564l-10 21v-499c0 -12 -3 -23 -8 -35c-5 -11 -12 -21 -21 -29s-20 -14 -31 -19s-23 -7 -35 -7c-25 0 -46 9 -63 27c-18 18 -27 39 -27 64h56c0 -9 3 -17 10 -24s15 -10 24 -10s17 3 24 9c7 7 10 15 11 24v599h38z" />
    <glyph glyph-name="NJ" unicode="&#x1ca;" horiz-adv-x="1248" 
d="M811 667l13 5c4 3 11 6 24 10c5 2 29 9 34 10c13 3 32 4 38 4c8 0 22 -2 34 -6l51 -18c26 -8 41 -11 55 -11s22 3 34 11c7 4 19 14 18 15h56v-496c0 -44 -2 -28 -2 -27c-1 -6 -1 -19 -6 -37c-3 -10 -8 -25 -16 -42c-9 -18 -17 -28 -28 -39c-34 -37 -78 -50 -127 -50
c-53 0 -100 15 -133 51c-18 18 -28 38 -35 59s-11 44 -12 73l33 -2c7 0 12 0 15 -1l6 -1h1l2 -1l1 -15c2 -6 0 -5 4 -22c1 -4 4 -15 10 -27c5 -11 10 -17 16 -25c22 -21 53 -32 92 -32c41 0 65 12 86 31c9 10 13 17 19 30c5 12 9 23 11 31c2 9 4 19 5 30l1 19v423
c-7 -4 -18 -8 -21 -9c-7 -2 -20 -4 -33 -4c-16 0 -35 3 -47 6c-10 3 -39 14 -42 15l-27 10c-8 2 -13 4 -24 4c-16 0 -32 -4 -44 -8c-9 -3 -22 -8 -34 -14l-3 1zM628 151l11 -22v554h59v-684h-18l-471 564l-10 21v-499c0 -12 -3 -23 -8 -35c-5 -11 -12 -21 -21 -29
s-20 -14 -31 -19s-23 -7 -35 -7c-25 0 -46 9 -63 27c-18 18 -27 39 -27 64h56c0 -9 3 -17 10 -24s15 -10 24 -10s17 3 24 9c7 7 10 15 11 24v599h38l111 -125z" />
    <glyph glyph-name="Nacute" unicode="&#x143;" horiz-adv-x="780" 
d="M586 861l-172 -110l-22 34l158 125zM628 151l11 -22v554h59v-684h-18l-471 564l-10 21v-499c0 -12 -3 -23 -8 -35c-5 -11 -12 -21 -21 -29s-20 -14 -31 -19s-23 -7 -35 -7c-25 0 -46 9 -63 27c-18 18 -27 39 -27 64h56c0 -9 3 -17 10 -24s15 -10 24 -10s17 3 24 9
c7 7 10 15 11 24v599h38l111 -125z" />
    <glyph glyph-name="Ncaron" unicode="&#x147;" horiz-adv-x="780" 
d="M444 779h-49l-123 142h67l81 -89l80 89h68zM628 151l11 -22v554h59v-684h-18l-471 564l-10 21v-499c0 -12 -3 -23 -8 -35c-5 -11 -12 -21 -21 -29s-20 -14 -31 -19s-23 -7 -35 -7c-25 0 -46 9 -63 27c-18 18 -27 39 -27 64h56c0 -9 3 -17 10 -24s15 -10 24 -10s17 3 24 9
c7 7 10 15 11 24v599h38l111 -125z" />
    <glyph glyph-name="Ncommaaccent" unicode="&#x145;" horiz-adv-x="780" 
d="M628 151l11 -22v554h59v-684h-18l-471 564l-10 21v-499c0 -12 -3 -23 -8 -35c-5 -11 -12 -21 -21 -29s-20 -14 -31 -19s-23 -7 -35 -7c-25 0 -46 9 -63 27c-18 18 -27 39 -27 64h56c0 -9 3 -17 10 -24s15 -10 24 -10s17 3 24 9c7 7 10 15 11 24v599h38l111 -125z
M400 -285h-54l40 207h64z" />
    <glyph glyph-name="uni01F8" unicode="&#x1f8;" horiz-adv-x="780" 
d="M453 785l-22 -34l-172 110l36 49zM628 151l11 -22v554h59v-684h-18l-471 564l-10 21v-499c0 -12 -3 -23 -8 -35c-5 -11 -12 -21 -21 -29s-20 -14 -31 -19s-23 -7 -35 -7c-25 0 -46 9 -63 27c-18 18 -27 39 -27 64h56c0 -9 3 -17 10 -24s15 -10 24 -10s17 3 24 9
c7 7 10 15 11 24v599h38l111 -125z" />
    <glyph glyph-name="Eng" unicode="&#x14a;" horiz-adv-x="600" 
 />
    <glyph glyph-name="Nj" unicode="&#x1cb;" horiz-adv-x="1024" 
d="M913 708c24 0 43 -19 43 -43c0 -23 -19 -42 -43 -42c-23 0 -42 19 -42 42c0 24 19 43 42 43zM628 151l11 -22v554h59v-684h-18l-471 564l-10 21v-499c0 -12 -3 -23 -8 -35c-5 -11 -12 -21 -21 -29s-20 -14 -31 -19s-23 -7 -35 -7c-25 0 -46 9 -63 27
c-18 18 -27 39 -27 64h56c0 -9 3 -17 10 -24s15 -10 24 -10s17 3 24 9c7 7 10 15 11 24v599h38l111 -125zM944 501v-671c0 -13 -2 -25 -7 -36s-11 -20 -19 -28s-17 -14 -28 -19s-23 -7 -35 -7c-15 0 -29 3 -42 10s-24 17 -33 30l46 30c7 -10 16 -15 29 -15c9 0 17 3 24 10
s10 16 10 25v671h55z" />
    <glyph glyph-name="Ntilde" unicode="&#xd1;" horiz-adv-x="780" 
d="M276 797l-33 41c17 14 33 25 48 32s30 11 45 13h14c10 0 20 -1 31 -3c15 -4 31 -9 48 -16c14 -6 27 -10 38 -13c8 -2 15 -3 23 -3c3 0 6 0 9 1c10 1 20 4 31 9c10 5 21 13 33 23l34 -41c-32 -27 -63 -41 -93 -44h-7l-6 -1c-15 0 -29 2 -43 6s-27 9 -39 14
c-14 5 -26 9 -37 12c-9 2 -16 3 -24 3h-8c-10 -1 -20 -5 -30 -10c-11 -5 -22 -13 -34 -23zM628 151l11 -22v554h59v-684h-18l-471 564l-10 21v-499c0 -12 -3 -23 -8 -35c-5 -11 -12 -21 -21 -29s-20 -14 -31 -19s-23 -7 -35 -7c-25 0 -46 9 -63 27c-18 18 -27 39 -27 64h56
c0 -9 3 -17 10 -24s15 -10 24 -10s17 3 24 9c7 7 10 15 11 24v599h38l111 -125z" />
    <glyph glyph-name="O" unicode="O" horiz-adv-x="809" 
d="M40 330v19c0 42 8 88 26 133c16 40 41 81 71 113c29 31 68 61 111 81c39 18 87 30 141 30c52 0 98 -11 138 -29c42 -19 78 -45 111 -79c28 -29 55 -66 74 -112s27 -93 27 -137v-19c0 -48 -7 -91 -24 -132c-16 -39 -43 -82 -73 -115c-29 -32 -67 -61 -109 -80
c-44 -20 -92 -30 -141 -30c-50 0 -95 10 -136 28s-77 43 -112 78c-28 28 -56 65 -76 113c-20 47 -28 92 -28 138zM683 330v19c0 60 -7 79 -23 117c-15 36 -35 67 -63 96c-27 28 -63 52 -93 65c-33 15 -73 24 -116 24s-78 -9 -112 -24s-66 -36 -94 -65s-49 -62 -63 -96
c-15 -36 -23 -75 -23 -117v-19c0 -42 8 -81 23 -117c17 -41 39 -71 63 -96c26 -27 59 -50 94 -65c36 -16 72 -24 112 -24c43 0 83 9 116 24c29 13 65 36 93 65c29 30 48 61 63 96c15 36 23 75 23 117z" />
    <glyph glyph-name="Oacute" unicode="&#xd3;" horiz-adv-x="809" 
d="M554 861l-172 -110l-22 34l158 125zM40 330v19c0 42 8 88 26 133c16 40 41 81 71 113c29 31 68 61 111 81c39 18 87 30 141 30c52 0 98 -11 138 -29c42 -19 78 -45 111 -79c28 -29 55 -66 74 -112s27 -93 27 -137v-19c0 -48 -7 -91 -24 -132c-16 -39 -43 -82 -73 -115
c-29 -32 -67 -61 -109 -80c-44 -20 -92 -30 -141 -30c-50 0 -95 10 -136 28s-77 43 -112 78c-28 28 -56 65 -76 113c-20 47 -28 92 -28 138zM683 330v19c0 60 -7 79 -23 117c-15 36 -35 67 -63 96c-27 28 -63 52 -93 65c-33 15 -73 24 -116 24s-78 -9 -112 -24
s-66 -36 -94 -65s-49 -62 -63 -96c-15 -36 -23 -75 -23 -117v-19c0 -42 8 -81 23 -117c17 -41 39 -71 63 -96c26 -27 59 -50 94 -65c36 -16 72 -24 112 -24c43 0 83 9 116 24c29 13 65 36 93 65c29 30 48 61 63 96c15 36 23 75 23 117z" />
    <glyph glyph-name="Obreve" unicode="&#x14e;" horiz-adv-x="809" 
d="M468 913h61c-1 -40 -13 -73 -36 -98c-23 -26 -58 -39 -106 -39c-47 0 -82 13 -105 39c-23 25 -36 58 -37 98h61c1 -25 8 -45 21 -60c12 -15 32 -23 60 -23c30 0 51 8 63 23c11 15 17 35 18 60zM40 330v19c0 42 8 88 26 133c16 40 41 81 71 113c29 31 68 61 111 81
c39 18 87 30 141 30c52 0 98 -11 138 -29c42 -19 78 -45 111 -79c28 -29 55 -66 74 -112s27 -93 27 -137v-19c0 -48 -7 -91 -24 -132c-16 -39 -43 -82 -73 -115c-29 -32 -67 -61 -109 -80c-44 -20 -92 -30 -141 -30c-50 0 -95 10 -136 28s-77 43 -112 78
c-28 28 -56 65 -76 113c-20 47 -28 92 -28 138zM683 330v19c0 60 -7 79 -23 117c-15 36 -35 67 -63 96c-27 28 -63 52 -93 65c-33 15 -73 24 -116 24s-78 -9 -112 -24s-66 -36 -94 -65s-49 -62 -63 -96c-15 -36 -23 -75 -23 -117v-19c0 -42 8 -81 23 -117
c17 -41 39 -71 63 -96c26 -27 59 -50 94 -65c36 -16 72 -24 112 -24c43 0 83 9 116 24c29 13 65 36 93 65c29 30 48 61 63 96c15 36 23 75 23 117z" />
    <glyph glyph-name="Ocaron" unicode="&#x1d1;" horiz-adv-x="809" 
d="M412 779h-49l-123 142h67l81 -89l80 89h68zM40 330v19c0 42 8 88 26 133c16 40 41 81 71 113c29 31 68 61 111 81c39 18 87 30 141 30c52 0 98 -11 138 -29c42 -19 78 -45 111 -79c28 -29 55 -66 74 -112s27 -93 27 -137v-19c0 -48 -7 -91 -24 -132
c-16 -39 -43 -82 -73 -115c-29 -32 -67 -61 -109 -80c-44 -20 -92 -30 -141 -30c-50 0 -95 10 -136 28s-77 43 -112 78c-28 28 -56 65 -76 113c-20 47 -28 92 -28 138zM683 330v19c0 60 -7 79 -23 117c-15 36 -35 67 -63 96c-27 28 -63 52 -93 65c-33 15 -73 24 -116 24
s-78 -9 -112 -24s-66 -36 -94 -65s-49 -62 -63 -96c-15 -36 -23 -75 -23 -117v-19c0 -42 8 -81 23 -117c17 -41 39 -71 63 -96c26 -27 59 -50 94 -65c36 -16 72 -24 112 -24c43 0 83 9 116 24c29 13 65 36 93 65c29 30 48 61 63 96c15 36 23 75 23 117z" />
    <glyph glyph-name="Ocircumflex" unicode="&#xd4;" horiz-adv-x="809" 
d="M536 789h-68l-80 89l-81 -89h-67l123 142h49zM40 330v19c0 42 8 88 26 133c16 40 41 81 71 113c29 31 68 61 111 81c39 18 87 30 141 30c52 0 98 -11 138 -29c42 -19 78 -45 111 -79c28 -29 55 -66 74 -112s27 -93 27 -137v-19c0 -48 -7 -91 -24 -132
c-16 -39 -43 -82 -73 -115c-29 -32 -67 -61 -109 -80c-44 -20 -92 -30 -141 -30c-50 0 -95 10 -136 28s-77 43 -112 78c-28 28 -56 65 -76 113c-20 47 -28 92 -28 138zM683 330v19c0 60 -7 79 -23 117c-15 36 -35 67 -63 96c-27 28 -63 52 -93 65c-33 15 -73 24 -116 24
s-78 -9 -112 -24s-66 -36 -94 -65s-49 -62 -63 -96c-15 -36 -23 -75 -23 -117v-19c0 -42 8 -81 23 -117c17 -41 39 -71 63 -96c26 -27 59 -50 94 -65c36 -16 72 -24 112 -24c43 0 83 9 116 24c29 13 65 36 93 65c29 30 48 61 63 96c15 36 23 75 23 117z" />
    <glyph glyph-name="Ocircumflexacute" unicode="&#x1ed0;" horiz-adv-x="809" 
d="M554 1061l-172 -110l-22 34l158 125zM536 789h-68l-80 89l-81 -89h-67l123 142h49zM40 330v19c0 42 8 88 26 133c16 40 41 81 71 113c29 31 68 61 111 81c39 18 87 30 141 30c52 0 98 -11 138 -29c42 -19 78 -45 111 -79c28 -29 55 -66 74 -112s27 -93 27 -137v-19
c0 -48 -7 -91 -24 -132c-16 -39 -43 -82 -73 -115c-29 -32 -67 -61 -109 -80c-44 -20 -92 -30 -141 -30c-50 0 -95 10 -136 28s-77 43 -112 78c-28 28 -56 65 -76 113c-20 47 -28 92 -28 138zM683 330v19c0 60 -7 79 -23 117c-15 36 -35 67 -63 96c-27 28 -63 52 -93 65
c-33 15 -73 24 -116 24s-78 -9 -112 -24s-66 -36 -94 -65s-49 -62 -63 -96c-15 -36 -23 -75 -23 -117v-19c0 -42 8 -81 23 -117c17 -41 39 -71 63 -96c26 -27 59 -50 94 -65c36 -16 72 -24 112 -24c43 0 83 9 116 24c29 13 65 36 93 65c29 30 48 61 63 96
c15 36 23 75 23 117z" />
    <glyph glyph-name="Ocircumflexdotbelow" unicode="&#x1ed8;" horiz-adv-x="809" 
d="M536 789h-68l-80 89l-81 -89h-67l123 142h49zM40 330v19c0 42 8 88 26 133c16 40 41 81 71 113c29 31 68 61 111 81c39 18 87 30 141 30c52 0 98 -11 138 -29c42 -19 78 -45 111 -79c28 -29 55 -66 74 -112s27 -93 27 -137v-19c0 -48 -7 -91 -24 -132
c-16 -39 -43 -82 -73 -115c-29 -32 -67 -61 -109 -80c-44 -20 -92 -30 -141 -30c-50 0 -95 10 -136 28s-77 43 -112 78c-28 28 -56 65 -76 113c-20 47 -28 92 -28 138zM683 330v19c0 60 -7 79 -23 117c-15 36 -35 67 -63 96c-27 28 -63 52 -93 65c-33 15 -73 24 -116 24
s-78 -9 -112 -24s-66 -36 -94 -65s-49 -62 -63 -96c-15 -36 -23 -75 -23 -117v-19c0 -42 8 -81 23 -117c17 -41 39 -71 63 -96c26 -27 59 -50 94 -65c36 -16 72 -24 112 -24c43 0 83 9 116 24c29 13 65 36 93 65c29 30 48 61 63 96c15 36 23 75 23 117zM388 -141
c12 0 22 -4 30 -12s12 -18 12 -30c0 -11 -4 -21 -12 -29s-18 -12 -30 -12c-17 0 -21 4 -29 12s-12 18 -12 29c0 12 4 22 12 30s18 12 29 12z" />
    <glyph glyph-name="Ocircumflexgrave" unicode="&#x1ed2;" horiz-adv-x="809" 
d="M421 975l-22 -34l-172 110l36 49zM536 789h-68l-80 89l-81 -89h-67l123 142h49zM40 330v19c0 42 8 88 26 133c16 40 41 81 71 113c29 31 68 61 111 81c39 18 87 30 141 30c52 0 98 -11 138 -29c42 -19 78 -45 111 -79c28 -29 55 -66 74 -112s27 -93 27 -137v-19
c0 -48 -7 -91 -24 -132c-16 -39 -43 -82 -73 -115c-29 -32 -67 -61 -109 -80c-44 -20 -92 -30 -141 -30c-50 0 -95 10 -136 28s-77 43 -112 78c-28 28 -56 65 -76 113c-20 47 -28 92 -28 138zM683 330v19c0 60 -7 79 -23 117c-15 36 -35 67 -63 96c-27 28 -63 52 -93 65
c-33 15 -73 24 -116 24s-78 -9 -112 -24s-66 -36 -94 -65s-49 -62 -63 -96c-15 -36 -23 -75 -23 -117v-19c0 -42 8 -81 23 -117c17 -41 39 -71 63 -96c26 -27 59 -50 94 -65c36 -16 72 -24 112 -24c43 0 83 9 116 24c29 13 65 36 93 65c29 30 48 61 63 96
c15 36 23 75 23 117z" />
    <glyph glyph-name="Ocircumflextilde" unicode="&#x1ed6;" horiz-adv-x="809" 
d="M244 977l-33 41c17 14 33 25 48 32s30 11 45 13h14c10 0 20 -1 31 -3c15 -4 31 -9 48 -16c14 -6 27 -10 38 -13c8 -2 15 -3 23 -3c3 0 6 0 9 1c10 1 20 4 31 9c10 5 21 13 33 23l34 -41c-32 -27 -63 -41 -93 -44h-7l-6 -1c-15 0 -29 2 -43 6s-27 9 -39 14
c-14 5 -26 9 -37 12c-9 2 -16 3 -24 3h-8c-10 -1 -20 -5 -30 -10c-11 -5 -22 -13 -34 -23zM536 789h-68l-80 89l-81 -89h-67l123 142h49zM40 330v19c0 42 8 88 26 133c16 40 41 81 71 113c29 31 68 61 111 81c39 18 87 30 141 30c52 0 98 -11 138 -29c42 -19 78 -45 111 -79
c28 -29 55 -66 74 -112s27 -93 27 -137v-19c0 -48 -7 -91 -24 -132c-16 -39 -43 -82 -73 -115c-29 -32 -67 -61 -109 -80c-44 -20 -92 -30 -141 -30c-50 0 -95 10 -136 28s-77 43 -112 78c-28 28 -56 65 -76 113c-20 47 -28 92 -28 138zM683 330v19c0 60 -7 79 -23 117
c-15 36 -35 67 -63 96c-27 28 -63 52 -93 65c-33 15 -73 24 -116 24s-78 -9 -112 -24s-66 -36 -94 -65s-49 -62 -63 -96c-15 -36 -23 -75 -23 -117v-19c0 -42 8 -81 23 -117c17 -41 39 -71 63 -96c26 -27 59 -50 94 -65c36 -16 72 -24 112 -24c43 0 83 9 116 24
c29 13 65 36 93 65c29 30 48 61 63 96c15 36 23 75 23 117z" />
    <glyph glyph-name="Odieresis" unicode="&#xd6;" horiz-adv-x="809" 
d="M276 801c-23 0 -42 19 -42 42c0 24 19 43 42 43c24 0 43 -19 43 -43c0 -23 -19 -42 -43 -42zM498 801c-23 0 -42 19 -42 42c0 24 19 43 42 43c24 0 43 -19 43 -43c0 -23 -19 -42 -43 -42zM40 330v19c0 42 8 88 26 133c16 40 41 81 71 113c29 31 68 61 111 81
c39 18 87 30 141 30c52 0 98 -11 138 -29c42 -19 78 -45 111 -79c28 -29 55 -66 74 -112s27 -93 27 -137v-19c0 -48 -7 -91 -24 -132c-16 -39 -43 -82 -73 -115c-29 -32 -67 -61 -109 -80c-44 -20 -92 -30 -141 -30c-50 0 -95 10 -136 28s-77 43 -112 78
c-28 28 -56 65 -76 113c-20 47 -28 92 -28 138zM683 330v19c0 60 -7 79 -23 117c-15 36 -35 67 -63 96c-27 28 -63 52 -93 65c-33 15 -73 24 -116 24s-78 -9 -112 -24s-66 -36 -94 -65s-49 -62 -63 -96c-15 -36 -23 -75 -23 -117v-19c0 -42 8 -81 23 -117
c17 -41 39 -71 63 -96c26 -27 59 -50 94 -65c36 -16 72 -24 112 -24c43 0 83 9 116 24c29 13 65 36 93 65c29 30 48 61 63 96c15 36 23 75 23 117z" />
    <glyph glyph-name="uni022A" unicode="&#x22a;" horiz-adv-x="809" 
d="M551 931h-326v57h326v-57zM234 843c0 24 19 43 42 43c24 0 43 -19 43 -43c0 -23 -19 -42 -43 -42c-23 0 -42 19 -42 42zM456 843c0 24 19 43 42 43c24 0 43 -19 43 -43c0 -23 -19 -42 -43 -42c-23 0 -42 19 -42 42zM40 330v19c0 42 8 88 26 133c16 40 41 81 71 113
c29 31 68 61 111 81c39 18 87 30 141 30c52 0 98 -11 138 -29c42 -19 78 -45 111 -79c28 -29 55 -66 74 -112s27 -93 27 -137v-19c0 -48 -7 -91 -24 -132c-16 -39 -43 -82 -73 -115c-29 -32 -67 -61 -109 -80c-44 -20 -92 -30 -141 -30c-50 0 -95 10 -136 28s-77 43 -112 78
c-28 28 -56 65 -76 113c-20 47 -28 92 -28 138zM683 330v19c0 60 -7 79 -23 117c-15 36 -35 67 -63 96c-27 28 -63 52 -93 65c-33 15 -73 24 -116 24s-78 -9 -112 -24s-66 -36 -94 -65s-49 -62 -63 -96c-15 -36 -23 -75 -23 -117v-19c0 -42 8 -81 23 -117
c17 -41 39 -71 63 -96c26 -27 59 -50 94 -65c36 -16 72 -24 112 -24c43 0 83 9 116 24c29 13 65 36 93 65c29 30 48 61 63 96c15 36 23 75 23 117z" />
    <glyph glyph-name="Odotbelow" unicode="&#x1ecc;" horiz-adv-x="809" 
d="M40 330v19c0 42 8 88 26 133c16 40 41 81 71 113c29 31 68 61 111 81c39 18 87 30 141 30c52 0 98 -11 138 -29c42 -19 78 -45 111 -79c28 -29 55 -66 74 -112s27 -93 27 -137v-19c0 -48 -7 -91 -24 -132c-16 -39 -43 -82 -73 -115c-29 -32 -67 -61 -109 -80
c-44 -20 -92 -30 -141 -30c-50 0 -95 10 -136 28s-77 43 -112 78c-28 28 -56 65 -76 113c-20 47 -28 92 -28 138zM683 330v19c0 60 -7 79 -23 117c-15 36 -35 67 -63 96c-27 28 -63 52 -93 65c-33 15 -73 24 -116 24s-78 -9 -112 -24s-66 -36 -94 -65s-49 -62 -63 -96
c-15 -36 -23 -75 -23 -117v-19c0 -42 8 -81 23 -117c17 -41 39 -71 63 -96c26 -27 59 -50 94 -65c36 -16 72 -24 112 -24c43 0 83 9 116 24c29 13 65 36 93 65c29 30 48 61 63 96c15 36 23 75 23 117zM388 -141c12 0 22 -4 30 -12s12 -18 12 -30c0 -11 -4 -21 -12 -29
s-18 -12 -30 -12c-17 0 -21 4 -29 12s-12 18 -12 29c0 12 4 22 12 30s18 12 29 12z" />
    <glyph glyph-name="Ograve" unicode="&#xd2;" horiz-adv-x="809" 
d="M421 785l-22 -34l-172 110l36 49zM40 330v19c0 42 8 88 26 133c16 40 41 81 71 113c29 31 68 61 111 81c39 18 87 30 141 30c52 0 98 -11 138 -29c42 -19 78 -45 111 -79c28 -29 55 -66 74 -112s27 -93 27 -137v-19c0 -48 -7 -91 -24 -132c-16 -39 -43 -82 -73 -115
c-29 -32 -67 -61 -109 -80c-44 -20 -92 -30 -141 -30c-50 0 -95 10 -136 28s-77 43 -112 78c-28 28 -56 65 -76 113c-20 47 -28 92 -28 138zM683 330v19c0 60 -7 79 -23 117c-15 36 -35 67 -63 96c-27 28 -63 52 -93 65c-33 15 -73 24 -116 24s-78 -9 -112 -24
s-66 -36 -94 -65s-49 -62 -63 -96c-15 -36 -23 -75 -23 -117v-19c0 -42 8 -81 23 -117c17 -41 39 -71 63 -96c26 -27 59 -50 94 -65c36 -16 72 -24 112 -24c43 0 83 9 116 24c29 13 65 36 93 65c29 30 48 61 63 96c15 36 23 75 23 117z" />
    <glyph glyph-name="Ohorn" unicode="&#x1a0;" horiz-adv-x="809" 
d="M720 639l23 44c15 -7 61 -31 61 -90c0 -63 -54 -91 -96 -97l4 -10c19 -46 27 -93 27 -137v-19c0 -48 -7 -91 -24 -132c-16 -39 -43 -82 -73 -115c-29 -32 -67 -61 -109 -80c-44 -20 -92 -30 -141 -30c-50 0 -95 10 -136 28s-77 43 -112 78c-28 28 -56 65 -76 113
c-20 47 -28 92 -28 138v19c0 42 8 88 26 133c16 40 41 81 71 113c29 31 68 61 111 81c39 18 87 30 141 30c52 0 98 -11 138 -29c42 -19 78 -45 111 -79c15 -15 30 -33 43 -53c5 -1 9 -2 14 -2c25 0 58 15 58 50c0 27 -19 37 -33 46zM683 330v19c0 60 -7 79 -23 117
c-15 36 -35 67 -63 96c-27 28 -63 52 -93 65c-33 15 -73 24 -116 24s-78 -9 -112 -24s-66 -36 -94 -65s-49 -62 -63 -96c-15 -36 -23 -75 -23 -117v-19c0 -42 8 -81 23 -117c17 -41 39 -71 63 -96c26 -27 59 -50 94 -65c36 -16 72 -24 112 -24c43 0 83 9 116 24
c29 13 65 36 93 65c29 30 48 61 63 96c15 36 23 75 23 117z" />
    <glyph glyph-name="Ohungarumlaut" unicode="&#x150;" horiz-adv-x="809" 
d="M442 896l-151 -125l-39 36l152 126zM634 896l-153 -125l-39 36l151 126zM40 330v19c0 42 8 88 26 133c16 40 41 81 71 113c29 31 68 61 111 81c39 18 87 30 141 30c52 0 98 -11 138 -29c42 -19 78 -45 111 -79c28 -29 55 -66 74 -112s27 -93 27 -137v-19
c0 -48 -7 -91 -24 -132c-16 -39 -43 -82 -73 -115c-29 -32 -67 -61 -109 -80c-44 -20 -92 -30 -141 -30c-50 0 -95 10 -136 28s-77 43 -112 78c-28 28 -56 65 -76 113c-20 47 -28 92 -28 138zM683 330v19c0 60 -7 79 -23 117c-15 36 -35 67 -63 96c-27 28 -63 52 -93 65
c-33 15 -73 24 -116 24s-78 -9 -112 -24s-66 -36 -94 -65s-49 -62 -63 -96c-15 -36 -23 -75 -23 -117v-19c0 -42 8 -81 23 -117c17 -41 39 -71 63 -96c26 -27 59 -50 94 -65c36 -16 72 -24 112 -24c43 0 83 9 116 24c29 13 65 36 93 65c29 30 48 61 63 96
c15 36 23 75 23 117z" />
    <glyph glyph-name="Omacron" unicode="&#x14c;" horiz-adv-x="809" 
d="M551 811h-326v57h326v-57zM40 330v19c0 42 8 88 26 133c16 40 41 81 71 113c29 31 68 61 111 81c39 18 87 30 141 30c52 0 98 -11 138 -29c42 -19 78 -45 111 -79c28 -29 55 -66 74 -112s27 -93 27 -137v-19c0 -48 -7 -91 -24 -132c-16 -39 -43 -82 -73 -115
c-29 -32 -67 -61 -109 -80c-44 -20 -92 -30 -141 -30c-50 0 -95 10 -136 28s-77 43 -112 78c-28 28 -56 65 -76 113c-20 47 -28 92 -28 138zM683 330v19c0 60 -7 79 -23 117c-15 36 -35 67 -63 96c-27 28 -63 52 -93 65c-33 15 -73 24 -116 24s-78 -9 -112 -24
s-66 -36 -94 -65s-49 -62 -63 -96c-15 -36 -23 -75 -23 -117v-19c0 -42 8 -81 23 -117c17 -41 39 -71 63 -96c26 -27 59 -50 94 -65c36 -16 72 -24 112 -24c43 0 83 9 116 24c29 13 65 36 93 65c29 30 48 61 63 96c15 36 23 75 23 117z" />
    <glyph glyph-name="Oogonek" unicode="&#x1ea;" horiz-adv-x="809" 
d="M40 330v19c0 42 8 88 26 133c16 40 41 81 71 113c29 31 68 61 111 81c39 18 87 30 141 30c52 0 98 -11 138 -29c42 -19 78 -45 111 -79c28 -29 55 -66 74 -112s27 -93 27 -137v-19c0 -48 -7 -91 -24 -132c-16 -39 -43 -82 -73 -115l-14 -14l-12 -13
c-7 -8 -20 -21 -26 -29c-7 -9 -16 -23 -19 -28c-5 -8 -8 -17 -8 -28c0 -7 1 -16 8 -25c4 -5 9 -10 19 -13c4 -1 9 -2 14 -2c4 0 7 1 11 1c9 2 17 5 25 10l17 10l25 -45c-12 -9 -27 -16 -43 -21s-33 -8 -47 -8c-21 0 -43 6 -62 25c-16 16 -24 37 -24 63c0 9 1 18 4 27
c-38 -13 -78 -20 -118 -20c-50 0 -95 10 -136 28s-77 43 -112 78c-28 28 -56 65 -76 113c-20 47 -28 92 -28 138zM683 330v19c0 60 -7 79 -23 117c-15 36 -35 67 -63 96c-27 28 -63 52 -93 65c-33 15 -73 24 -116 24s-78 -9 -112 -24s-66 -36 -94 -65s-49 -62 -63 -96
c-15 -36 -23 -75 -23 -117v-19c0 -42 8 -81 23 -117c17 -41 39 -71 63 -96c26 -27 59 -50 94 -65c36 -16 72 -24 112 -24c43 0 83 9 116 24c29 13 65 36 93 65c29 30 48 61 63 96c15 36 23 75 23 117z" />
    <glyph glyph-name="Oogonekmacron" unicode="&#x1ec;" horiz-adv-x="809" 
d="M551 811h-326v57h326v-57zM40 330v19c0 42 8 88 26 133c16 40 41 81 71 113c29 31 68 61 111 81c39 18 87 30 141 30c52 0 98 -11 138 -29c42 -19 78 -45 111 -79c28 -29 55 -66 74 -112s27 -93 27 -137v-19c0 -48 -7 -91 -24 -132c-16 -39 -43 -82 -73 -115l-14 -14
l-12 -13c-7 -8 -20 -21 -26 -29c-7 -9 -16 -23 -19 -28c-5 -8 -8 -17 -8 -28c0 -7 1 -16 8 -25c4 -5 9 -10 19 -13c4 -1 9 -2 14 -2c4 0 7 1 11 1c9 2 17 5 25 10l17 10l25 -45c-12 -9 -27 -16 -43 -21s-33 -8 -47 -8c-21 0 -43 6 -62 25c-16 16 -24 37 -24 63
c0 9 1 18 4 27c-38 -13 -78 -20 -118 -20c-50 0 -95 10 -136 28s-77 43 -112 78c-28 28 -56 65 -76 113c-20 47 -28 92 -28 138zM683 330v19c0 60 -7 79 -23 117c-15 36 -35 67 -63 96c-27 28 -63 52 -93 65c-33 15 -73 24 -116 24s-78 -9 -112 -24s-66 -36 -94 -65
s-49 -62 -63 -96c-15 -36 -23 -75 -23 -117v-19c0 -42 8 -81 23 -117c17 -41 39 -71 63 -96c26 -27 59 -50 94 -65c36 -16 72 -24 112 -24c43 0 83 9 116 24c29 13 65 36 93 65c29 30 48 61 63 96c15 36 23 75 23 117z" />
    <glyph glyph-name="Oslash" unicode="&#xd8;" horiz-adv-x="809" 
d="M626 676l-27 -43c14 -11 27 -22 39 -35c28 -29 55 -66 74 -112s27 -93 27 -137v-19c0 -48 -7 -91 -24 -132c-16 -39 -43 -82 -73 -115c-29 -32 -67 -61 -109 -80c-44 -20 -92 -30 -141 -30c-50 0 -95 10 -136 28c-13 6 -26 12 -39 20l-40 -65l-61 19l51 82
c-7 7 -15 14 -23 22c-28 28 -56 65 -76 113c-20 47 -28 92 -28 138v19c0 42 8 88 26 133c16 40 41 81 71 113c29 31 68 61 111 81c39 18 87 30 141 30c52 0 98 -11 138 -29l22 -11l17 28zM96 349v-19c0 -42 8 -81 23 -117c17 -41 39 -71 63 -96l14 -14l323 517l-15 7
c-33 15 -73 24 -116 24s-78 -9 -112 -24s-66 -36 -94 -65s-49 -62 -63 -96c-15 -36 -23 -75 -23 -117zM683 330v19c0 60 -7 79 -23 117c-15 36 -35 67 -63 96c-8 9 -17 17 -27 24l-324 -519c10 -6 20 -11 30 -15c36 -16 72 -24 112 -24c43 0 83 9 116 24c29 13 65 36 93 65
c29 30 48 61 63 96c15 36 23 75 23 117z" />
    <glyph glyph-name="Oslashacute" unicode="&#x1fe;" horiz-adv-x="809" 
d="M547 861l-172 -110l-22 34l158 125zM626 676l-27 -43c14 -11 27 -22 39 -35c28 -29 55 -66 74 -112s27 -93 27 -137v-19c0 -48 -7 -91 -24 -132c-16 -39 -43 -82 -73 -115c-29 -32 -67 -61 -109 -80c-44 -20 -92 -30 -141 -30c-50 0 -95 10 -136 28c-13 6 -26 12 -39 20
l-40 -65l-61 19l51 82l-23 22c-28 28 -56 65 -76 113c-20 47 -28 92 -28 138v19c0 42 8 88 26 133c16 40 41 81 71 113c29 31 68 61 111 81c39 18 87 30 141 30c52 0 98 -11 138 -29l22 -11l17 28zM96 349v-19c0 -42 8 -81 23 -117c17 -41 39 -71 63 -96l14 -14l323 517
l-15 7c-33 15 -73 24 -116 24s-78 -9 -112 -24s-66 -36 -94 -65s-49 -62 -63 -96c-15 -36 -23 -75 -23 -117zM683 330v19c0 60 -7 79 -23 117c-15 36 -35 67 -63 96c-8 9 -17 17 -27 24l-324 -519c10 -6 20 -11 30 -15c36 -16 72 -24 112 -24c43 0 83 9 116 24
c29 13 65 36 93 65c29 30 48 61 63 96c15 36 23 75 23 117z" />
    <glyph glyph-name="Otilde" unicode="&#xd5;" horiz-adv-x="809" 
d="M244 797l-33 41c17 14 33 25 48 32s30 11 45 13h14c10 0 20 -1 31 -3c15 -4 31 -9 48 -16c14 -6 27 -10 38 -13c8 -2 15 -3 23 -3c3 0 6 0 9 1c10 1 20 4 31 9c10 5 21 13 33 23l34 -41c-32 -27 -63 -41 -93 -44h-7l-6 -1c-15 0 -29 2 -43 6s-27 9 -39 14
c-14 5 -26 9 -37 12c-9 2 -16 3 -24 3h-8c-10 -1 -20 -5 -30 -10c-11 -5 -22 -13 -34 -23zM40 330v19c0 42 8 88 26 133c16 40 41 81 71 113c29 31 68 61 111 81c39 18 87 30 141 30c52 0 98 -11 138 -29c42 -19 78 -45 111 -79c28 -29 55 -66 74 -112s27 -93 27 -137v-19
c0 -48 -7 -91 -24 -132c-16 -39 -43 -82 -73 -115c-29 -32 -67 -61 -109 -80c-44 -20 -92 -30 -141 -30c-50 0 -95 10 -136 28s-77 43 -112 78c-28 28 -56 65 -76 113c-20 47 -28 92 -28 138zM683 330v19c0 60 -7 79 -23 117c-15 36 -35 67 -63 96c-27 28 -63 52 -93 65
c-33 15 -73 24 -116 24s-78 -9 -112 -24s-66 -36 -94 -65s-49 -62 -63 -96c-15 -36 -23 -75 -23 -117v-19c0 -42 8 -81 23 -117c17 -41 39 -71 63 -96c26 -27 59 -50 94 -65c36 -16 72 -24 112 -24c43 0 83 9 116 24c29 13 65 36 93 65c29 30 48 61 63 96
c15 36 23 75 23 117z" />
    <glyph glyph-name="OE" unicode="&#x152;" horiz-adv-x="1192" 
d="M40 335v18c0 43 8 86 24 127c17 41 40 77 69 109s65 58 106 77s86 29 136 29c47 0 90 -9 131 -27c41 -19 76 -44 106 -75c16 -16 30 -34 42 -53v147h448v-57h-387v-237h267v-57h-267v-276h407v-57h-468v144c-11 -17 -23 -33 -37 -48c-29 -32 -64 -58 -105 -77
s-87 -29 -137 -29c-45 0 -88 9 -129 27s-76 43 -107 74s-55 67 -73 109c-17 41 -26 85 -26 132zM654 310v68c-2 31 -9 60 -21 88c-22 52 -35 65 -60 91s-55 47 -89 62s-70 23 -109 23s-75 -8 -109 -23s-64 -36 -89 -62c-26 -26 -46 -56 -61 -91s-22 -73 -22 -113v-18
c0 -40 7 -77 22 -112s35 -66 61 -92c25 -26 55 -47 89 -62s70 -23 109 -23s75 8 109 23s64 36 89 62s45 57 60 92c12 27 19 56 21 87z" />
    <glyph glyph-name="P" unicode="P" 
d="M117 684h230c33 0 61 -7 81 -16c18 -8 41 -23 60 -44c18 -20 30 -43 38 -66c9 -26 13 -54 13 -83c0 -35 -6 -61 -15 -85c-12 -32 -26 -52 -42 -69s-39 -36 -65 -47s-56 -16 -106 -16c-23 0 -27 1 -41 1c-15 1 -14 2 -24 3h-4v55l93 -4c21 0 39 3 60 13c13 6 28 14 45 34
c11 13 22 28 30 52c6 18 10 40 10 64c0 47 -14 85 -40 111c-23 23 -61 40 -107 41h-132v-629h-61v629h-21c-13 0 -25 -5 -34 -14s-15 -20 -15 -35h-56c0 18 4 30 8 40c5 12 11 22 22 33s18 17 34 24c10 4 22 8 39 8z" />
    <glyph glyph-name="Thorn" unicode="&#xde;" horiz-adv-x="535" 
d="M114 564h156c29 -1 55 -7 79 -18c23 -11 44 -25 61 -43s30 -39 39 -64s13 -52 13 -81c0 -31 -5 -60 -15 -86c-10 -27 -24 -50 -42 -70s-40 -35 -65 -46c-26 -11 -55 -17 -86 -17h-43c-24 0 -39 1 -46 2v55l46 -2h40c23 0 43 4 62 12s35 19 48 33c13 15 24 32 31 52
s11 42 11 66c0 48 -14 85 -41 112c-28 27 -65 40 -111 40h-137v-509h-61v684h61v-120z" />
    <glyph glyph-name="Q" unicode="Q" horiz-adv-x="781" 
d="M175 -166l118 166c-52 12 -77 26 -105 44c-30 20 -58 45 -80 76c-21 29 -40 66 -51 102s-17 80 -17 121c0 44 7 93 24 139s40 80 69 111s65 57 106 74c42 18 87 27 139 27s96 -9 138 -27s79 -45 106 -74c32 -34 54 -72 69 -112c16 -43 24 -88 24 -139
c0 -55 -9 -98 -24 -139c-20 -54 -42 -83 -69 -112c-27 -28 -59 -54 -106 -74c-40 -17 -83 -27 -138 -27h-14c-5 1 -9 1 -14 1l-59 -85l80 -27c20 -7 40 -12 57 -15s40 -5 56 -5c28 0 53 6 95 35l25 -44c-57 -42 -75 -43 -104 -43c-40 0 -58 2 -80 6s-37 8 -61 16l-99 33
l-42 -61zM379 639c-42 0 -82 -8 -114 -21c-37 -15 -66 -37 -87 -60c-19 -21 -43 -57 -57 -95c-13 -35 -20 -77 -20 -123c0 -42 6 -79 20 -118c15 -42 34 -70 57 -94c22 -23 47 -44 87 -61c31 -13 66 -22 113 -22c41 0 79 7 114 22c33 14 61 33 87 61c25 27 43 58 56 94
s20 73 20 119s-7 86 -20 122s-31 65 -57 93c-24 26 -53 47 -87 61c-33 14 -70 22 -112 22z" />
    <glyph glyph-name="R" unicode="R" horiz-adv-x="720" 
d="M117 684l236 1c34 0 59 -7 80 -17c23 -11 42 -26 59 -46c16 -19 27 -39 36 -66s13 -49 13 -76c0 -28 -4 -49 -10 -68c-7 -22 -18 -43 -30 -58c-15 -19 -32 -33 -50 -43s-41 -18 -70 -20l-25 -1l13 -5c3 -1 8 -3 11 -5c5 -3 22 -17 27 -23l21 -26l130 -170
c6 -9 14 -14 27 -14c7 0 14 2 20 6c14 9 14 15 14 28l57 -2c0 -14 -3 -28 -10 -41c-5 -10 -15 -23 -29 -32c-14 -10 -30 -16 -51 -16c-30 0 -55 13 -75 39l-126 164c-14 19 -34 42 -56 58s-41 22 -78 25v56h87c43 0 80 15 104 39c26 26 39 62 39 105c0 21 -3 40 -9 59
c-6 18 -14 34 -27 49c-14 16 -29 26 -41 32c-14 7 -35 12 -55 12h-150v-628h-61v628h-19c-13 0 -25 -5 -34 -14s-15 -20 -15 -35h-56c0 18 4 30 8 40c5 12 11 22 22 33s18 17 34 24c10 4 22 8 39 8z" />
    <glyph glyph-name="Racute" unicode="&#x154;" horiz-adv-x="720" 
d="M485 861l-172 -110l-22 34l158 125zM117 685h236c34 0 59 -7 80 -17c23 -11 42 -26 59 -46c16 -19 27 -39 36 -66s13 -49 13 -76c0 -28 -4 -49 -10 -68c-7 -22 -18 -43 -30 -58c-15 -19 -32 -33 -50 -43s-41 -18 -70 -21h-25l13 -5c3 -1 8 -3 11 -5c5 -3 22 -17 27 -23
l21 -26l130 -170c6 -9 14 -14 27 -14c7 0 14 2 20 6c14 9 14 15 14 28l57 -2c0 -14 -3 -28 -10 -41c-5 -10 -15 -23 -29 -32c-14 -10 -30 -16 -51 -16c-30 0 -55 13 -75 39l-126 164c-14 19 -34 42 -56 58s-41 22 -78 25v56h87c43 0 80 15 104 39c26 26 39 62 39 105
c0 21 -3 40 -9 59c-6 18 -14 34 -27 49c-14 16 -29 26 -41 32c-14 7 -35 12 -55 12h-150v-628h-61v628h-19c-13 0 -25 -5 -34 -14s-15 -20 -15 -35h-56c0 18 4 30 8 40c5 12 11 22 22 33s18 17 34 24c10 4 22 8 39 9z" />
    <glyph glyph-name="Rcaron" unicode="&#x158;" horiz-adv-x="720" 
d="M343 779h-49l-123 142h67l81 -89l80 89h68zM117 685h236c34 0 59 -7 80 -17c23 -11 42 -26 59 -46c16 -19 27 -39 36 -66s13 -49 13 -76c0 -28 -4 -49 -10 -68c-7 -22 -18 -43 -30 -58c-15 -19 -32 -33 -50 -43s-41 -18 -70 -21h-25l13 -5c3 -1 8 -3 11 -5
c5 -3 22 -17 27 -23l21 -26l130 -170c6 -9 14 -14 27 -14c7 0 14 2 20 6c14 9 14 15 14 28l57 -2c0 -14 -3 -28 -10 -41c-5 -10 -15 -23 -29 -32c-14 -10 -30 -16 -51 -16c-30 0 -55 13 -75 39l-126 164c-14 19 -34 42 -56 58s-41 22 -78 25v56h87c43 0 80 15 104 39
c26 26 39 62 39 105c0 21 -3 40 -9 59c-6 18 -14 34 -27 49c-14 16 -29 26 -41 32c-14 7 -35 12 -55 12h-150v-628h-61v628h-19c-13 0 -25 -5 -34 -14s-15 -20 -15 -35h-56c0 18 4 30 8 40c5 12 11 22 22 33s18 17 34 24c10 4 22 8 39 9z" />
    <glyph glyph-name="Rcommaaccent" unicode="&#x156;" horiz-adv-x="720" 
d="M117 685h236c34 0 59 -7 80 -17c23 -11 42 -26 59 -46c16 -19 27 -39 36 -66s13 -49 13 -76c0 -28 -4 -49 -10 -68c-7 -22 -18 -43 -30 -58c-15 -19 -32 -33 -50 -43s-41 -18 -70 -21h-25l13 -5c3 -1 8 -3 11 -5c5 -3 22 -17 27 -23l21 -26l130 -170c6 -9 14 -14 27 -14
c7 0 14 2 20 6c14 9 14 15 14 28l57 -2c0 -14 -3 -28 -10 -41c-5 -10 -15 -23 -29 -32c-14 -10 -30 -16 -51 -16c-30 0 -55 13 -75 39l-126 164c-14 19 -34 42 -56 58s-41 22 -78 25v56h87c43 0 80 15 104 39c26 26 39 62 39 105c0 21 -3 40 -9 59c-6 18 -14 34 -27 49
c-14 16 -29 26 -41 32c-14 7 -35 12 -55 12h-150v-628h-61v628h-19c-13 0 -25 -5 -34 -14s-15 -20 -15 -35h-56c0 18 4 30 8 40c5 12 11 22 22 33s18 17 34 24c10 4 22 8 39 9zM301 -285h-54l40 207h64z" />
    <glyph glyph-name="S" unicode="S" horiz-adv-x="559" 
d="M277 348l-8 3c-8 3 -32 14 -52 25c-28 15 -41 25 -59 41s-32 30 -47 53c-14 22 -20 39 -20 71c0 28 5 46 13 64c10 22 21 36 37 51c13 12 34 27 57 36c25 10 50 14 75 14c21 0 43 -3 62 -9c15 -5 36 -14 49 -24c8 -6 24 -21 33 -37c8 -14 12 -32 12 -48
c0 -15 -3 -28 -8 -39c-6 -13 -13 -21 -21 -28c-7 -6 -20 -14 -31 -17c-7 -2 -25 -5 -37 -3l4 52c4 -2 11 -2 14 -1s10 6 12 9c6 7 7 11 9 14c2 5 3 10 3 15c0 6 -1 12 -9 24c-6 9 -10 13 -22 20c-9 5 -22 11 -33 13c-13 3 -32 4 -38 4c-15 0 -36 -3 -52 -9s-33 -18 -40 -24
c-9 -8 -19 -22 -25 -34s-9 -27 -9 -43c0 -19 4 -32 16 -48c9 -12 23 -26 37 -37c16 -13 26 -20 49 -32c17 -9 34 -17 51 -24l6 -3c5 -3 36 -17 57 -28s47 -28 60 -39c18 -15 36 -38 47 -59c11 -22 19 -45 19 -87c0 -37 -6 -56 -16 -79c-12 -26 -28 -47 -48 -67
c-21 -21 -42 -35 -70 -46c-25 -10 -54 -17 -87 -17c-21 0 -49 3 -77 12c-25 8 -46 19 -68 34c-26 18 -42 34 -58 53c-12 15 -32 46 -41 70l51 20c17 -39 43 -72 77 -96c34 -25 73 -38 115 -38c22 0 46 4 67 13c20 8 38 19 53 34s27 31 35 49c6 14 12 35 12 60s-6 46 -13 60
c-10 20 -24 32 -36 42c-15 12 -31 22 -50 32z" />
    <glyph glyph-name="Sacute" unicode="&#x15a;" horiz-adv-x="559" 
d="M439 883l-172 -110l-22 34l158 125zM277 348l-8 3c-8 3 -32 14 -52 25c-28 15 -41 25 -59 41s-32 30 -47 53c-14 22 -20 39 -20 71c0 28 5 46 13 64c10 22 21 36 37 51c13 12 34 27 57 36c25 10 50 14 75 14c21 0 43 -3 62 -9c15 -5 36 -14 49 -24c8 -6 24 -21 33 -37
c8 -14 12 -32 12 -48c0 -15 -3 -28 -8 -39c-6 -13 -13 -21 -21 -28c-7 -6 -20 -14 -31 -17c-7 -2 -25 -5 -37 -3l4 52c4 -2 11 -2 14 -1s10 6 12 9c6 7 7 11 9 14c2 5 3 10 3 15c0 6 -1 12 -9 24c-6 9 -10 13 -22 20c-9 5 -22 11 -33 13c-13 3 -32 4 -38 4
c-15 0 -36 -3 -52 -9s-33 -18 -40 -24c-9 -8 -19 -22 -25 -34s-9 -27 -9 -43c0 -19 4 -32 16 -48c9 -12 23 -26 37 -37c16 -13 26 -20 49 -32c17 -9 34 -17 51 -24l6 -3c5 -3 36 -17 57 -28s47 -28 60 -39c18 -15 36 -38 47 -59c11 -22 19 -45 19 -87c0 -37 -6 -56 -16 -79
c-12 -26 -28 -47 -48 -67c-21 -21 -42 -35 -70 -46c-25 -10 -54 -17 -87 -17c-21 0 -49 3 -77 12c-25 8 -46 19 -68 34c-26 18 -42 34 -58 53c-12 15 -32 46 -41 70l51 20c17 -39 43 -72 77 -96c34 -25 73 -38 115 -38c22 0 46 4 67 13c20 8 38 19 53 34s27 31 35 49
c6 14 12 35 12 60s-6 46 -13 60c-10 20 -24 32 -36 42c-15 12 -31 22 -50 32z" />
    <glyph glyph-name="Scaron" unicode="&#x160;" horiz-adv-x="559" 
d="M297 801h-49l-123 142h67l81 -89l80 89h68zM277 348l-8 3c-8 3 -32 14 -52 25c-28 15 -41 25 -59 41s-32 30 -47 53c-14 22 -20 39 -20 71c0 28 5 46 13 64c10 22 21 36 37 51c13 12 34 27 57 36c25 10 50 14 75 14c21 0 43 -3 62 -9c15 -5 36 -14 49 -24
c8 -6 24 -21 33 -37c8 -14 12 -32 12 -48c0 -15 -3 -28 -8 -39c-6 -13 -13 -21 -21 -28c-7 -6 -20 -14 -31 -17c-7 -2 -25 -5 -37 -3l4 52c4 -2 11 -2 14 -1s10 6 12 9c6 7 7 11 9 14c2 5 3 10 3 15c0 6 -1 12 -9 24c-6 9 -10 13 -22 20c-9 5 -22 11 -33 13
c-13 3 -32 4 -38 4c-15 0 -36 -3 -52 -9s-33 -18 -40 -24c-9 -8 -19 -22 -25 -34s-9 -27 -9 -43c0 -19 4 -32 16 -48c9 -12 23 -26 37 -37c16 -13 26 -20 49 -32c17 -9 34 -17 51 -24l6 -3c5 -3 36 -17 57 -28s47 -28 60 -39c18 -15 36 -38 47 -59c11 -22 19 -45 19 -87
c0 -37 -6 -56 -16 -79c-12 -26 -28 -47 -48 -67c-21 -21 -42 -35 -70 -46c-25 -10 -54 -17 -87 -17c-21 0 -49 3 -77 12c-25 8 -46 19 -68 34c-26 18 -42 34 -58 53c-12 15 -32 46 -41 70l51 20c17 -39 43 -72 77 -96c34 -25 73 -38 115 -38c22 0 46 4 67 13
c20 8 38 19 53 34s27 31 35 49c6 14 12 35 12 60s-6 46 -13 60c-10 20 -24 32 -36 42c-15 12 -31 22 -50 32z" />
    <glyph glyph-name="Scedilla" unicode="&#x15e;" horiz-adv-x="559" 
d="M299 400l6 -3c5 -3 36 -17 57 -28s47 -28 60 -39c18 -15 36 -38 47 -59c11 -22 19 -45 19 -87c0 -37 -6 -56 -16 -79c-12 -26 -28 -47 -48 -67c-21 -21 -42 -35 -70 -46c-15 -6 -31 -11 -49 -14l-5 -27c23 -3 41 -11 54 -31c10 -15 17 -36 17 -57c0 -15 -3 -28 -7 -39
c-6 -16 -13 -25 -22 -35s-20 -18 -32 -23c-14 -6 -27 -8 -40 -8v53c14 0 28 5 37 18s11 30 11 38c0 22 -16 38 -48 38h-31l7 71c-17 1 -36 5 -56 11c-25 8 -46 19 -68 34c-26 18 -42 34 -58 53c-12 15 -32 46 -41 70l51 20c17 -39 43 -72 77 -96c34 -25 73 -38 115 -38
c22 0 46 4 67 13c20 8 38 19 53 34s27 31 35 49c6 14 12 35 12 60s-6 46 -13 60c-10 20 -24 32 -36 42c-15 12 -31 22 -50 32l-57 28l-8 3c-8 3 -32 14 -52 25c-28 15 -41 25 -59 41s-32 30 -47 53c-14 22 -20 39 -20 71c0 28 5 46 13 64c10 22 21 36 37 51
c13 12 34 27 57 36c25 10 50 14 75 14c21 0 43 -3 62 -9c15 -5 36 -14 49 -24c8 -6 24 -21 33 -37c8 -14 12 -32 12 -48c0 -15 -3 -28 -8 -39c-6 -13 -13 -21 -21 -28c-7 -6 -20 -14 -31 -17c-7 -2 -25 -5 -37 -3l4 52c4 -2 11 -2 14 -1s10 6 12 9c6 7 7 11 9 14
c2 5 3 10 3 15c0 6 -1 12 -9 24c-6 9 -10 13 -22 20c-9 5 -22 11 -33 13c-13 3 -32 4 -38 4c-15 0 -36 -3 -52 -9s-33 -18 -40 -24c-9 -8 -19 -22 -25 -34s-9 -27 -9 -43c0 -19 4 -32 16 -48c9 -12 23 -26 37 -37c16 -13 26 -20 49 -32c17 -9 34 -17 51 -24z" />
    <glyph glyph-name="Scircumflex" unicode="&#x15c;" horiz-adv-x="559" 
d="M421 811h-68l-80 89l-81 -89h-67l123 142h49zM277 348l-8 3c-8 3 -32 14 -52 25c-28 15 -41 25 -59 41s-32 30 -47 53c-14 22 -20 39 -20 71c0 28 5 46 13 64c10 22 21 36 37 51c13 12 34 27 57 36c25 10 50 14 75 14c21 0 43 -3 62 -9c15 -5 36 -14 49 -24
c8 -6 24 -21 33 -37c8 -14 12 -32 12 -48c0 -15 -3 -28 -8 -39c-6 -13 -13 -21 -21 -28c-7 -6 -20 -14 -31 -17c-7 -2 -25 -5 -37 -3l4 52c4 -2 11 -2 14 -1s10 6 12 9c6 7 7 11 9 14c2 5 3 10 3 15c0 6 -1 12 -9 24c-6 9 -10 13 -22 20c-9 5 -22 11 -33 13
c-13 3 -32 4 -38 4c-15 0 -36 -3 -52 -9s-33 -18 -40 -24c-9 -8 -19 -22 -25 -34s-9 -27 -9 -43c0 -19 4 -32 16 -48c9 -12 23 -26 37 -37c16 -13 26 -20 49 -32c17 -9 34 -17 51 -24l6 -3c5 -3 36 -17 57 -28s47 -28 60 -39c18 -15 36 -38 47 -59c11 -22 19 -45 19 -87
c0 -37 -6 -56 -16 -79c-12 -26 -28 -47 -48 -67c-21 -21 -42 -35 -70 -46c-25 -10 -54 -17 -87 -17c-21 0 -49 3 -77 12c-25 8 -46 19 -68 34c-26 18 -42 34 -58 53c-12 15 -32 46 -41 70l51 20c17 -39 43 -72 77 -96c34 -25 73 -38 115 -38c22 0 46 4 67 13
c20 8 38 19 53 34s27 31 35 49c6 14 12 35 12 60s-6 46 -13 60c-10 20 -24 32 -36 42c-15 12 -31 22 -50 32z" />
    <glyph glyph-name="Scommaaccent" unicode="&#x218;" horiz-adv-x="559" 
d="M277 348l-8 3c-8 3 -32 14 -52 25c-28 15 -41 25 -59 41s-32 30 -47 53c-14 22 -20 39 -20 71c0 28 5 46 13 64c10 22 21 36 37 51c13 12 34 27 57 36c25 10 50 14 75 14c21 0 43 -3 62 -9c15 -5 36 -14 49 -24c8 -6 24 -21 33 -37c8 -14 12 -32 12 -48
c0 -15 -3 -28 -8 -39c-6 -13 -13 -21 -21 -28c-7 -6 -20 -14 -31 -17c-7 -2 -25 -5 -37 -3l4 52c4 -2 11 -2 14 -1s10 6 12 9c6 7 7 11 9 14c2 5 3 10 3 15c0 6 -1 12 -9 24c-6 9 -10 13 -22 20c-9 5 -22 11 -33 13c-13 3 -32 4 -38 4c-15 0 -36 -3 -52 -9s-33 -18 -40 -24
c-9 -8 -19 -22 -25 -34s-9 -27 -9 -43c0 -19 4 -32 16 -48c9 -12 23 -26 37 -37c16 -13 26 -20 49 -32c17 -9 34 -17 51 -24l6 -3c5 -3 36 -17 57 -28s47 -28 60 -39c18 -15 36 -38 47 -59c11 -22 19 -45 19 -87c0 -37 -6 -56 -16 -79c-12 -26 -28 -47 -48 -67
c-21 -21 -42 -35 -70 -46c-25 -10 -54 -17 -87 -17c-21 0 -49 3 -77 12c-25 8 -46 19 -68 34c-26 18 -42 34 -58 53c-12 15 -32 46 -41 70l51 20c17 -39 43 -72 77 -96c34 -25 73 -38 115 -38c22 0 46 4 67 13c20 8 38 19 53 34s27 31 35 49c6 14 12 35 12 60s-6 46 -13 60
c-10 20 -24 32 -36 42c-15 12 -31 22 -50 32zM259 -285h-54l40 207h64z" />
    <glyph glyph-name="T" unicode="T" horiz-adv-x="626" 
d="M577 627h-239v-628h-61v628h-161c-9 0 -17 -3 -24 -10s-10 -15 -10 -24h-57c0 12 2 24 7 35c5 12 11 21 19 29s17 15 28 19c11 6 22 8 34 8h464v-57z" />
    <glyph glyph-name="Tbar" unicode="&#x166;" horiz-adv-x="626" 
d="M476 811h-326v57h326v-57zM338 627v-628h-61v628h-161c-9 0 -17 -3 -24 -10s-10 -15 -10 -24h-57c0 12 2 24 7 35c5 12 11 21 19 29s17 15 28 19c11 6 22 8 34 8h464v-57h-239z" />
    <glyph glyph-name="Tcaron" unicode="&#x164;" horiz-adv-x="626" 
d="M337 779h-49l-123 142h67l81 -89l80 89h68zM577 627h-239v-627h-61v627h-161c-9 0 -17 -3 -24 -9c-7 -7 -10 -15 -10 -24h-57c0 12 2 24 7 35s11 20 19 28s17 15 28 20s22 7 34 7h464v-57z" />
    <glyph glyph-name="Tcedilla" unicode="&#x162;" horiz-adv-x="626" 
d="M338 0l-10 -49c23 -3 41 -11 54 -31c10 -15 17 -36 17 -57c0 -15 -3 -28 -7 -39c-6 -16 -13 -25 -22 -35s-20 -18 -32 -23c-14 -6 -27 -8 -40 -8v53c14 0 28 5 37 18s11 30 11 38c0 22 -16 38 -48 38h-31l10 96v626h-161c-9 0 -17 -3 -24 -9c-7 -7 -10 -15 -10 -24h-57
c0 12 2 24 7 35s11 20 19 28s17 15 28 20s22 7 34 7h464v-57h-239v-627z" />
    <glyph glyph-name="uni021A" unicode="&#x21a;" horiz-adv-x="626" 
d="M577 627h-239v-627h-61v627h-161c-9 0 -17 -3 -24 -9c-7 -7 -10 -15 -10 -24h-57c0 12 2 24 7 35s11 20 19 28s17 15 28 20s22 7 34 7h464v-57zM287 -285h-54l40 207h64z" />
    <glyph glyph-name="U" unicode="U" horiz-adv-x="747" 
d="M64 616l-50 34c8 12 24 26 36 32c11 6 29 11 46 11c13 0 26 -3 36 -7c12 -5 24 -13 33 -21c3 -3 15 -17 21 -32c5 -12 7 -27 7 -38v-327c0 -36 5 -65 15 -93s23 -49 42 -69c16 -17 34 -32 64 -44c25 -10 50 -16 84 -16c31 0 60 5 87 16s46 25 64 44c19 20 32 41 42 69
s15 57 15 93v417h61v-417c0 -49 -8 -82 -19 -112c-15 -41 -33 -65 -54 -87s-47 -43 -85 -58c-30 -13 -64 -21 -109 -21c-46 0 -80 8 -110 21c-35 14 -60 31 -85 57c-24 25 -42 55 -54 88c-11 30 -19 63 -19 112v327l-1 10c0 3 -2 9 -5 13c-2 3 -8 9 -11 11c-4 2 -12 4 -20 4
c-16 0 -25 -8 -31 -17z" />
    <glyph glyph-name="Uacute" unicode="&#xda;" horiz-adv-x="747" 
d="M565 861l-172 -110l-22 34l158 125zM64 616l-50 34c8 12 24 26 36 32c11 6 29 11 46 11c13 0 26 -3 36 -7c12 -5 24 -13 33 -21c3 -3 15 -17 21 -32c5 -12 7 -27 7 -38v-327c0 -36 5 -65 15 -93s23 -49 42 -69c16 -17 34 -32 64 -44c25 -10 50 -16 84 -16
c31 0 60 5 87 16s46 25 64 44c19 20 32 41 42 69s15 57 15 93v417h61v-417c0 -49 -8 -82 -19 -112c-15 -41 -33 -65 -54 -87s-47 -43 -85 -58c-30 -13 -64 -21 -109 -21c-46 0 -80 8 -110 21c-35 14 -60 31 -85 57c-24 25 -42 55 -54 88c-11 30 -19 63 -19 112v327l-1 10
c0 3 -2 9 -5 13c-2 3 -8 9 -11 11c-4 2 -12 4 -20 4c-16 0 -25 -8 -31 -17z" />
    <glyph glyph-name="Ubreve" unicode="&#x16c;" horiz-adv-x="747" 
d="M479 913h61c-1 -40 -13 -73 -36 -98c-23 -26 -58 -39 -106 -39c-47 0 -82 13 -105 39c-23 25 -36 58 -37 98h61c1 -25 8 -45 21 -60c12 -15 32 -23 60 -23c30 0 51 8 63 23c11 15 17 35 18 60zM64 616l-50 34c8 12 24 26 36 32c11 6 29 11 46 11c13 0 26 -3 36 -7
c12 -5 24 -13 33 -21c3 -3 15 -17 21 -32c5 -12 7 -27 7 -38v-327c0 -36 5 -65 15 -93s23 -49 42 -69c16 -17 34 -32 64 -44c25 -10 50 -16 84 -16c31 0 60 5 87 16s46 25 64 44c19 20 32 41 42 69s15 57 15 93v417h61v-417c0 -49 -8 -82 -19 -112c-15 -41 -33 -65 -54 -87
s-47 -43 -85 -58c-30 -13 -64 -21 -109 -21c-46 0 -80 8 -110 21c-35 14 -60 31 -85 57c-24 25 -42 55 -54 88c-11 30 -19 63 -19 112v327l-1 10c0 3 -2 9 -5 13c-2 3 -8 9 -11 11c-4 2 -12 4 -20 4c-16 0 -25 -8 -31 -17z" />
    <glyph glyph-name="Ucaron" unicode="&#x1d3;" horiz-adv-x="747" 
d="M423 779h-49l-123 142h67l81 -89l80 89h68zM64 616l-50 34c8 12 24 26 36 32c11 6 29 11 46 11c13 0 26 -3 36 -7c12 -5 24 -13 33 -21c3 -3 15 -17 21 -32c5 -12 7 -27 7 -38v-327c0 -36 5 -65 15 -93s23 -49 42 -69c16 -17 34 -32 64 -44c25 -10 50 -16 84 -16
c31 0 60 5 87 16s46 25 64 44c19 20 32 41 42 69s15 57 15 93v417h61v-417c0 -49 -8 -82 -19 -112c-15 -41 -33 -65 -54 -87s-47 -43 -85 -58c-30 -13 -64 -21 -109 -21c-46 0 -80 8 -110 21c-35 14 -60 31 -85 57c-24 25 -42 55 -54 88c-11 30 -19 63 -19 112v327l-1 10
c0 3 -2 9 -5 13c-2 3 -8 9 -11 11c-4 2 -12 4 -20 4c-16 0 -25 -8 -31 -17z" />
    <glyph glyph-name="Ucircumflex" unicode="&#xdb;" horiz-adv-x="747" 
d="M547 789h-68l-80 89l-81 -89h-67l123 142h49zM64 616l-50 34c8 12 24 26 36 32c11 6 29 11 46 11c13 0 26 -3 36 -7c12 -5 24 -13 33 -21c3 -3 15 -17 21 -32c5 -12 7 -27 7 -38v-327c0 -36 5 -65 15 -93s23 -49 42 -69c16 -17 34 -32 64 -44c25 -10 50 -16 84 -16
c31 0 60 5 87 16s46 25 64 44c19 20 32 41 42 69s15 57 15 93v417h61v-417c0 -49 -8 -82 -19 -112c-15 -41 -33 -65 -54 -87s-47 -43 -85 -58c-30 -13 -64 -21 -109 -21c-46 0 -80 8 -110 21c-35 14 -60 31 -85 57c-24 25 -42 55 -54 88c-11 30 -19 63 -19 112v327l-1 10
c0 3 -2 9 -5 13c-2 3 -8 9 -11 11c-4 2 -12 4 -20 4c-16 0 -25 -8 -31 -17z" />
    <glyph glyph-name="Udieresis" unicode="&#xdc;" horiz-adv-x="747" 
d="M287 801c-23 0 -42 19 -42 42c0 24 19 43 42 43c24 0 43 -19 43 -43c0 -23 -19 -42 -43 -42zM509 801c-23 0 -42 19 -42 42c0 24 19 43 42 43c24 0 43 -19 43 -43c0 -23 -19 -42 -43 -42zM667 685v-417c0 -49 -8 -82 -19 -112c-15 -41 -33 -65 -54 -87s-47 -43 -85 -58
c-30 -13 -64 -21 -109 -21c-46 0 -80 8 -110 21c-35 14 -60 31 -85 57c-24 25 -42 55 -54 88c-11 30 -19 63 -19 112v327l-1 10c0 3 -2 9 -5 13c-2 3 -8 9 -11 11c-4 2 -12 4 -20 4c-16 0 -25 -8 -31 -17l-50 34c8 12 24 26 36 32c11 6 29 11 46 11c13 0 26 -3 36 -7
c12 -5 24 -13 33 -21c3 -3 15 -17 21 -32c5 -12 7 -27 7 -38v-327c0 -36 5 -65 15 -93s23 -49 42 -69c16 -17 34 -32 64 -44c25 -10 50 -16 84 -16c31 0 60 5 87 16s46 25 64 44c19 20 32 41 42 69s15 57 15 93v417h61z" />
    <glyph glyph-name="Udieresisacute" unicode="&#x1d7;" horiz-adv-x="747" 
d="M393 921l-22 34l158 125l36 -49zM287 801c-23 0 -42 19 -42 42c0 24 19 43 42 43c24 0 43 -19 43 -43c0 -23 -19 -42 -43 -42zM467 843c0 24 19 43 42 43c24 0 43 -19 43 -43c0 -23 -19 -42 -43 -42c-23 0 -42 19 -42 42zM667 685v-417c0 -49 -8 -82 -19 -112
c-15 -41 -33 -65 -54 -87s-47 -43 -85 -58c-30 -13 -64 -21 -109 -21c-46 0 -80 8 -110 21c-35 14 -60 31 -85 57c-24 25 -42 55 -54 88c-11 30 -19 63 -19 112v327l-1 10c0 3 -2 9 -5 13c-2 3 -8 9 -11 11c-4 2 -12 4 -20 4c-16 0 -25 -8 -31 -17l-50 34c8 12 24 26 36 32
c11 6 29 11 46 11c13 0 26 -3 36 -7c12 -5 24 -13 33 -21c3 -3 15 -17 21 -32c5 -12 7 -27 7 -38v-327c0 -36 5 -65 15 -93s23 -49 42 -69c16 -17 34 -32 64 -44c25 -10 50 -16 84 -16c31 0 60 5 87 16s46 25 64 44c19 20 32 41 42 69s15 57 15 93v417h61z" />
    <glyph glyph-name="Udieresiscaron" unicode="&#x1d9;" horiz-adv-x="747" 
d="M374 909l-123 142h67l81 -89l80 89h68l-124 -142h-49zM287 801c-23 0 -42 19 -42 42c0 24 19 43 42 43c24 0 43 -19 43 -43c0 -23 -19 -42 -43 -42zM509 886c24 0 43 -19 43 -43c0 -23 -19 -42 -43 -42c-23 0 -42 19 -42 42c0 24 19 43 42 43zM667 685v-417
c0 -49 -8 -82 -19 -112c-15 -41 -33 -65 -54 -87s-47 -43 -85 -58c-30 -13 -64 -21 -109 -21c-46 0 -80 8 -110 21c-35 14 -60 31 -85 57c-24 25 -42 55 -54 88c-11 30 -19 63 -19 112v327l-1 10c0 3 -2 9 -5 13c-2 3 -8 9 -11 11c-4 2 -12 4 -20 4c-16 0 -25 -8 -31 -17
l-50 34c8 12 24 26 36 32c11 6 29 11 46 11c13 0 26 -3 36 -7c12 -5 24 -13 33 -21c3 -3 15 -17 21 -32c5 -12 7 -27 7 -38v-327c0 -36 5 -65 15 -93s23 -49 42 -69c16 -17 34 -32 64 -44c25 -10 50 -16 84 -16c31 0 60 5 87 16s46 25 64 44c19 20 32 41 42 69s15 57 15 93
v417h61z" />
    <glyph glyph-name="Udieresisgrave" unicode="&#x1db;" horiz-adv-x="747" 
d="M410 921l-172 110l36 49l158 -125zM245 843c0 24 19 43 42 43c24 0 43 -19 43 -43c0 -23 -19 -42 -43 -42c-23 0 -42 19 -42 42zM509 801c-23 0 -42 19 -42 42c0 24 19 43 42 43c24 0 43 -19 43 -43c0 -23 -19 -42 -43 -42zM667 685v-417c0 -49 -8 -82 -19 -112
c-15 -41 -33 -65 -54 -87s-47 -43 -85 -58c-30 -13 -64 -21 -109 -21c-46 0 -80 8 -110 21c-35 14 -60 31 -85 57c-24 25 -42 55 -54 88c-11 30 -19 63 -19 112v327l-1 10c0 3 -2 9 -5 13c-2 3 -8 9 -11 11c-4 2 -12 4 -20 4c-16 0 -25 -8 -31 -17l-50 34c8 12 24 26 36 32
c11 6 29 11 46 11c13 0 26 -3 36 -7c12 -5 24 -13 33 -21c3 -3 15 -17 21 -32c5 -12 7 -27 7 -38v-327c0 -36 5 -65 15 -93s23 -49 42 -69c16 -17 34 -32 64 -44c25 -10 50 -16 84 -16c31 0 60 5 87 16s46 25 64 44c19 20 32 41 42 69s15 57 15 93v417h61z" />
    <glyph glyph-name="Udieresismacron" unicode="&#x1d5;" horiz-adv-x="747" 
d="M562 931h-326v57h326v-57zM245 843c0 24 19 43 42 43c24 0 43 -19 43 -43c0 -23 -19 -42 -43 -42c-23 0 -42 19 -42 42zM467 843c0 24 19 43 42 43c24 0 43 -19 43 -43c0 -23 -19 -42 -43 -42c-23 0 -42 19 -42 42zM667 685v-417c0 -49 -8 -82 -19 -112
c-15 -41 -33 -65 -54 -87s-47 -43 -85 -58c-30 -13 -64 -21 -109 -21c-46 0 -80 8 -110 21c-35 14 -60 31 -85 57c-24 25 -42 55 -54 88c-11 30 -19 63 -19 112v327l-1 10c0 3 -2 9 -5 13c-2 3 -8 9 -11 11c-4 2 -12 4 -20 4c-16 0 -25 -8 -31 -17l-50 34c8 12 24 26 36 32
c11 6 29 11 46 11c13 0 26 -3 36 -7c12 -5 24 -13 33 -21c3 -3 15 -17 21 -32c5 -12 7 -27 7 -38v-327c0 -36 5 -65 15 -93s23 -49 42 -69c16 -17 34 -32 64 -44c25 -10 50 -16 84 -16c31 0 60 5 87 16s46 25 64 44c19 20 32 41 42 69s15 57 15 93v417h61z" />
    <glyph glyph-name="Udotbelow" unicode="&#x1ee4;" horiz-adv-x="747" 
d="M64 616l-50 34c8 12 24 26 36 32c11 6 29 11 46 11c13 0 26 -3 36 -7c12 -5 24 -13 33 -21c3 -3 15 -17 21 -32c5 -12 7 -27 7 -38v-327c0 -36 5 -65 15 -93s23 -49 42 -69c16 -17 34 -32 64 -44c25 -10 50 -16 84 -16c31 0 60 5 87 16s46 25 64 44c19 20 32 41 42 69
s15 57 15 93v417h61v-417c0 -49 -8 -82 -19 -112c-15 -41 -33 -65 -54 -87s-47 -43 -85 -58c-30 -13 -64 -21 -109 -21c-46 0 -80 8 -110 21c-35 14 -60 31 -85 57c-24 25 -42 55 -54 88c-11 30 -19 63 -19 112v327l-1 10c0 3 -2 9 -5 13c-2 3 -8 9 -11 11c-4 2 -12 4 -20 4
c-16 0 -25 -8 -31 -17zM399 -123c12 0 22 -4 30 -12s12 -18 12 -30c0 -11 -4 -21 -12 -29s-18 -12 -30 -12c-17 0 -21 4 -29 12s-12 18 -12 29c0 12 4 22 12 30s18 12 29 12z" />
    <glyph glyph-name="Ugrave" unicode="&#xd9;" horiz-adv-x="747" 
d="M432 785l-22 -34l-172 110l36 49zM64 616l-50 34c8 12 24 26 36 32c11 6 29 11 46 11c13 0 26 -3 36 -7c12 -5 24 -13 33 -21c3 -3 15 -17 21 -32c5 -12 7 -27 7 -38v-327c0 -36 5 -65 15 -93s23 -49 42 -69c16 -17 34 -32 64 -44c25 -10 50 -16 84 -16c31 0 60 5 87 16
s46 25 64 44c19 20 32 41 42 69s15 57 15 93v417h61v-417c0 -49 -8 -82 -19 -112c-15 -41 -33 -65 -54 -87s-47 -43 -85 -58c-30 -13 -64 -21 -109 -21c-46 0 -80 8 -110 21c-35 14 -60 31 -85 57c-24 25 -42 55 -54 88c-11 30 -19 63 -19 112v327l-1 10c0 3 -2 9 -5 13
c-2 3 -8 9 -11 11c-4 2 -12 4 -20 4c-16 0 -25 -8 -31 -17z" />
    <glyph glyph-name="Uhorn" unicode="&#x1af;" horiz-adv-x="747" 
d="M696 644l23 44c15 -7 61 -31 61 -90c0 -72 -69 -97 -113 -98v-232c0 -49 -8 -82 -19 -112c-15 -41 -33 -65 -54 -87s-47 -43 -85 -58c-30 -13 -64 -21 -109 -21c-46 0 -80 8 -110 21c-35 14 -60 31 -85 57c-24 25 -42 55 -54 88c-11 30 -19 63 -19 112v327l-1 10
c0 3 -2 9 -5 13c-2 3 -8 9 -11 11c-4 2 -12 4 -20 4c-16 0 -25 -8 -31 -17l-50 34c8 12 24 26 36 32c11 6 29 11 46 11c13 0 26 -3 36 -7c12 -5 24 -13 33 -21c3 -3 15 -17 21 -32c5 -12 7 -27 7 -38v-327c0 -36 5 -65 15 -93s23 -49 42 -69c16 -17 34 -32 64 -44
c25 -10 50 -16 84 -16c31 0 60 5 87 16s46 25 64 44c19 20 32 41 42 69s15 57 15 93v417h61v-137h4c25 0 58 15 58 50c0 27 -19 37 -33 46z" />
    <glyph glyph-name="Uhungarumlaut" unicode="&#x170;" horiz-adv-x="747" 
d="M453 896l-151 -125l-39 36l152 126zM645 896l-153 -125l-39 36l151 126zM64 616l-50 34c8 12 24 26 36 32c11 6 29 11 46 11c13 0 26 -3 36 -7c12 -5 24 -13 33 -21c3 -3 15 -17 21 -32c5 -12 7 -27 7 -38v-327c0 -36 5 -65 15 -93s23 -49 42 -69c16 -17 34 -32 64 -44
c25 -10 50 -16 84 -16c31 0 60 5 87 16s46 25 64 44c19 20 32 41 42 69s15 57 15 93v417h61v-417c0 -49 -8 -82 -19 -112c-15 -41 -33 -65 -54 -87s-47 -43 -85 -58c-30 -12 -64 -20 -109 -20c-46 0 -80 8 -110 20c-35 14 -60 31 -85 57c-24 25 -42 55 -54 88
c-11 30 -19 63 -19 112v327l-1 11c0 2 -2 8 -5 12c-2 3 -8 9 -11 11c-4 2 -12 4 -20 4c-16 0 -25 -8 -31 -17z" />
    <glyph glyph-name="Umacron" unicode="&#x16a;" horiz-adv-x="747" 
d="M562 811h-326v57h326v-57zM64 616l-50 34c8 12 24 26 36 32c11 6 29 11 46 11c13 0 26 -3 36 -7c12 -5 24 -13 33 -21c3 -3 15 -17 21 -32c5 -12 7 -27 7 -38v-327c0 -36 5 -65 15 -93s23 -49 42 -69c16 -17 34 -32 64 -44c25 -10 50 -16 84 -16c31 0 60 5 87 16
s46 25 64 44c19 20 32 41 42 69s15 57 15 93v417h61v-417c0 -49 -8 -82 -19 -112c-15 -41 -33 -65 -54 -87s-47 -43 -85 -58c-30 -12 -64 -20 -109 -20c-46 0 -80 8 -110 20c-35 14 -60 31 -85 57c-24 25 -42 55 -54 88c-11 30 -19 63 -19 112v327l-1 11c0 2 -2 8 -5 12
c-2 3 -8 9 -11 11c-4 2 -12 4 -20 4c-16 0 -25 -8 -31 -17z" />
    <glyph glyph-name="Uogonek" unicode="&#x172;" horiz-adv-x="747" 
d="M667 685v-417c0 -49 -8 -82 -19 -112c-15 -41 -33 -65 -54 -87c-8 -9 -18 -17 -28 -26h4l-26 -27c-7 -8 -20 -21 -26 -29c-7 -9 -16 -23 -19 -28c-5 -8 -8 -17 -8 -28c0 -7 1 -16 8 -25c4 -5 9 -10 19 -13c4 -1 9 -2 14 -2c4 0 7 1 11 1c9 2 17 5 25 10l17 10l25 -45
c-12 -9 -27 -16 -43 -21s-33 -8 -47 -8c-21 0 -43 6 -62 25c-16 16 -24 37 -24 63c0 13 2 27 8 39c2 4 11 21 19 31l1 1c-19 -4 -39 -6 -62 -6c-46 0 -80 8 -110 20c-35 14 -60 31 -85 57c-24 25 -42 55 -54 88c-11 30 -19 63 -19 112v327l-1 11c0 2 -2 8 -5 12
c-2 3 -8 9 -11 11c-4 2 -12 4 -20 4c-16 0 -25 -8 -31 -17l-50 34c8 12 24 26 36 32c11 6 29 11 46 11c13 0 26 -3 36 -7c12 -5 24 -13 33 -21c3 -3 15 -17 21 -32c5 -12 7 -27 7 -38v-327c0 -36 5 -65 15 -93s23 -49 42 -69c16 -17 34 -32 64 -44c25 -10 50 -16 84 -16
c31 0 60 5 87 16s46 25 64 44c19 20 32 41 42 69s15 57 15 93v417h61z" />
    <glyph glyph-name="Uring" unicode="&#x16e;" horiz-adv-x="747" 
d="M401 937c29 0 52 -7 71 -27c16 -17 28 -44 28 -76c0 -27 -8 -52 -27 -73s-45 -30 -75 -30s-55 9 -73 28c-20 21 -27 48 -27 73c0 33 12 61 27 77s38 28 76 28zM401 893c-18 0 -31 -6 -40 -16c-9 -11 -14 -26 -14 -43s5 -34 13 -44c9 -11 23 -16 39 -16c12 0 27 3 38 17
c8 10 15 27 15 45c0 17 -6 30 -14 40c-9 11 -19 17 -37 17zM64 616l-50 34c8 12 24 26 36 32c11 6 29 11 46 11c13 0 26 -3 36 -7c12 -5 24 -13 33 -21c3 -3 15 -17 21 -32c5 -12 7 -27 7 -38v-327c0 -36 5 -65 15 -93s23 -49 42 -69c16 -17 34 -32 64 -44
c25 -10 50 -16 84 -16c31 0 60 5 87 16s46 25 64 44c19 20 32 41 42 69s15 57 15 93v417h61v-417c0 -49 -8 -82 -19 -112c-15 -41 -33 -65 -54 -87s-47 -43 -85 -58c-30 -13 -64 -21 -109 -21c-46 0 -80 8 -110 21c-35 14 -60 31 -85 57c-24 25 -42 55 -54 88
c-11 30 -19 63 -19 112v327l-1 10c0 3 -2 9 -5 13c-2 3 -8 9 -11 11c-4 2 -12 4 -20 4c-16 0 -25 -8 -31 -17z" />
    <glyph glyph-name="Utilde" unicode="&#x168;" horiz-adv-x="747" 
d="M255 797l-33 41c17 14 33 25 48 32s30 11 45 13h14c10 0 20 -1 31 -3c15 -4 31 -9 48 -16c14 -6 27 -10 38 -13c8 -2 15 -3 23 -3c3 0 6 0 9 1c10 1 20 4 31 9c10 5 21 13 33 23l34 -41c-32 -27 -63 -41 -93 -44h-7l-6 -1c-15 0 -29 2 -43 6s-27 9 -39 14
c-14 5 -26 9 -37 12c-9 2 -16 3 -24 3h-8c-10 -1 -20 -5 -30 -10c-11 -5 -22 -13 -34 -23zM64 616l-50 34c8 12 24 26 36 32c11 6 29 11 46 11c13 0 26 -3 36 -7c12 -5 24 -13 33 -21c3 -3 15 -17 21 -32c5 -12 7 -27 7 -38v-327c0 -36 5 -65 15 -93s23 -49 42 -69
c16 -17 34 -32 64 -44c25 -10 50 -16 84 -16c31 0 60 5 87 16s46 25 64 44c19 20 32 41 42 69s15 57 15 93v417h61v-417c0 -49 -8 -82 -19 -112c-15 -41 -33 -65 -54 -87s-47 -43 -85 -58c-30 -13 -64 -21 -109 -21c-46 0 -80 8 -110 21c-35 14 -60 31 -85 57
c-24 25 -42 55 -54 88c-11 30 -19 63 -19 112v327l-1 10c0 3 -2 9 -5 13c-2 3 -8 9 -11 11c-4 2 -12 4 -20 4c-16 0 -25 -8 -31 -17z" />
    <glyph glyph-name="V" unicode="V" horiz-adv-x="680" 
d="M70 607l-56 16c6 20 19 37 34 48c16 12 34 19 57 19c12 0 24 -2 35 -8c8 -4 19 -12 26 -20c4 -4 11 -13 15 -22l7 -15l180 -539l12 37l180 562h60l-223 -685h-58l-206 610c-2 6 -5 11 -12 15s-12 5 -18 6c-9 0 -14 -2 -20 -6s-10 -8 -13 -18z" />
    <glyph glyph-name="W" unicode="W" horiz-adv-x="1120" 
d="M69 612l-55 16c5 19 16 35 32 47c16 13 34 19 55 19c19 0 37 -6 54 -17c16 -11 27 -27 33 -46l171 -531l2 -11l2 -10l5 21l188 585h59l188 -585l6 -28v4c0 4 0 7 1 10l2 14l188 585h60l-223 -685h-59l-193 591l-192 -591h-59l-201 613c-5 15 -16 23 -33 23
c-15 0 -26 -8 -31 -24z" />
    <glyph glyph-name="Wacute" unicode="&#x1e82;" horiz-adv-x="1120" 
d="M752 861l-172 -110l-22 34l158 125zM69 612l-55 16c5 19 16 35 32 47c16 13 34 19 55 19c19 0 37 -6 54 -17c16 -11 27 -27 33 -46l171 -531l2 -11l2 -10l5 21l188 585h59l188 -585l6 -28v4c0 4 0 7 1 10l2 14l188 585h60l-223 -685h-59l-193 591l-192 -591h-59l-201 613
c-5 15 -16 23 -33 23c-15 0 -26 -8 -31 -24z" />
    <glyph glyph-name="Wcircumflex" unicode="&#x174;" horiz-adv-x="1120" 
d="M734 789h-68l-80 89l-81 -89h-67l123 142h49zM69 612l-55 16c5 19 16 35 32 47c16 13 34 19 55 19c19 0 37 -6 54 -17c16 -11 27 -27 33 -46l171 -531l2 -11l2 -10l5 21l188 585h59l188 -585l6 -28v4c0 4 0 7 1 10l2 14l188 585h60l-223 -685h-59l-193 591l-192 -591h-59
l-201 613c-5 15 -16 23 -33 23c-15 0 -26 -8 -31 -24z" />
    <glyph glyph-name="Wdieresis" unicode="&#x1e84;" horiz-adv-x="1120" 
d="M474 801c-23 0 -42 19 -42 42c0 24 19 43 42 43c24 0 43 -19 43 -43c0 -23 -19 -42 -43 -42zM696 801c-23 0 -42 19 -42 42c0 24 19 43 42 43c24 0 43 -19 43 -43c0 -23 -19 -42 -43 -42zM1060 685l-223 -685h-59l-193 591l-192 -591h-59l-201 613c-5 15 -16 23 -33 23
c-15 0 -26 -8 -31 -24l-55 16c5 19 16 35 32 47c16 13 34 19 55 19c19 0 37 -6 54 -17c16 -11 27 -27 33 -46l171 -531l2 -11l2 -10l5 21l188 585h59l188 -585l6 -28v4c0 4 0 7 1 10l2 14l188 585h60z" />
    <glyph glyph-name="Wgrave" unicode="&#x1e80;" horiz-adv-x="1120" 
d="M619 785l-22 -34l-172 110l36 49zM69 612l-55 16c5 19 16 35 32 47c16 13 34 19 55 19c19 0 37 -6 54 -17c16 -11 27 -27 33 -46l171 -531l2 -11l2 -10l5 21l188 585h59l188 -585l6 -28v4c0 4 0 7 1 10l2 14l188 585h60l-223 -685h-59l-193 591l-192 -591h-59l-201 613
c-5 15 -16 23 -33 23c-15 0 -26 -8 -31 -24z" />
    <glyph glyph-name="X" unicode="X" horiz-adv-x="668" 
d="M336 351l170 -286c6 -9 15 -14 27 -14c9 0 16 3 22 9s10 14 11 23l58 -3c-1 -12 -3 -23 -8 -34s-12 -20 -20 -28s-17 -14 -28 -19s-22 -7 -35 -7c-12 0 -22 1 -31 4s-17 7 -24 13s-14 14 -20 22c-7 10 -14 21 -21 34l-140 241l-181 -306h-71l209 351l-211 333h69
l182 -289l181 289h71z" />
    <glyph glyph-name="Y" unicode="Y" horiz-adv-x="632" 
d="M73 605l-59 7c2 23 12 43 30 59s39 24 62 24c35 0 62 -16 81 -48l154 -280l177 319h70l-214 -386v-299h-66l3 297l-176 321c-7 11 -17 17 -29 17c-8 0 -15 -3 -22 -9s-10 -13 -11 -22z" />
    <glyph glyph-name="Yacute" unicode="&#xdd;" horiz-adv-x="632" 
d="M503 861l-172 -110l-22 34l158 125zM73 605l-59 7c2 23 12 43 30 59s39 24 62 24c35 0 62 -16 81 -48l154 -280l177 319h70l-214 -386v-299h-66l3 297l-176 321c-7 11 -17 17 -29 17c-8 0 -15 -3 -22 -9s-10 -13 -11 -22z" />
    <glyph glyph-name="Ycircumflex" unicode="&#x176;" horiz-adv-x="632" 
d="M485 789h-68l-80 89l-81 -89h-67l123 142h49zM73 605l-59 7c2 23 12 43 30 59s39 24 62 24c35 0 62 -16 81 -48l154 -280l177 319h70l-214 -386v-299h-66l3 297l-176 321c-7 11 -17 17 -29 17c-8 0 -15 -3 -22 -9s-10 -13 -11 -22z" />
    <glyph glyph-name="Ydieresis" unicode="&#x178;" horiz-adv-x="632" 
d="M225 801c-23 0 -42 19 -42 42c0 24 19 43 42 43c24 0 43 -19 43 -43c0 -23 -19 -42 -43 -42zM447 801c-23 0 -42 19 -42 42c0 24 19 43 42 43c24 0 43 -19 43 -43c0 -23 -19 -42 -43 -42zM588 686l-214 -386v-299h-66l3 297l-176 321c-7 11 -17 17 -29 17
c-8 0 -15 -3 -22 -9s-10 -13 -11 -22l-59 7c2 23 12 43 30 59s39 24 62 24c35 0 62 -16 81 -48l154 -280l177 319h70z" />
    <glyph glyph-name="Ydotbelow" unicode="&#x1ef4;" horiz-adv-x="632" 
d="M73 605l-59 6c2 23 12 43 30 59s39 24 62 24c35 0 62 -16 81 -48l154 -280l177 319h70l-214 -386v-299h-66l3 297l-176 321c-7 11 -17 17 -29 17c-8 0 -15 -3 -22 -8c-7 -6 -10 -13 -11 -22zM336 -112c12 0 22 -4 30 -12s12 -18 12 -30c0 -11 -4 -21 -12 -29
s-18 -12 -30 -12c-17 0 -21 4 -29 12s-12 18 -12 29c0 12 4 22 12 30s18 12 29 12z" />
    <glyph glyph-name="Ygrave" unicode="&#x1ef2;" horiz-adv-x="632" 
d="M370 785l-22 -34l-172 110l36 49zM73 605l-59 6c2 23 12 43 30 59s39 24 62 24c35 0 62 -16 81 -48l154 -280l177 319h70l-214 -386v-299h-66l3 297l-176 321c-7 11 -17 17 -29 17c-8 0 -15 -3 -22 -8c-7 -6 -10 -13 -11 -22z" />
    <glyph glyph-name="Ymacron" unicode="&#x232;" horiz-adv-x="632" 
d="M500 811h-326v57h326v-57zM73 605l-59 6c2 23 12 43 30 59s39 24 62 24c35 0 62 -16 81 -48l154 -280l177 319h70l-214 -386v-299h-66l3 297l-176 321c-7 11 -17 17 -29 17c-8 0 -15 -3 -22 -8c-7 -6 -10 -13 -11 -22z" />
    <glyph glyph-name="Ytilde" unicode="&#x1ef8;" horiz-adv-x="632" 
d="M193 797l-33 41c17 14 33 25 48 32s30 11 45 13h14c10 0 20 -1 31 -3c15 -4 31 -9 48 -16c14 -6 27 -10 38 -13c8 -2 15 -3 23 -3c3 0 6 0 9 1c10 1 20 4 31 9c10 5 21 13 33 23l34 -41c-32 -27 -63 -41 -93 -44h-7l-6 -1c-15 0 -29 2 -43 6s-27 9 -39 14
c-14 5 -26 9 -37 12c-9 2 -16 3 -24 3h-8c-10 -1 -20 -5 -30 -10c-11 -5 -22 -13 -34 -23zM73 605l-59 6c2 23 12 43 30 59s39 24 62 24c35 0 62 -16 81 -48l154 -280l177 319h70l-214 -386v-299h-66l3 297l-176 321c-7 11 -17 17 -29 17c-8 0 -15 -3 -22 -8
c-7 -6 -10 -13 -11 -22z" />
    <glyph glyph-name="Z" unicode="Z" horiz-adv-x="589" 
d="M135 90l34 -6c10 -2 25 -5 37 -9c37 -11 58 -17 88 -25c27 -7 49 -11 73 -11c17 0 32 2 48 8c13 5 26 12 36 18c9 5 16 10 24 18l9 8l38 -37l-12 -12c-8 -7 -18 -15 -32 -23c-13 -8 -30 -17 -48 -23c-20 -7 -36 -10 -62 -10c-31 0 -56 4 -88 12c-29 7 -61 17 -89 26
c-41 13 -55 17 -83 22l-36 -61l-45 27l368 616h-313v53h406z" />
    <glyph glyph-name="Zacute" unicode="&#x179;" horiz-adv-x="589" 
d="M461 860l-172 -110l-22 34l158 125zM135 90l34 -6c10 -2 25 -5 37 -9c37 -11 58 -17 88 -25c27 -7 49 -11 73 -11c17 0 32 2 48 8c13 5 26 12 36 18c9 5 16 10 24 18l9 8l38 -37l-12 -12c-8 -7 -18 -15 -32 -23c-13 -8 -30 -17 -48 -23c-20 -7 -36 -10 -62 -10
c-31 0 -56 4 -88 12c-29 7 -61 17 -89 26c-41 13 -55 17 -83 22l-36 -61l-45 27l368 616h-313v53h406z" />
    <glyph glyph-name="Zcaron" unicode="&#x17d;" horiz-adv-x="589" 
d="M319 778h-49l-123 142h67l81 -89l80 89h68zM135 90l34 -6c10 -2 25 -5 37 -9c37 -11 58 -17 88 -25c27 -7 49 -11 73 -11c17 0 32 2 48 8c13 5 26 12 36 18c9 5 16 10 24 18l9 8l38 -37l-12 -12c-8 -7 -18 -15 -32 -23c-13 -8 -30 -17 -48 -23c-20 -7 -36 -10 -62 -10
c-31 0 -56 4 -88 12c-29 7 -61 17 -89 26c-41 13 -55 17 -83 22l-36 -61l-45 27l368 616h-313v53h406z" />
    <glyph glyph-name="Zdotaccent" unicode="&#x17b;" horiz-adv-x="589" 
d="M292 891c24 0 43 -19 43 -43c0 -23 -19 -42 -43 -42c-23 0 -42 19 -42 42c0 24 19 43 42 43zM135 90l34 -6c10 -2 25 -5 37 -9c37 -11 58 -17 88 -25c27 -7 49 -11 73 -11c17 0 32 2 48 8c13 5 26 12 36 18c9 5 16 10 24 18l9 8l38 -37l-12 -12c-8 -7 -18 -15 -32 -23
c-13 -8 -30 -17 -48 -23c-20 -7 -36 -10 -62 -10c-31 0 -56 4 -88 12c-29 7 -61 17 -89 26c-41 13 -55 17 -83 22l-36 -61l-45 27l368 616h-313v53h406z" />
    <glyph glyph-name="a" unicode="a" horiz-adv-x="613" 
d="M524 61l45 -31c-8 -13 -18 -22 -31 -29c-13 -8 -28 -11 -43 -11c-23 0 -43 7 -59 23c-17 15 -27 33 -30 55c-15 -25 -36 -45 -62 -58s-56 -20 -90 -20s-64 7 -90 20c-27 13 -49 32 -67 55c-19 23 -33 51 -42 82s-14 64 -14 100c0 37 6 71 17 103s26 60 47 83
c20 23 44 42 73 55s61 20 96 20c28 0 53 -1 75 -3s41 -4 56 -6h55v-419c0 -9 4 -17 11 -24s15 -11 24 -11c13 0 22 5 29 16zM405 188v260c-12 0 -30 1 -53 4s-49 4 -77 4c-27 0 -51 -5 -72 -15c-22 -10 -41 -24 -56 -42c-16 -18 -28 -40 -36 -65c-9 -25 -13 -53 -13 -84
c0 -27 3 -53 10 -78c6 -25 16 -47 29 -66s29 -35 49 -46c19 -12 42 -18 68 -18c17 0 35 3 53 9s34 15 49 27c14 12 26 27 35 46c9 18 14 39 14 64z" />
    <glyph glyph-name="aacute" unicode="&#xe1;" horiz-adv-x="613" 
d="M440 685l-172 -110l-22 34l158 125zM524 61l45 -31c-8 -13 -18 -22 -31 -29c-13 -8 -28 -11 -43 -11c-23 0 -43 7 -59 23c-17 15 -27 33 -30 55c-15 -25 -36 -45 -62 -58s-56 -20 -90 -20s-64 7 -90 20c-27 13 -49 32 -67 55c-19 23 -33 51 -42 82s-14 64 -14 100
c0 37 6 71 17 103s26 60 47 83c20 23 44 42 73 55s61 20 96 20c28 0 53 -1 75 -3s41 -4 56 -6h55v-419c0 -9 4 -17 11 -24s15 -11 24 -11c13 0 22 5 29 16zM405 188v260c-12 0 -30 1 -53 4s-49 4 -77 4c-27 0 -51 -5 -72 -15c-22 -10 -41 -24 -56 -42
c-16 -18 -28 -40 -36 -65c-9 -25 -13 -53 -13 -84c0 -27 3 -53 10 -78c6 -25 16 -47 29 -66s29 -35 49 -46c19 -12 42 -18 68 -18c17 0 35 3 53 9s34 15 49 27c14 12 26 27 35 46c9 18 14 39 14 64z" />
    <glyph glyph-name="abreve" unicode="&#x103;" horiz-adv-x="613" 
d="M354 737h61c-1 -40 -13 -73 -36 -98c-23 -26 -58 -39 -106 -39c-47 0 -82 13 -105 39c-23 25 -36 58 -37 98h61c1 -25 8 -45 21 -60c12 -15 32 -23 60 -23c30 0 51 8 63 23c11 15 17 35 18 60zM524 61l45 -31c-8 -13 -18 -22 -31 -29c-13 -8 -28 -11 -43 -11
c-23 0 -43 7 -59 23c-17 15 -27 33 -30 55c-15 -25 -36 -45 -62 -58s-56 -20 -90 -20s-64 7 -90 20c-27 13 -49 32 -67 55c-19 23 -33 51 -42 82s-14 64 -14 100c0 37 6 71 17 103s26 60 47 83c20 23 44 42 73 55s61 20 96 20c28 0 53 -1 75 -3s41 -4 56 -6h55v-419
c0 -9 4 -17 11 -24s15 -11 24 -11c13 0 22 5 29 16zM405 188v260c-12 0 -30 1 -53 4s-49 4 -77 4c-27 0 -51 -5 -72 -15c-22 -10 -41 -24 -56 -42c-16 -18 -28 -40 -36 -65c-9 -25 -13 -53 -13 -84c0 -27 3 -53 10 -78c6 -25 16 -47 29 -66s29 -35 49 -46
c19 -12 42 -18 68 -18c17 0 35 3 53 9s34 15 49 27c14 12 26 27 35 46c9 18 14 39 14 64z" />
    <glyph glyph-name="abreveacute" unicode="&#x1eaf;" horiz-adv-x="613" 
d="M440 905l-172 -110l-22 34l158 125zM354 737h61c-1 -40 -13 -73 -36 -98c-23 -26 -58 -39 -106 -39c-47 0 -82 13 -105 39c-23 25 -36 58 -37 98h61c1 -25 8 -45 21 -60c12 -15 32 -23 60 -23c30 0 51 8 63 23c11 15 17 35 18 60zM524 61l45 -31c-8 -13 -18 -22 -31 -29
c-13 -8 -28 -11 -43 -11c-23 0 -43 7 -59 23c-17 15 -27 33 -30 55c-15 -25 -36 -45 -62 -58s-56 -20 -90 -20s-64 7 -90 20c-27 13 -49 32 -67 55c-19 23 -33 51 -42 82s-14 64 -14 100c0 37 6 71 17 103s26 60 47 83c20 23 44 42 73 55s61 20 96 20c28 0 53 -1 75 -3
s41 -4 56 -6h55v-419c0 -9 4 -17 11 -24s15 -11 24 -11c13 0 22 5 29 16zM405 188v260c-12 0 -30 1 -53 4s-49 4 -77 4c-27 0 -51 -5 -72 -15c-22 -10 -41 -24 -56 -42c-16 -18 -28 -40 -36 -65c-9 -25 -13 -53 -13 -84c0 -27 3 -53 10 -78c6 -25 16 -47 29 -66
s29 -35 49 -46c19 -12 42 -18 68 -18c17 0 35 3 53 9s34 15 49 27c14 12 26 27 35 46c9 18 14 39 14 64z" />
    <glyph glyph-name="abrevegrave" unicode="&#x1eb1;" horiz-adv-x="613" 
d="M307 789l-22 -34l-172 110l36 49zM354 737h61c-1 -40 -13 -73 -36 -98c-23 -26 -58 -39 -106 -39c-47 0 -82 13 -105 39c-23 25 -36 58 -37 98h61c1 -25 8 -45 21 -60c12 -15 32 -23 60 -23c30 0 51 8 63 23c11 15 17 35 18 60zM524 61l45 -31c-8 -13 -18 -22 -31 -29
c-13 -8 -28 -11 -43 -11c-23 0 -43 7 -59 23c-17 15 -27 33 -30 55c-15 -25 -36 -45 -62 -58s-56 -20 -90 -20s-64 7 -90 20c-27 13 -49 32 -67 55c-19 23 -33 51 -42 82s-14 64 -14 100c0 37 6 71 17 103s26 60 47 83c20 23 44 42 73 55s61 20 96 20c28 0 53 -1 75 -3
s41 -4 56 -6h55v-419c0 -9 4 -17 11 -24s15 -11 24 -11c13 0 22 5 29 16zM405 188v260c-12 0 -30 1 -53 4s-49 4 -77 4c-27 0 -51 -5 -72 -15c-22 -10 -41 -24 -56 -42c-16 -18 -28 -40 -36 -65c-9 -25 -13 -53 -13 -84c0 -27 3 -53 10 -78c6 -25 16 -47 29 -66
s29 -35 49 -46c19 -12 42 -18 68 -18c17 0 35 3 53 9s34 15 49 27c14 12 26 27 35 46c9 18 14 39 14 64z" />
    <glyph glyph-name="abrevetilde" unicode="&#x1eb5;" horiz-adv-x="613" 
d="M130 791l-33 41c17 14 33 25 48 32s30 11 45 13h14c10 0 20 -1 31 -3c15 -4 31 -9 48 -16c14 -6 27 -10 38 -13c8 -2 15 -3 23 -3c3 0 6 0 9 1c10 1 20 4 31 9c10 5 21 13 33 23l34 -41c-32 -27 -63 -41 -93 -44h-7l-6 -1c-15 0 -29 2 -43 6s-27 9 -39 14
c-14 5 -26 9 -37 12c-9 2 -16 3 -24 3h-8c-10 -1 -20 -5 -30 -10c-11 -5 -22 -13 -34 -23zM354 737h61c-1 -40 -13 -73 -36 -98c-23 -26 -58 -39 -106 -39c-47 0 -82 13 -105 39c-23 25 -36 58 -37 98h61c1 -25 8 -45 21 -60c12 -15 32 -23 60 -23c30 0 51 8 63 23
c11 15 17 35 18 60zM524 61l45 -31c-8 -13 -18 -22 -31 -29c-13 -8 -28 -11 -43 -11c-23 0 -43 7 -59 23c-17 15 -27 33 -30 55c-15 -25 -36 -45 -62 -58s-56 -20 -90 -20s-64 7 -90 20c-27 13 -49 32 -67 55c-19 23 -33 51 -42 82s-14 64 -14 100c0 37 6 71 17 103
s26 60 47 83c20 23 44 42 73 55s61 20 96 20c28 0 53 -1 75 -3s41 -4 56 -6h55v-419c0 -9 4 -17 11 -24s15 -11 24 -11c13 0 22 5 29 16zM405 188v260c-12 0 -30 1 -53 4s-49 4 -77 4c-27 0 -51 -5 -72 -15c-22 -10 -41 -24 -56 -42c-16 -18 -28 -40 -36 -65
c-9 -25 -13 -53 -13 -84c0 -27 3 -53 10 -78c6 -25 16 -47 29 -66s29 -35 49 -46c19 -12 42 -18 68 -18c17 0 35 3 53 9s34 15 49 27c14 12 26 27 35 46c9 18 14 39 14 64z" />
    <glyph glyph-name="acaron" unicode="&#x1ce;" horiz-adv-x="613" 
d="M298 603h-49l-123 142h67l81 -89l80 89h68zM524 61l45 -31c-8 -13 -18 -22 -31 -29c-13 -8 -28 -11 -43 -11c-23 0 -43 7 -59 23c-17 15 -27 33 -30 55c-15 -25 -36 -45 -62 -58s-56 -20 -90 -20s-64 7 -90 20c-27 13 -49 32 -67 55c-19 23 -33 51 -42 82s-14 64 -14 100
c0 37 6 71 17 103s26 60 47 83c20 23 44 42 73 55s61 20 96 20c28 0 53 -1 75 -3s41 -4 56 -6h55v-419c0 -9 4 -17 11 -24s15 -11 24 -11c13 0 22 5 29 16zM405 188v260c-12 0 -30 1 -53 4s-49 4 -77 4c-27 0 -51 -5 -72 -15c-22 -10 -41 -24 -56 -42
c-16 -18 -28 -40 -36 -65c-9 -25 -13 -53 -13 -84c0 -27 3 -53 10 -78c6 -25 16 -47 29 -66s29 -35 49 -46c19 -12 42 -18 68 -18c17 0 35 3 53 9s34 15 49 27c14 12 26 27 35 46c9 18 14 39 14 64z" />
    <glyph glyph-name="acircumflex" unicode="&#xe2;" horiz-adv-x="613" 
d="M422 613h-68l-80 89l-81 -89h-67l123 142h49zM524 61l45 -31c-8 -13 -18 -22 -31 -29c-13 -8 -28 -11 -43 -11c-23 0 -43 7 -59 23c-17 15 -27 33 -30 55c-15 -25 -36 -45 -62 -58s-56 -20 -90 -20s-64 7 -90 20c-27 13 -49 32 -67 55c-19 23 -33 51 -42 82
s-14 64 -14 100c0 37 6 71 17 103s26 60 47 83c20 23 44 42 73 55s61 20 96 20c28 0 53 -1 75 -3s41 -4 56 -6h55v-419c0 -9 4 -17 11 -24s15 -11 24 -11c13 0 22 5 29 16zM405 188v260c-12 0 -30 1 -53 4s-49 4 -77 4c-27 0 -51 -5 -72 -15c-22 -10 -41 -24 -56 -42
c-16 -18 -28 -40 -36 -65c-9 -25 -13 -53 -13 -84c0 -27 3 -53 10 -78c6 -25 16 -47 29 -66s29 -35 49 -46c19 -12 42 -18 68 -18c17 0 35 3 53 9s34 15 49 27c14 12 26 27 35 46c9 18 14 39 14 64z" />
    <glyph glyph-name="acircumflexacute" unicode="&#x1ea5;" horiz-adv-x="613" 
d="M440 905l-172 -110l-22 34l158 125zM422 613h-68l-80 89l-81 -89h-67l123 142h49zM524 61l45 -31c-8 -13 -18 -22 -31 -29c-13 -8 -28 -11 -43 -11c-23 0 -43 7 -59 23c-17 15 -27 33 -30 55c-15 -25 -36 -45 -62 -58s-56 -20 -90 -20s-64 7 -90 20c-27 13 -49 32 -67 55
c-19 23 -33 51 -42 82s-14 64 -14 100c0 37 6 71 17 103s26 60 47 83c20 23 44 42 73 55s61 20 96 20c28 0 53 -1 75 -3s41 -4 56 -6h55v-419c0 -9 4 -17 11 -24s15 -11 24 -11c13 0 22 5 29 16zM405 188v260c-12 0 -30 1 -53 4s-49 4 -77 4c-27 0 -51 -5 -72 -15
c-22 -10 -41 -24 -56 -42c-16 -18 -28 -40 -36 -65c-9 -25 -13 -53 -13 -84c0 -27 3 -53 10 -78c6 -25 16 -47 29 -66s29 -35 49 -46c19 -12 42 -18 68 -18c17 0 35 3 53 9s34 15 49 27c14 12 26 27 35 46c9 18 14 39 14 64z" />
    <glyph glyph-name="acircumflexgrave" unicode="&#x1ea7;" horiz-adv-x="613" 
d="M307 839l-22 -34l-172 110l36 49zM422 613h-68l-80 89l-81 -89h-67l123 142h49zM524 61l45 -31c-8 -13 -18 -22 -31 -29c-13 -8 -28 -11 -43 -11c-23 0 -43 7 -59 23c-17 15 -27 33 -30 55c-15 -25 -36 -45 -62 -58s-56 -20 -90 -20s-64 7 -90 20c-27 13 -49 32 -67 55
c-19 23 -33 51 -42 82s-14 64 -14 100c0 37 6 71 17 103s26 60 47 83c20 23 44 42 73 55s61 20 96 20c28 0 53 -1 75 -3s41 -4 56 -6h55v-419c0 -9 4 -17 11 -24s15 -11 24 -11c13 0 22 5 29 16zM405 188v260c-12 0 -30 1 -53 4s-49 4 -77 4c-27 0 -51 -5 -72 -15
c-22 -10 -41 -24 -56 -42c-16 -18 -28 -40 -36 -65c-9 -25 -13 -53 -13 -84c0 -27 3 -53 10 -78c6 -25 16 -47 29 -66s29 -35 49 -46c19 -12 42 -18 68 -18c17 0 35 3 53 9s34 15 49 27c14 12 26 27 35 46c9 18 14 39 14 64z" />
    <glyph glyph-name="acircumflextilde" unicode="&#x1eab;" horiz-adv-x="613" 
d="M130 801l-33 41c17 14 33 25 48 32s30 11 45 13h14c10 0 20 -1 31 -3c15 -4 31 -9 48 -16c14 -6 27 -10 38 -13c8 -2 15 -3 23 -3c3 0 6 0 9 1c10 1 20 4 31 9c10 5 21 13 33 23l34 -41c-32 -27 -63 -41 -93 -44h-7l-6 -1c-15 0 -29 2 -43 6s-27 9 -39 14
c-14 5 -26 9 -37 12c-9 2 -16 3 -24 3h-8c-10 -1 -20 -5 -30 -10c-11 -5 -22 -13 -34 -23zM422 613h-68l-80 89l-81 -89h-67l123 142h49zM524 61l45 -31c-8 -13 -18 -22 -31 -29c-13 -8 -28 -11 -43 -11c-23 0 -43 7 -59 23c-17 15 -27 33 -30 55c-15 -25 -36 -45 -62 -58
s-56 -20 -90 -20s-64 7 -90 20c-27 13 -49 32 -67 55c-19 23 -33 51 -42 82s-14 64 -14 100c0 37 6 71 17 103s26 60 47 83c20 23 44 42 73 55s61 20 96 20c28 0 53 -1 75 -3s41 -4 56 -6h55v-419c0 -9 4 -17 11 -24s15 -11 24 -11c13 0 22 5 29 16zM405 188v260
c-12 0 -30 1 -53 4s-49 4 -77 4c-27 0 -51 -5 -72 -15c-22 -10 -41 -24 -56 -42c-16 -18 -28 -40 -36 -65c-9 -25 -13 -53 -13 -84c0 -27 3 -53 10 -78c6 -25 16 -47 29 -66s29 -35 49 -46c19 -12 42 -18 68 -18c17 0 35 3 53 9s34 15 49 27c14 12 26 27 35 46
c9 18 14 39 14 64z" />
    <glyph glyph-name="adieresis" unicode="&#xe4;" horiz-adv-x="613" 
d="M162 625c-23 0 -42 19 -42 42c0 24 19 43 42 43c24 0 43 -19 43 -43c0 -23 -19 -42 -43 -42zM384 625c-23 0 -42 19 -42 42c0 24 19 43 42 43c24 0 43 -19 43 -43c0 -23 -19 -42 -43 -42zM524 61l45 -31c-8 -13 -18 -22 -31 -29c-13 -8 -28 -11 -43 -11
c-23 0 -43 7 -59 23c-17 15 -27 33 -30 55c-15 -25 -36 -45 -62 -58s-56 -20 -90 -20s-64 7 -90 20c-27 13 -49 32 -67 55c-19 23 -33 51 -42 82s-14 64 -14 100c0 37 6 71 17 103s26 60 47 83c20 23 44 42 73 55s61 20 96 20c28 0 53 -1 75 -3s41 -4 56 -6h55v-419
c0 -9 4 -17 11 -24s15 -11 24 -11c13 0 22 5 29 16zM405 188v260c-12 0 -30 1 -53 4s-49 4 -77 4c-27 0 -51 -5 -72 -15c-22 -10 -41 -24 -56 -42c-16 -18 -28 -40 -36 -65c-9 -25 -13 -53 -13 -84c0 -27 3 -53 10 -78c6 -25 16 -47 29 -66s29 -35 49 -46
c19 -12 42 -18 68 -18c17 0 35 3 53 9s34 15 49 27c14 12 26 27 35 46c9 18 14 39 14 64z" />
    <glyph glyph-name="adieresismacron" unicode="&#x1df;" horiz-adv-x="613" 
d="M437 745h-326v57h326v-57zM120 667c0 24 19 43 42 43c24 0 43 -19 43 -43c0 -23 -19 -42 -43 -42c-23 0 -42 19 -42 42zM342 667c0 24 19 43 42 43c24 0 43 -19 43 -43c0 -23 -19 -42 -43 -42c-23 0 -42 19 -42 42zM524 61l45 -31c-8 -13 -18 -22 -31 -29
c-13 -8 -28 -11 -43 -11c-23 0 -43 7 -59 23c-17 15 -27 33 -30 55c-15 -25 -36 -45 -62 -58s-56 -20 -90 -20s-64 7 -90 20c-27 13 -49 32 -67 55c-19 23 -33 51 -42 82s-14 64 -14 100c0 37 6 71 17 103s26 60 47 83c20 23 44 42 73 55s61 20 96 20c28 0 53 -1 75 -3
s41 -4 56 -6h55v-419c0 -9 4 -17 11 -24s15 -11 24 -11c13 0 22 5 29 16zM405 188v260c-12 0 -30 1 -53 4s-49 4 -77 4c-27 0 -51 -5 -72 -15c-22 -10 -41 -24 -56 -42c-16 -18 -28 -40 -36 -65c-9 -25 -13 -53 -13 -84c0 -27 3 -53 10 -78c6 -25 16 -47 29 -66
s29 -35 49 -46c19 -12 42 -18 68 -18c17 0 35 3 53 9s34 15 49 27c14 12 26 27 35 46c9 18 14 39 14 64z" />
    <glyph glyph-name="adotaccent" unicode="&#x227;" horiz-adv-x="613" 
d="M271 716c24 0 43 -19 43 -43c0 -23 -19 -42 -43 -42c-23 0 -42 19 -42 42c0 24 19 43 42 43zM524 61l45 -31c-8 -13 -18 -22 -31 -29c-13 -8 -28 -11 -43 -11c-23 0 -43 7 -59 23c-17 15 -27 33 -30 55c-15 -25 -36 -45 -62 -58s-56 -20 -90 -20s-64 7 -90 20
c-27 13 -49 32 -67 55c-19 23 -33 51 -42 82s-14 64 -14 100c0 37 6 71 17 103s26 60 47 83c20 23 44 42 73 55s61 20 96 20c28 0 53 -1 75 -3s41 -4 56 -6h55v-419c0 -9 4 -17 11 -24s15 -11 24 -11c13 0 22 5 29 16zM405 188v260c-12 0 -30 1 -53 4s-49 4 -77 4
c-27 0 -51 -5 -72 -15c-22 -10 -41 -24 -56 -42c-16 -18 -28 -40 -36 -65c-9 -25 -13 -53 -13 -84c0 -27 3 -53 10 -78c6 -25 16 -47 29 -66s29 -35 49 -46c19 -12 42 -18 68 -18c17 0 35 3 53 9s34 15 49 27c14 12 26 27 35 46c9 18 14 39 14 64z" />
    <glyph glyph-name="adotbelow" unicode="&#x1ea1;" horiz-adv-x="613" 
d="M524 61l45 -31c-8 -13 -18 -22 -31 -29c-13 -8 -28 -11 -43 -11c-23 0 -43 7 -59 23c-17 15 -27 33 -30 55c-15 -25 -36 -45 -62 -58s-56 -20 -90 -20s-64 7 -90 20c-27 13 -49 32 -67 55c-19 23 -33 51 -42 82s-14 64 -14 100c0 37 6 71 17 103s26 60 47 83
c20 23 44 42 73 55s61 20 96 20c28 0 53 -1 75 -3s41 -4 56 -6h55v-419c0 -9 4 -17 11 -24s15 -11 24 -11c13 0 22 5 29 16zM405 188v260c-12 0 -30 1 -53 4s-49 4 -77 4c-27 0 -51 -5 -72 -15c-22 -10 -41 -24 -56 -42c-16 -18 -28 -40 -36 -65c-9 -25 -13 -53 -13 -84
c0 -27 3 -53 10 -78c6 -25 16 -47 29 -66s29 -35 49 -46c19 -12 42 -18 68 -18c17 0 35 3 53 9s34 15 49 27c14 12 26 27 35 46c9 18 14 39 14 64zM253 -121c12 0 22 -4 30 -12s12 -18 12 -30c0 -11 -4 -21 -12 -29s-18 -12 -30 -12c-17 0 -21 4 -29 12s-12 18 -12 29
c0 12 4 22 12 30s18 12 29 12z" />
    <glyph glyph-name="adotmacron" unicode="&#x1e1;" horiz-adv-x="613" 
d="M111 745v57h326v-57h-326zM271 716c24 0 43 -19 43 -43c0 -23 -19 -42 -43 -42c-23 0 -42 19 -42 42c0 24 19 43 42 43zM524 61l45 -31c-8 -13 -18 -22 -31 -29c-13 -8 -28 -11 -43 -11c-23 0 -43 7 -59 23c-17 15 -27 33 -30 55c-15 -25 -36 -45 -62 -58
s-56 -20 -90 -20s-64 7 -90 20c-27 13 -49 32 -67 55c-19 23 -33 51 -42 82s-14 64 -14 100c0 37 6 71 17 103s26 60 47 83c20 23 44 42 73 55s61 20 96 20c28 0 53 -1 75 -3s41 -4 56 -6h55v-419c0 -9 4 -17 11 -24s15 -11 24 -11c13 0 22 5 29 16zM405 188v260
c-12 0 -30 1 -53 4s-49 4 -77 4c-27 0 -51 -5 -72 -15c-22 -10 -41 -24 -56 -42c-16 -18 -28 -40 -36 -65c-9 -25 -13 -53 -13 -84c0 -27 3 -53 10 -78c6 -25 16 -47 29 -66s29 -35 49 -46c19 -12 42 -18 68 -18c17 0 35 3 53 9s34 15 49 27c14 12 26 27 35 46
c9 18 14 39 14 64z" />
    <glyph glyph-name="agrave" unicode="&#xe0;" horiz-adv-x="613" 
d="M285 575l-172 110l36 49l158 -125zM524 61l45 -31c-8 -13 -18 -22 -31 -29c-13 -8 -28 -11 -43 -11c-23 0 -43 7 -59 23c-17 15 -27 33 -30 55c-15 -25 -36 -45 -62 -58s-56 -20 -90 -20s-64 7 -90 20c-27 13 -49 32 -67 55c-19 23 -33 51 -42 82s-14 64 -14 100
c0 37 6 71 17 103s26 60 47 83c20 23 44 42 73 55s61 20 96 20c28 0 53 -1 75 -3s41 -4 56 -6h55v-419c0 -9 4 -17 11 -24s15 -11 24 -11c13 0 22 5 29 16zM405 188v260c-12 0 -30 1 -53 4s-49 4 -77 4c-27 0 -51 -5 -72 -15c-22 -10 -41 -24 -56 -42
c-16 -18 -28 -40 -36 -65c-9 -25 -13 -53 -13 -84c0 -27 3 -53 10 -78c6 -25 16 -47 29 -66s29 -35 49 -46c19 -12 42 -18 68 -18c17 0 35 3 53 9s34 15 49 27c14 12 26 27 35 46c9 18 14 39 14 64z" />
    <glyph glyph-name="amacron" unicode="&#x101;" horiz-adv-x="613" 
d="M111 635v57h326v-57h-326zM524 61l45 -31c-8 -13 -18 -22 -31 -29c-13 -8 -28 -11 -43 -11c-23 0 -43 7 -59 23c-17 15 -27 33 -30 55c-15 -25 -36 -45 -62 -58s-56 -20 -90 -20s-64 7 -90 20c-27 13 -49 32 -67 55c-19 23 -33 51 -42 82s-14 64 -14 100
c0 37 6 71 17 103s26 60 47 83c20 23 44 42 73 55s61 20 96 20c28 0 53 -1 75 -3s41 -4 56 -6h55v-419c0 -9 4 -17 11 -24s15 -11 24 -11c13 0 22 5 29 16zM405 188v260c-12 0 -30 1 -53 4s-49 4 -77 4c-27 0 -51 -5 -72 -15c-22 -10 -41 -24 -56 -42
c-16 -18 -28 -40 -36 -65c-9 -25 -13 -53 -13 -84c0 -27 3 -53 10 -78c6 -25 16 -47 29 -66s29 -35 49 -46c19 -12 42 -18 68 -18c17 0 35 3 53 9s34 15 49 27c14 12 26 27 35 46c9 18 14 39 14 64z" />
    <glyph glyph-name="aogonek" unicode="&#x105;" horiz-adv-x="613" 
d="M566 -121l25 -45c-12 -9 -27 -16 -43 -21s-33 -8 -47 -8c-21 0 -43 6 -62 25c-16 16 -24 37 -24 63c0 13 2 27 8 39c2 4 11 21 19 31c7 9 24 26 26 28l2 2c-13 4 -24 10 -34 20c-17 15 -27 33 -30 55c-15 -25 -36 -45 -62 -58s-56 -20 -90 -20s-64 7 -90 20
c-27 13 -49 32 -67 55c-19 23 -33 51 -42 82s-14 64 -14 100c0 37 6 71 17 103s26 60 47 83c20 23 44 42 73 55s61 20 96 20c28 0 53 -1 75 -3s41 -4 56 -6h55v-419c0 -9 4 -17 11 -24s15 -11 24 -11c13 0 22 5 29 16l45 -31c-6 -9 -12 -16 -20 -22l-24 -25
c-7 -8 -20 -21 -26 -29c-7 -9 -16 -23 -19 -28c-5 -8 -8 -17 -8 -28c0 -7 1 -16 8 -25c4 -5 9 -10 19 -13c4 -1 9 -2 14 -2c4 0 7 1 11 1c9 2 17 5 25 10zM405 188v260c-12 0 -30 1 -53 4s-49 4 -77 4c-27 0 -51 -5 -72 -15c-22 -10 -41 -24 -56 -42
c-16 -18 -28 -40 -36 -65c-9 -25 -13 -53 -13 -84c0 -27 3 -53 10 -78c6 -25 16 -47 29 -66s29 -35 49 -46c19 -12 42 -18 68 -18c17 0 35 3 53 9s34 15 49 27c14 12 26 27 35 46c9 18 14 39 14 64z" />
    <glyph glyph-name="aring" unicode="&#xe5;" horiz-adv-x="613" 
d="M276 761c29 0 52 -7 71 -27c16 -17 28 -44 28 -76c0 -27 -8 -52 -27 -73s-45 -30 -75 -30s-55 9 -73 28c-20 21 -27 48 -27 73c0 33 12 61 27 77s38 28 76 28zM276 717c-18 0 -31 -6 -40 -16c-9 -11 -14 -26 -14 -43s5 -34 13 -44c9 -11 23 -16 39 -16c12 0 27 3 38 17
c8 10 15 27 15 45c0 17 -6 30 -14 40c-9 11 -19 17 -37 17zM524 61l45 -31c-8 -13 -18 -22 -31 -29c-13 -8 -28 -11 -43 -11c-23 0 -43 7 -59 23c-17 15 -27 33 -30 55c-15 -25 -36 -45 -62 -58s-56 -20 -90 -20s-64 7 -90 20c-27 13 -49 32 -67 55c-19 23 -33 51 -42 82
s-14 64 -14 100c0 37 6 71 17 103s26 60 47 83c20 23 44 42 73 55s61 20 96 20c28 0 53 -1 75 -3s41 -4 56 -6h55v-419c0 -9 4 -17 11 -24s15 -11 24 -11c13 0 22 5 29 16zM405 188v260c-12 0 -30 1 -53 4s-49 4 -77 4c-27 0 -51 -5 -72 -15c-22 -10 -41 -24 -56 -42
c-16 -18 -28 -40 -36 -65c-9 -25 -13 -53 -13 -84c0 -27 3 -53 10 -78c6 -25 16 -47 29 -66s29 -35 49 -46c19 -12 42 -18 68 -18c17 0 35 3 53 9s34 15 49 27c14 12 26 27 35 46c9 18 14 39 14 64z" />
    <glyph glyph-name="aringacute" unicode="&#x1fb;" horiz-adv-x="613" 
d="M268 805l-22 34l158 125l36 -49zM276 761c29 0 52 -7 71 -27c16 -17 28 -44 28 -76c0 -27 -8 -52 -27 -73s-45 -30 -75 -30s-55 9 -73 28c-20 21 -27 48 -27 73c0 33 12 61 27 77s38 28 76 28zM276 717c-18 0 -31 -6 -40 -16c-9 -11 -14 -26 -14 -43s5 -34 13 -44
c9 -11 23 -16 39 -16c12 0 27 3 38 17c8 10 15 27 15 45c0 17 -6 30 -14 40c-9 11 -19 17 -37 17zM524 61l45 -31c-8 -13 -18 -22 -31 -29c-13 -8 -28 -11 -43 -11c-23 0 -43 7 -59 23c-17 15 -27 33 -30 55c-15 -25 -36 -45 -62 -58s-56 -20 -90 -20s-64 7 -90 20
c-27 13 -49 32 -67 55c-19 23 -33 51 -42 82s-14 64 -14 100c0 37 6 71 17 103s26 60 47 83c20 23 44 42 73 55s61 20 96 20c28 0 53 -1 75 -3s41 -4 56 -6h55v-419c0 -9 4 -17 11 -24s15 -11 24 -11c13 0 22 5 29 16zM405 188v260c-12 0 -30 1 -53 4s-49 4 -77 4
c-27 0 -51 -5 -72 -15c-22 -10 -41 -24 -56 -42c-16 -18 -28 -40 -36 -65c-9 -25 -13 -53 -13 -84c0 -27 3 -53 10 -78c6 -25 16 -47 29 -66s29 -35 49 -46c19 -12 42 -18 68 -18c17 0 35 3 53 9s34 15 49 27c14 12 26 27 35 46c9 18 14 39 14 64z" />
    <glyph glyph-name="atilde" unicode="&#xe3;" horiz-adv-x="613" 
d="M130 621l-33 40c17 14 33 25 48 32c15 8 30 12 45 13c5 1 9 1 14 1c10 0 20 -1 31 -3c15 -4 31 -9 48 -16c14 -6 27 -10 38 -13c8 -2 15 -3 23 -3h9c10 2 20 5 31 10c10 5 21 13 33 23l34 -41c-32 -27 -63 -41 -93 -44h-7l-6 -1c-15 0 -29 2 -43 6s-27 9 -39 14
c-14 5 -26 9 -37 12c-9 2 -16 3 -24 3h-8c-10 -1 -20 -5 -30 -10c-11 -5 -22 -13 -34 -23zM524 61l45 -31c-8 -13 -18 -22 -31 -29c-13 -8 -28 -11 -43 -11c-23 0 -43 7 -59 23c-17 15 -27 33 -30 55c-15 -25 -36 -45 -62 -58s-56 -20 -90 -20s-64 7 -90 20
c-27 13 -49 32 -67 55c-19 23 -33 51 -42 82s-14 64 -14 100c0 37 6 71 17 103s26 60 47 83c20 23 44 42 73 55s61 20 96 20c28 0 53 -1 75 -3s41 -4 56 -6h55v-419c0 -9 4 -17 11 -24s15 -11 24 -11c13 0 22 5 29 16zM405 188v260c-12 0 -30 1 -53 4s-49 4 -77 4
c-27 0 -51 -5 -72 -15c-22 -10 -41 -24 -56 -42c-16 -18 -28 -40 -36 -65c-9 -25 -13 -53 -13 -84c0 -27 3 -53 10 -78c6 -25 16 -47 29 -66s29 -35 49 -46c19 -12 42 -18 68 -18c17 0 35 3 53 9s34 15 49 27c14 12 26 27 35 46c9 18 14 39 14 64z" />
    <glyph glyph-name="ae" unicode="&#xe6;" horiz-adv-x="826" 
d="M96 402l-27 42c20 17 46 32 77 45s63 19 98 19c45 0 79 -10 102 -30s38 -46 46 -78c17 32 40 58 69 78c28 20 62 30 102 30c25 0 48 -4 70 -11s41 -16 58 -30c16 -13 29 -29 39 -48c9 -19 14 -41 14 -64c0 -29 -6 -54 -19 -74s-29 -36 -49 -48c-21 -12 -44 -21 -70 -26
c-27 -5 -54 -8 -82 -8h-118c6 -52 23 -91 50 -118s66 -40 118 -40c28 0 55 5 80 14s51 21 76 34l26 -42c-23 -16 -50 -30 -81 -41c-31 -12 -65 -18 -101 -18c-52 0 -94 11 -126 32c-33 22 -57 52 -72 93c-10 -54 -25 -66 -55 -89c-31 -23 -71 -35 -121 -35
c-46 0 -84 12 -114 36c-31 24 -46 60 -46 107c0 28 6 51 19 70c12 19 28 34 48 46s43 20 68 25s50 7 76 7h97v56c0 42 -8 73 -25 91c-17 20 -43 29 -79 29c-13 0 -27 -1 -40 -4c-14 -3 -27 -7 -40 -12s-26 -11 -37 -18c-12 -7 -22 -13 -31 -20zM403 252l121 -2
c34 0 62 3 83 10s38 15 50 25s20 21 24 33c4 13 6 25 6 37c0 48 -11 57 -34 76s-53 28 -90 28c-24 0 -46 -6 -65 -18c-20 -12 -37 -28 -51 -47s-25 -41 -32 -66c-8 -25 -12 -50 -12 -76zM348 227l-97 1c-19 0 -37 -1 -55 -3c-19 -3 -35 -7 -50 -15c-15 -7 -26 -17 -35 -30
s-14 -29 -14 -49c0 -51 9 -58 27 -71s43 -20 76 -20c20 0 39 3 57 9s34 15 48 26c13 11 24 25 32 42c7 17 11 36 11 58v52z" />
    <glyph glyph-name="aeacute" unicode="&#x1fd;" horiz-adv-x="826" 
d="M392 569l-22 34l158 125l36 -49zM96 402l-27 42c20 17 46 32 77 45s63 19 98 19c45 0 79 -10 102 -30s38 -46 46 -78c17 32 40 58 69 78c28 20 62 30 102 30c25 0 48 -4 70 -11s41 -16 58 -30c16 -13 29 -29 39 -48c9 -19 14 -41 14 -64c0 -29 -6 -54 -19 -74
s-29 -36 -49 -48c-21 -12 -44 -21 -70 -26c-27 -5 -54 -8 -82 -8h-118c6 -52 23 -91 50 -118s66 -40 118 -40c28 0 55 5 80 14s51 21 76 34l26 -42c-23 -16 -50 -30 -81 -41c-31 -12 -65 -18 -101 -18c-52 0 -94 11 -126 32c-33 22 -57 52 -72 93c-10 -54 -25 -66 -55 -89
c-31 -23 -71 -35 -121 -35c-46 0 -84 12 -114 36c-31 24 -46 60 -46 107c0 28 6 51 19 70c12 19 28 34 48 46s43 20 68 25s50 7 76 7h97v56c0 42 -8 73 -25 91c-17 20 -43 29 -79 29c-13 0 -27 -1 -40 -4c-14 -3 -27 -7 -40 -12s-26 -11 -37 -18c-12 -7 -22 -13 -31 -20z
M403 252l121 -2c34 0 62 3 83 10s38 15 50 25s20 21 24 33c4 13 6 25 6 37c0 48 -11 57 -34 76s-53 28 -90 28c-24 0 -46 -6 -65 -18c-20 -12 -37 -28 -51 -47s-25 -41 -32 -66c-8 -25 -12 -50 -12 -76zM348 228h-97c-19 0 -37 -1 -55 -3c-19 -3 -35 -7 -50 -15
c-15 -7 -26 -17 -35 -30s-14 -29 -14 -49c0 -51 9 -58 27 -71s43 -20 76 -20c20 0 39 3 57 9s34 15 48 26c13 11 24 25 32 42c7 17 11 36 11 58v53z" />
    <glyph glyph-name="aemacron" unicode="&#x1e3;" horiz-adv-x="826" 
d="M561 629h-326v57h326v-57zM96 402l-27 42c20 17 46 32 77 45s63 19 98 19c45 0 79 -10 102 -30s38 -46 46 -78c17 32 40 58 69 78c28 20 62 30 102 30c25 0 48 -3 70 -10s41 -17 58 -30c16 -13 29 -29 39 -48c9 -19 14 -41 14 -64c0 -29 -6 -54 -19 -74s-29 -36 -49 -48
c-21 -12 -44 -21 -70 -26c-27 -5 -54 -8 -82 -8h-118c6 -52 23 -91 50 -118s66 -40 118 -40c28 0 55 5 80 14s51 21 76 34l26 -42c-23 -16 -50 -30 -81 -41s-65 -17 -101 -17c-52 0 -94 11 -126 32c-33 21 -57 51 -72 92c-10 -54 -25 -66 -55 -89c-31 -23 -71 -35 -121 -35
c-46 0 -84 12 -114 36c-31 24 -46 60 -46 107c0 28 6 51 19 70c12 19 28 34 48 46c20 11 43 19 68 24s50 7 76 7h97v56c0 42 -8 73 -25 92s-43 28 -79 28c-13 0 -27 -1 -40 -4c-14 -3 -27 -7 -40 -12s-26 -11 -37 -18c-12 -7 -22 -13 -31 -20zM403 252h121c34 0 62 3 83 10
c21 6 38 14 50 24s20 21 24 34c4 12 6 24 6 36c0 48 -11 57 -34 76c-23 18 -53 27 -90 27c-24 0 -46 -6 -65 -18c-20 -12 -37 -28 -51 -47s-25 -41 -32 -66c-8 -25 -12 -50 -12 -76zM348 229h-97c-19 0 -37 -1 -55 -3c-19 -3 -35 -7 -50 -14s-26 -17 -35 -30
s-14 -29 -14 -49c0 -51 9 -58 27 -71s43 -20 76 -20c20 0 39 3 57 9s34 15 48 26c13 11 24 25 32 42c7 17 11 36 11 58v52z" />
    <glyph glyph-name="b" unicode="b" horiz-adv-x="542" 
d="M109 726v-292c23 35 36 42 62 55s55 20 88 20c34 0 64 -7 91 -20c26 -13 48 -32 67 -55c18 -23 32 -50 41 -81s14 -65 14 -101c0 -37 -5 -72 -16 -104s-27 -60 -47 -83c-21 -23 -45 -42 -74 -55s-61 -20 -96 -20c-49 0 -87 2 -116 6s-52 9 -69 14v716h55zM109 52l53 -5
c23 -3 48 -4 76 -4c27 0 51 5 73 15c21 10 40 24 56 42c15 18 27 40 36 65c8 25 12 53 12 84c0 40 -3 53 -10 78s-16 47 -29 66s-30 35 -49 46c-19 12 -42 18 -68 18c-16 0 -32 -3 -49 -8s-33 -13 -47 -24c-15 -11 -27 -24 -36 -40c-10 -16 -16 -35 -18 -56v-277z" />
    <glyph glyph-name="c" unicode="c" horiz-adv-x="520" 
d="M425 94l26 -40c-23 -16 -50 -30 -81 -41s-65 -18 -101 -18c-77 0 -134 23 -171 66c-38 44 -57 108 -57 192c0 35 5 68 16 99c10 31 25 59 44 83s41 43 68 58s56 22 89 22c25 0 48 -4 70 -11s41 -16 58 -30c16 -13 29 -29 39 -48c9 -19 14 -41 14 -64h-57
c0 32 -11 57 -34 75c-23 19 -53 28 -90 28c-27 0 -51 -7 -71 -20s-37 -31 -50 -52c-13 -22 -23 -46 -30 -74c-7 -27 -10 -55 -10 -82c0 -32 4 -60 13 -83c9 -24 21 -44 36 -60s34 -28 55 -36s43 -12 68 -12c28 0 55 5 80 14s51 21 76 34z" />
    <glyph glyph-name="cacute" unicode="&#x107;" horiz-adv-x="520" 
d="M424 677l-172 -110l-22 34l158 125zM425 94l26 -40c-23 -16 -50 -30 -81 -41s-65 -18 -101 -18c-77 0 -134 23 -171 66c-38 44 -57 108 -57 192c0 35 5 68 16 99c10 31 25 59 44 83s41 43 68 58s56 22 89 22c25 0 48 -4 70 -11s41 -16 58 -30c16 -13 29 -29 39 -48
c9 -19 14 -41 14 -64h-57c0 32 -11 57 -34 75c-23 19 -53 28 -90 28c-27 0 -51 -7 -71 -20s-37 -31 -50 -52c-13 -22 -23 -46 -30 -74c-7 -27 -10 -55 -10 -82c0 -32 4 -60 13 -83c9 -24 21 -44 36 -60s34 -28 55 -36s43 -12 68 -12c28 0 55 5 80 14s51 21 76 34z" />
    <glyph glyph-name="ccaron" unicode="&#x10d;" horiz-adv-x="520" 
d="M282 595h-49l-123 142h67l81 -89l80 89h68zM425 94l26 -40c-23 -16 -50 -30 -81 -41s-65 -18 -101 -18c-77 0 -134 23 -171 66c-38 44 -57 108 -57 192c0 35 5 68 16 99c10 31 25 59 44 83s41 43 68 58s56 22 89 22c25 0 48 -4 70 -11s41 -16 58 -30
c16 -13 29 -29 39 -48c9 -19 14 -41 14 -64h-57c0 32 -11 57 -34 75c-23 19 -53 28 -90 28c-27 0 -51 -7 -71 -20s-37 -31 -50 -52c-13 -22 -23 -46 -30 -74c-7 -27 -10 -55 -10 -82c0 -32 4 -60 13 -83c9 -24 21 -44 36 -60s34 -28 55 -36s43 -12 68 -12c28 0 55 5 80 14
s51 21 76 34z" />
    <glyph glyph-name="ccedilla" unicode="&#xe7;" horiz-adv-x="520" 
d="M425 94l26 -40c-23 -16 -50 -30 -81 -41c-25 -9 -52 -15 -81 -17l-9 -45c23 -3 41 -11 54 -31c10 -15 17 -36 17 -57c0 -15 -3 -28 -7 -39c-6 -16 -13 -25 -22 -35s-20 -18 -32 -23c-14 -6 -27 -8 -40 -8v53c14 0 28 5 37 18s11 30 11 38c0 22 -16 38 -48 38h-31l10 92
c-57 7 -101 29 -131 64c-38 44 -57 108 -57 192c0 35 5 68 16 99c10 31 25 59 44 83s41 43 68 58s56 22 89 22c25 0 48 -4 70 -11s41 -16 58 -30c16 -13 29 -29 39 -48c9 -19 14 -41 14 -64h-57c0 32 -11 57 -34 75c-23 19 -53 28 -90 28c-27 0 -51 -7 -71 -20
s-37 -31 -50 -52c-13 -22 -23 -46 -30 -74c-7 -27 -10 -55 -10 -82c0 -32 4 -60 13 -83c9 -24 21 -44 36 -60s34 -28 55 -36s43 -12 68 -12c28 0 55 5 80 14s51 21 76 34z" />
    <glyph glyph-name="ccircumflex" unicode="&#x109;" horiz-adv-x="520" 
d="M406 605h-68l-80 89l-81 -89h-67l123 142h49zM425 94l26 -40c-23 -16 -50 -30 -81 -41s-65 -18 -101 -18c-77 0 -134 23 -171 66c-38 44 -57 108 -57 192c0 35 5 68 16 99c10 31 25 59 44 83s41 43 68 58s56 22 89 22c25 0 48 -4 70 -11s41 -16 58 -30
c16 -13 29 -29 39 -48c9 -19 14 -41 14 -64h-57c0 32 -11 57 -34 75c-23 19 -53 28 -90 28c-27 0 -51 -7 -71 -20s-37 -31 -50 -52c-13 -22 -23 -46 -30 -74c-7 -27 -10 -55 -10 -82c0 -32 4 -60 13 -83c9 -24 21 -44 36 -60s34 -28 55 -36s43 -12 68 -12c28 0 55 5 80 14
s51 21 76 34z" />
    <glyph glyph-name="cdotaccent" unicode="&#x10b;" horiz-adv-x="520" 
d="M255 708c24 0 43 -19 43 -43c0 -23 -19 -42 -43 -42c-23 0 -42 19 -42 42c0 24 19 43 42 43zM425 94l26 -40c-23 -16 -50 -30 -81 -41s-65 -18 -101 -18c-77 0 -134 23 -171 66c-38 44 -57 108 -57 192c0 35 5 68 16 99c10 31 25 59 44 83s41 43 68 58s56 22 89 22
c25 0 48 -4 70 -11s41 -16 58 -30c16 -13 29 -29 39 -48c9 -19 14 -41 14 -64h-57c0 32 -11 57 -34 75c-23 19 -53 28 -90 28c-27 0 -51 -7 -71 -20s-37 -31 -50 -52c-13 -22 -23 -46 -30 -74c-7 -27 -10 -55 -10 -82c0 -32 4 -60 13 -83c9 -24 21 -44 36 -60s34 -28 55 -36
s43 -12 68 -12c28 0 55 5 80 14s51 21 76 34z" />
    <glyph glyph-name="d" unicode="d" horiz-adv-x="613" 
d="M460 727v-647c0 -9 4 -17 11 -24s15 -11 24 -11c13 0 22 5 29 16l45 -31c-8 -13 -18 -22 -31 -29c-13 -8 -28 -11 -43 -11c-23 0 -43 7 -59 23c-17 15 -27 33 -30 55c-15 -25 -36 -45 -62 -58s-56 -20 -90 -20s-64 7 -90 20c-27 13 -49 32 -67 55c-19 23 -33 51 -42 82
s-14 64 -14 100c0 37 6 71 17 103s26 60 47 83c20 23 44 42 73 55s61 20 96 20c28 0 53 -1 75 -3s41 -4 56 -6v228h55zM405 188v258c-11 3 -29 5 -52 7c-24 2 -50 3 -78 3c-27 0 -51 -5 -72 -15c-22 -10 -41 -24 -56 -42c-16 -18 -28 -40 -36 -65c-9 -25 -13 -53 -13 -84
c0 -27 3 -53 10 -78c6 -25 16 -47 29 -66s29 -35 49 -46c19 -12 42 -18 68 -18c17 0 35 3 53 9s34 15 49 27c14 12 26 27 35 46c9 18 14 39 14 64z" />
    <glyph glyph-name="eth" unicode="&#xf0;" horiz-adv-x="608" 
d="M408 644l98 30l15 -55l-94 -30l58 -171c11 -33 20 -64 25 -93s7 -57 7 -83c0 -39 -5 -74 -16 -105s-26 -58 -46 -79c-20 -22 -44 -39 -72 -50c-28 -12 -59 -18 -93 -18c-37 0 -71 6 -102 19s-57 31 -78 54c-22 23 -39 50 -51 81s-18 66 -18 103s6 71 18 103s29 60 51 83
c21 23 47 42 78 55s65 20 102 20c12 0 28 -1 49 -3c20 -2 39 -5 57 -8l-25 74l-95 -30l-15 55l91 30l-40 104l58 18zM315 456h-25c-29 0 -56 -5 -79 -15s-43 -24 -60 -42s-30 -40 -39 -65s-14 -53 -14 -84s5 -60 14 -85c9 -26 22 -48 39 -66s37 -32 60 -42s50 -15 79 -15
c28 0 53 5 74 15s38 24 52 41s25 38 32 61s11 49 11 76c0 54 -10 111 -31 170l-13 36l-31 6l-36 5z" />
    <glyph glyph-name="dcaron" unicode="&#x10f;" horiz-adv-x="613" 
d="M460 727v-647c0 -9 4 -17 11 -24s15 -11 24 -11c13 0 22 5 29 16l45 -31c-8 -13 -18 -22 -31 -29c-13 -8 -28 -11 -43 -11c-23 0 -43 7 -59 23c-17 15 -27 33 -30 55c-15 -25 -36 -45 -62 -58s-56 -20 -90 -20s-64 7 -90 20c-27 13 -49 32 -67 55c-19 23 -33 51 -42 82
s-14 64 -14 100c0 37 6 71 17 103s26 60 47 83c20 23 44 42 73 55s61 20 96 20c28 0 53 -1 75 -3s41 -4 56 -6v228h55zM522 662v10c0 9 3 17 9 24c6 6 14 9 23 9s17 -3 23 -9c6 -7 9 -15 9 -24v-10c0 -28 -5 -56 -16 -83c-11 -28 -29 -51 -54 -69l-34 33c27 27 40 66 40 119
zM405 188v258c-11 3 -29 5 -52 7c-24 2 -50 3 -78 3c-27 0 -51 -5 -72 -15c-22 -10 -41 -24 -56 -42c-16 -18 -28 -40 -36 -65c-9 -25 -13 -53 -13 -84c0 -27 3 -53 10 -78c6 -25 16 -47 29 -66s29 -35 49 -46c19 -12 42 -18 68 -18c17 0 35 3 53 9s34 15 49 27
c14 12 26 27 35 46c9 18 14 39 14 64z" />
    <glyph glyph-name="dcroat" unicode="&#x111;" horiz-adv-x="613" 
d="M460 627v-547c0 -9 4 -17 11 -24s15 -11 24 -11c13 0 22 5 29 16l45 -31c-8 -13 -18 -22 -31 -29c-13 -8 -28 -11 -43 -11c-23 0 -43 7 -59 23c-17 15 -27 33 -30 55c-15 -25 -36 -45 -62 -58s-56 -20 -90 -20s-64 7 -90 20c-27 13 -49 32 -67 55c-19 23 -33 51 -42 82
s-14 64 -14 100c0 37 6 71 17 103s26 60 47 83c20 23 44 42 73 55s61 20 96 20c28 0 53 -1 75 -3s41 -4 56 -6v128h-143v57h143v43h55v-43h128v-57h-128zM405 188v258c-11 3 -29 5 -52 7c-24 2 -50 3 -78 3c-27 0 -51 -5 -72 -15c-22 -10 -41 -24 -56 -42
c-16 -18 -28 -40 -36 -65c-9 -25 -13 -53 -13 -84c0 -27 3 -53 10 -78c6 -25 16 -47 29 -66s29 -35 49 -46c19 -12 42 -18 68 -18c17 0 35 3 53 9s34 15 49 27c14 12 26 27 35 46c9 18 14 39 14 64z" />
    <glyph glyph-name="dz" unicode="&#x1f3;" horiz-adv-x="1134" 
d="M460 727v-647c0 -9 4 -17 11 -24s15 -11 24 -11c13 0 22 5 29 16l45 -31c-8 -13 -18 -22 -31 -29c-13 -8 -28 -11 -43 -11c-23 0 -43 7 -59 23c-17 15 -27 33 -30 55c-15 -25 -36 -45 -62 -58s-56 -20 -90 -20s-64 7 -90 20c-27 13 -49 32 -67 55c-19 23 -33 51 -42 82
s-14 64 -14 100c0 37 6 71 17 103s26 60 47 83c20 23 44 42 73 55s61 20 96 20c28 0 53 -1 75 -3s41 -4 56 -6v228h55zM1026 485l-273 -398l80 -28c20 -7 39 -12 57 -15s38 -5 61 -5c27 0 57 12 90 35l25 -44c-58 -43 -77 -43 -115 -43c-25 0 -48 2 -69 6s-42 9 -61 16
l-99 32l-42 -61l-43 33l295 433h-257v52h351v-13zM405 188v258c-11 3 -29 5 -52 7c-24 2 -50 3 -78 3c-27 0 -51 -5 -72 -15c-22 -10 -41 -24 -56 -42c-16 -18 -28 -40 -36 -65c-9 -25 -13 -53 -13 -84c0 -27 3 -53 10 -78c6 -25 16 -47 29 -66s29 -35 49 -46
c19 -12 42 -18 68 -18c17 0 35 3 53 9s34 15 49 27c14 12 26 27 35 46c9 18 14 39 14 64z" />
    <glyph glyph-name="dzcaron" unicode="&#x1c6;" horiz-adv-x="1134" 
d="M893 592h-49l-123 142h67l81 -89l80 89h68zM460 727v-647c0 -9 4 -17 11 -24s15 -11 24 -11c13 0 22 5 29 16l45 -31c-8 -13 -18 -22 -31 -29c-13 -8 -28 -11 -43 -11c-23 0 -43 7 -59 23c-17 15 -27 33 -30 55c-15 -25 -36 -45 -62 -58s-56 -20 -90 -20s-64 7 -90 20
c-27 13 -49 32 -67 55c-19 23 -33 51 -42 82s-14 64 -14 100c0 37 6 71 17 103s26 60 47 83c20 23 44 42 73 55s61 20 96 20c28 0 53 -1 75 -3s41 -4 56 -6v228h55zM1026 485l-273 -398l80 -28c20 -7 39 -12 57 -15s38 -5 61 -5c27 0 57 12 90 35l25 -44
c-58 -43 -77 -43 -115 -43c-25 0 -48 2 -69 6s-42 9 -61 16l-99 32l-42 -61l-43 33l295 433h-257v52h351v-13zM405 188v258c-11 3 -29 5 -52 7c-24 2 -50 3 -78 3c-27 0 -51 -5 -72 -15c-22 -10 -41 -24 -56 -42c-16 -18 -28 -40 -36 -65c-9 -25 -13 -53 -13 -84
c0 -27 3 -53 10 -78c6 -25 16 -47 29 -66s29 -35 49 -46c19 -12 42 -18 68 -18c17 0 35 3 53 9s34 15 49 27c14 12 26 27 35 46c9 18 14 39 14 64z" />
    <glyph glyph-name="e" unicode="e" horiz-adv-x="522" 
d="M425 90l26 -42c-23 -16 -50 -30 -81 -41s-65 -17 -101 -17c-77 0 -134 22 -171 65c-38 44 -57 108 -57 193c0 35 5 68 16 99c10 31 25 59 44 83s41 43 68 57c27 15 56 22 89 22c25 0 48 -3 70 -10s41 -17 58 -30c16 -13 29 -29 39 -49c9 -19 14 -41 14 -64
c0 -29 -6 -54 -19 -74s-29 -36 -49 -48c-21 -12 -44 -21 -70 -26c-27 -5 -54 -8 -82 -8h-118c6 -52 23 -91 50 -118s66 -40 118 -40c28 0 55 5 80 14s51 21 76 34zM98 252l121 -1c34 0 62 3 83 9c21 7 38 15 50 25s20 21 24 34s6 25 6 37c0 48 -11 57 -34 75
c-23 19 -53 28 -90 28c-24 0 -46 -6 -65 -18c-20 -12 -37 -28 -51 -47s-25 -41 -32 -66c-8 -25 -12 -50 -12 -76z" />
    <glyph glyph-name="eacute" unicode="&#xe9;" horiz-adv-x="522" 
d="M424 685l-172 -110l-22 34l158 125zM425 90l26 -42c-23 -16 -50 -30 -81 -41s-65 -17 -101 -17c-77 0 -134 22 -171 65c-38 44 -57 108 -57 193c0 35 5 68 16 99c10 31 25 59 44 83s41 43 68 57c27 15 56 22 89 22c25 0 48 -3 70 -10s41 -17 58 -30c16 -13 29 -29 39 -49
c9 -19 14 -41 14 -64c0 -29 -6 -54 -19 -74s-29 -36 -49 -48c-21 -12 -44 -21 -70 -26c-27 -5 -54 -8 -82 -8h-118c6 -52 23 -91 50 -118s66 -40 118 -40c28 0 55 5 80 14s51 21 76 34zM98 251h121c34 0 62 3 83 9c21 7 38 15 50 25s20 21 24 34s6 25 6 37
c0 48 -11 57 -34 75c-23 19 -53 28 -90 28c-24 0 -46 -6 -65 -18c-20 -12 -37 -28 -51 -47s-25 -41 -32 -66c-8 -25 -12 -50 -12 -77z" />
    <glyph glyph-name="ebreve" unicode="&#x115;" horiz-adv-x="522" 
d="M338 737h61c-1 -40 -13 -73 -36 -98c-23 -26 -58 -39 -106 -39c-47 0 -82 13 -105 39c-23 25 -36 58 -37 98h61c1 -25 8 -45 21 -60c12 -15 32 -23 60 -23c30 0 51 8 63 23c11 15 17 35 18 60zM425 90l26 -42c-23 -16 -50 -30 -81 -41s-65 -17 -101 -17
c-77 0 -134 22 -171 65c-38 43 -57 107 -57 192c0 35 5 68 16 99c10 31 25 59 44 83s41 43 68 58c27 14 56 21 89 21c25 0 48 -3 70 -10s41 -17 58 -30c16 -13 29 -29 39 -48c9 -19 14 -41 14 -64c0 -29 -6 -54 -19 -74s-29 -36 -49 -48c-21 -12 -44 -21 -70 -26
c-27 -5 -54 -8 -82 -8h-118c6 -52 23 -91 50 -118s66 -40 118 -40c28 0 55 5 80 14s51 21 76 34zM98 252h121c34 0 62 3 83 10c21 6 38 14 50 24s20 21 24 34c4 12 6 24 6 36c0 48 -11 57 -34 76c-23 18 -53 27 -90 27c-24 0 -46 -6 -65 -18c-20 -12 -37 -28 -51 -47
s-25 -41 -32 -66c-8 -25 -12 -50 -12 -76z" />
    <glyph glyph-name="ecaron" unicode="&#x11b;" horiz-adv-x="522" 
d="M282 603h-49l-123 142h67l81 -89l80 89h68zM425 90l26 -42c-23 -16 -50 -30 -81 -41s-65 -17 -101 -17c-77 0 -134 22 -171 65c-38 43 -57 107 -57 192c0 35 5 68 16 99c10 31 25 59 44 83s41 43 68 58c27 14 56 21 89 21c25 0 48 -3 70 -10s41 -17 58 -30
c16 -13 29 -29 39 -48c9 -19 14 -41 14 -64c0 -29 -6 -54 -19 -74s-29 -36 -49 -48c-21 -12 -44 -21 -70 -26c-27 -5 -54 -8 -82 -8h-118c6 -52 23 -91 50 -118s66 -40 118 -40c28 0 55 5 80 14s51 21 76 34zM98 252h121c34 0 62 3 83 10c21 6 38 14 50 24s20 21 24 34
c4 12 6 24 6 36c0 48 -11 57 -34 76c-23 18 -53 27 -90 27c-24 0 -46 -6 -65 -18c-20 -12 -37 -28 -51 -47s-25 -41 -32 -66c-8 -25 -12 -50 -12 -76z" />
    <glyph glyph-name="uni0229" unicode="&#x229;" horiz-adv-x="522" 
d="M425 90l26 -42c-23 -16 -50 -30 -81 -41c-25 -9 -52 -15 -81 -16l-8 -40c23 -3 41 -11 54 -31c10 -15 17 -36 17 -57c0 -15 -3 -28 -7 -39c-6 -16 -13 -25 -22 -35s-20 -18 -32 -23c-14 -6 -27 -8 -40 -8v53c14 0 28 5 37 18s11 30 11 38c0 22 -16 38 -48 38h-31l9 87
c-57 7 -101 28 -131 63c-38 43 -57 107 -57 192c0 35 5 68 16 99c10 31 25 59 44 83s41 43 68 58c27 14 56 21 89 21c25 0 48 -3 70 -10s41 -17 58 -30c16 -13 29 -29 39 -48c9 -19 14 -41 14 -64c0 -29 -6 -54 -19 -74s-29 -36 -49 -48c-21 -12 -44 -21 -70 -26
c-27 -5 -54 -8 -82 -8h-118c6 -52 23 -91 50 -118s66 -40 118 -40c28 0 55 5 80 14s51 21 76 34zM98 252h121c34 0 62 3 83 10c21 6 38 14 50 24s20 21 24 34c4 12 6 24 6 36c0 48 -11 57 -34 76c-23 18 -53 27 -90 27c-24 0 -46 -6 -65 -18c-20 -12 -37 -28 -51 -47
s-25 -41 -32 -66c-8 -25 -12 -50 -12 -76z" />
    <glyph glyph-name="ecircumflex" unicode="&#xea;" horiz-adv-x="522" 
d="M406 613h-68l-80 89l-81 -89h-67l123 142h49zM425 90l26 -42c-23 -16 -50 -30 -81 -41s-65 -17 -101 -17c-77 0 -134 22 -171 65c-38 43 -57 107 -57 192c0 35 5 68 16 99c10 31 25 59 44 83s41 43 68 58c27 14 56 21 89 21c25 0 48 -3 70 -10s41 -17 58 -30
c16 -13 29 -29 39 -48c9 -19 14 -41 14 -64c0 -29 -6 -54 -19 -74s-29 -36 -49 -48c-21 -12 -44 -21 -70 -26c-27 -5 -54 -8 -82 -8h-118c6 -52 23 -91 50 -118s66 -40 118 -40c28 0 55 5 80 14s51 21 76 34zM98 252h121c34 0 62 3 83 10c21 6 38 14 50 24s20 21 24 34
c4 12 6 24 6 36c0 48 -11 57 -34 76c-23 18 -53 27 -90 27c-24 0 -46 -6 -65 -18c-20 -12 -37 -28 -51 -47s-25 -41 -32 -66c-8 -25 -12 -50 -12 -76z" />
    <glyph glyph-name="ecircumflexacute" unicode="&#x1ebf;" horiz-adv-x="522" 
d="M424 905l-172 -110l-22 34l158 125zM406 613h-68l-80 89l-81 -89h-67l123 142h49zM425 90l26 -42c-23 -16 -50 -30 -81 -41s-65 -17 -101 -17c-77 0 -134 22 -171 65c-38 43 -57 107 -57 192c0 35 5 68 16 99c10 31 25 59 44 83s41 43 68 58c27 14 56 21 89 21
c25 0 48 -3 70 -10s41 -17 58 -30c16 -13 29 -29 39 -48c9 -19 14 -41 14 -64c0 -29 -6 -54 -19 -74s-29 -36 -49 -48c-21 -12 -44 -21 -70 -26c-27 -5 -54 -8 -82 -8h-118c6 -52 23 -91 50 -118s66 -40 118 -40c28 0 55 5 80 14s51 21 76 34zM98 252h121c34 0 62 3 83 10
c21 6 38 14 50 24s20 21 24 34c4 12 6 24 6 36c0 48 -11 57 -34 76c-23 18 -53 27 -90 27c-24 0 -46 -6 -65 -18c-20 -12 -37 -28 -51 -47s-25 -41 -32 -66c-8 -25 -12 -50 -12 -76z" />
    <glyph glyph-name="ecircumflexgrave" unicode="&#x1ec1;" horiz-adv-x="527" 
d="M296 829l-22 -34l-172 110l36 49zM411 613h-68l-80 89l-81 -89h-67l123 142h49zM430 90l26 -42c-23 -16 -50 -30 -81 -41s-65 -17 -101 -17c-77 0 -134 22 -171 65c-38 43 -57 107 -57 192c0 35 5 68 16 99c10 31 25 59 44 83s41 43 68 58c27 14 56 21 89 21
c25 0 48 -3 70 -10s41 -17 58 -30c16 -13 29 -29 39 -48c9 -19 14 -41 14 -64c0 -29 -6 -54 -19 -74s-29 -36 -49 -48c-21 -12 -44 -21 -70 -26c-27 -5 -54 -8 -82 -8h-118c6 -52 23 -91 50 -118s66 -40 118 -40c28 0 55 5 80 14s51 21 76 34zM103 252h121c34 0 62 3 83 10
c21 6 38 14 50 24s20 21 24 34c4 12 6 24 6 36c0 48 -11 57 -34 76c-23 18 -53 27 -90 27c-24 0 -46 -6 -65 -18c-20 -12 -37 -28 -51 -47s-25 -41 -32 -66c-8 -25 -12 -50 -12 -76z" />
    <glyph glyph-name="ecircumflextilde" unicode="&#x1ec5;" horiz-adv-x="522" 
d="M114 801l-33 41c17 14 33 25 48 32s30 11 45 13h14c10 0 20 -1 31 -3c15 -4 31 -9 48 -16c14 -6 27 -10 38 -13c8 -2 15 -3 23 -3c3 0 6 0 9 1c10 1 20 4 31 9c10 5 21 13 33 23l34 -41c-32 -27 -63 -41 -93 -44h-7l-6 -1c-15 0 -29 2 -43 6s-27 9 -39 14
c-14 5 -26 9 -37 12c-9 2 -16 3 -24 3h-8c-10 -1 -20 -5 -30 -10c-11 -5 -22 -13 -34 -23zM406 613h-68l-80 89l-81 -89h-67l123 142h49zM425 90l26 -42c-23 -16 -50 -30 -81 -41s-65 -17 -101 -17c-77 0 -134 22 -171 65c-38 43 -57 107 -57 192c0 35 5 68 16 99
c10 31 25 59 44 83s41 43 68 58c27 14 56 21 89 21c25 0 48 -3 70 -10s41 -17 58 -30c16 -13 29 -29 39 -48c9 -19 14 -41 14 -64c0 -29 -6 -54 -19 -74s-29 -36 -49 -48c-21 -12 -44 -21 -70 -26c-27 -5 -54 -8 -82 -8h-118c6 -52 23 -91 50 -118s66 -40 118 -40
c28 0 55 5 80 14s51 21 76 34zM98 252h121c34 0 62 3 83 10c21 6 38 14 50 24s20 21 24 34c4 12 6 24 6 36c0 48 -11 57 -34 76c-23 18 -53 27 -90 27c-24 0 -46 -6 -65 -18c-20 -12 -37 -28 -51 -47s-25 -41 -32 -66c-8 -25 -12 -50 -12 -76z" />
    <glyph glyph-name="edieresis" unicode="&#xeb;" horiz-adv-x="522" 
d="M146 625c-23 0 -42 19 -42 42c0 24 19 43 42 43c24 0 43 -19 43 -43c0 -23 -19 -42 -43 -42zM368 625c-23 0 -42 19 -42 42c0 24 19 43 42 43c24 0 43 -19 43 -43c0 -23 -19 -42 -43 -42zM425 90l26 -42c-23 -16 -50 -30 -81 -41s-65 -17 -101 -17c-77 0 -134 22 -171 65
c-38 43 -57 107 -57 192c0 35 5 68 16 99c10 31 25 59 44 83s41 43 68 58c27 14 56 21 89 21c25 0 48 -3 70 -10s41 -17 58 -30c16 -13 29 -29 39 -48c9 -19 14 -41 14 -64c0 -29 -6 -54 -19 -74s-29 -36 -49 -48c-21 -12 -44 -21 -70 -26c-27 -5 -54 -8 -82 -8h-118
c6 -52 23 -91 50 -118s66 -40 118 -40c28 0 55 5 80 14s51 21 76 34zM98 252h121c34 0 62 3 83 10c21 6 38 14 50 24s20 21 24 34c4 12 6 24 6 36c0 48 -11 57 -34 76c-23 18 -53 27 -90 27c-24 0 -46 -6 -65 -18c-20 -12 -37 -28 -51 -47s-25 -41 -32 -66
c-8 -25 -12 -50 -12 -76z" />
    <glyph glyph-name="edotaccent" unicode="&#x117;" horiz-adv-x="522" 
d="M255 716c24 0 43 -19 43 -43c0 -23 -19 -42 -43 -42c-23 0 -42 19 -42 42c0 24 19 43 42 43zM425 90l26 -42c-23 -16 -50 -30 -81 -41s-65 -17 -101 -17c-77 0 -134 22 -171 65c-38 43 -57 107 -57 192c0 35 5 68 16 99c10 31 25 59 44 83s41 43 68 58c27 14 56 21 89 21
c25 0 48 -3 70 -10s41 -17 58 -30c16 -13 29 -29 39 -48c9 -19 14 -41 14 -64c0 -29 -6 -54 -19 -74s-29 -36 -49 -48c-21 -12 -44 -21 -70 -26c-27 -5 -54 -8 -82 -8h-118c6 -52 23 -91 50 -118s66 -40 118 -40c28 0 55 5 80 14s51 21 76 34zM98 252h121c34 0 62 3 83 10
c21 6 38 14 50 24s20 21 24 34c4 12 6 24 6 36c0 48 -11 57 -34 76c-23 18 -53 27 -90 27c-24 0 -46 -6 -65 -18c-20 -12 -37 -28 -51 -47s-25 -41 -32 -66c-8 -25 -12 -50 -12 -76z" />
    <glyph glyph-name="edotbelow" unicode="&#x1eb9;" horiz-adv-x="522" 
d="M255 716c24 0 43 -19 43 -43c0 -23 -19 -42 -43 -42c-23 0 -42 19 -42 42c0 24 19 43 42 43zM425 90l26 -42c-23 -16 -50 -30 -81 -41s-65 -17 -101 -17c-77 0 -134 22 -171 65c-38 43 -57 107 -57 192c0 35 5 68 16 99c10 31 25 59 44 83s41 43 68 58c27 14 56 21 89 21
c25 0 48 -3 70 -10s41 -17 58 -30c16 -13 29 -29 39 -48c9 -19 14 -41 14 -64c0 -29 -6 -54 -19 -74s-29 -36 -49 -48c-21 -12 -44 -21 -70 -26c-27 -5 -54 -8 -82 -8h-118c6 -52 23 -91 50 -118s66 -40 118 -40c28 0 55 5 80 14s51 21 76 34zM98 252h121c34 0 62 3 83 10
c21 6 38 14 50 24s20 21 24 34c4 12 6 24 6 36c0 48 -11 57 -34 76c-23 18 -53 27 -90 27c-24 0 -46 -6 -65 -18c-20 -12 -37 -28 -51 -47s-25 -41 -32 -66c-8 -25 -12 -50 -12 -76z" />
    <glyph glyph-name="egrave" unicode="&#xe8;" horiz-adv-x="522" 
d="M291 609l-22 -34l-172 110l36 49zM425 90l26 -42c-23 -16 -50 -30 -81 -41s-65 -17 -101 -17c-77 0 -134 22 -171 65c-38 44 -57 108 -57 193c0 35 5 68 16 99c10 31 25 59 44 83s41 43 68 57c27 15 56 22 89 22c25 0 48 -3 70 -10s41 -17 58 -30c16 -13 29 -29 39 -49
c9 -19 14 -41 14 -64c0 -29 -6 -54 -19 -74s-29 -36 -49 -48c-21 -12 -44 -21 -70 -26c-27 -5 -54 -8 -82 -8h-118c6 -52 23 -91 50 -118s66 -40 118 -40c28 0 55 5 80 14s51 21 76 34zM98 251h121c34 0 62 3 83 9c21 7 38 15 50 25s20 21 24 34s6 25 6 37
c0 48 -11 57 -34 75c-23 19 -53 28 -90 28c-24 0 -46 -6 -65 -18c-20 -12 -37 -28 -51 -47s-25 -41 -32 -66c-8 -25 -12 -50 -12 -77z" />
    <glyph glyph-name="einvertedbreve" unicode="&#x207;" horiz-adv-x="522" 
d="M400 568h-61c-1 25 -7 45 -18 60c-12 15 -33 23 -63 23c-28 0 -48 -8 -60 -23c-13 -15 -20 -35 -21 -60h-61c1 40 14 73 37 99c23 25 58 38 105 38c48 0 83 -13 106 -38c23 -26 35 -59 36 -99zM425 90l26 -42c-23 -16 -50 -30 -81 -41s-65 -17 -101 -17
c-77 0 -134 22 -171 65c-38 44 -57 108 -57 193c0 35 5 68 16 99c10 31 25 59 44 83s41 43 68 57c27 15 56 22 89 22c25 0 48 -3 70 -10s41 -17 58 -30c16 -13 29 -29 39 -49c9 -19 14 -41 14 -64c0 -29 -6 -54 -19 -74s-29 -36 -49 -48c-21 -12 -44 -21 -70 -26
c-27 -5 -54 -8 -82 -8h-118c6 -52 23 -91 50 -118s66 -40 118 -40c28 0 55 5 80 14s51 21 76 34zM98 251h121c34 0 62 3 83 9c21 7 38 15 50 25s20 21 24 34s6 25 6 37c0 48 -11 57 -34 75c-23 19 -53 28 -90 28c-24 0 -46 -6 -65 -18c-20 -12 -37 -28 -51 -47
s-25 -41 -32 -66c-8 -25 -12 -50 -12 -77z" />
    <glyph glyph-name="emacron" unicode="&#x113;" horiz-adv-x="522" 
d="M421 635h-326v57h326v-57zM425 90l26 -42c-23 -16 -50 -30 -81 -41s-65 -17 -101 -17c-77 0 -134 22 -171 65c-38 44 -57 108 -57 193c0 35 5 68 16 99c10 31 25 59 44 83s41 43 68 57c27 15 56 22 89 22c25 0 48 -3 70 -10s41 -17 58 -30c16 -13 29 -29 39 -49
c9 -19 14 -41 14 -64c0 -29 -6 -54 -19 -74s-29 -36 -49 -48c-21 -12 -44 -21 -70 -26c-27 -5 -54 -8 -82 -8h-118c6 -52 23 -91 50 -118s66 -40 118 -40c28 0 55 5 80 14s51 21 76 34zM98 251h121c34 0 62 3 83 9c21 7 38 15 50 25s20 21 24 34s6 25 6 37
c0 48 -11 57 -34 75c-23 19 -53 28 -90 28c-24 0 -46 -6 -65 -18c-20 -12 -37 -28 -51 -47s-25 -41 -32 -66c-8 -25 -12 -50 -12 -77z" />
    <glyph glyph-name="eogonek" unicode="&#x119;" horiz-adv-x="522" 
d="M466 -83l25 -45c-12 -9 -27 -16 -43 -21s-33 -8 -47 -8c-21 0 -43 6 -62 25c-16 16 -24 37 -24 63c0 13 2 27 8 39c2 4 9 18 17 28c-23 -5 -46 -8 -71 -8c-77 0 -134 22 -171 65c-38 44 -57 108 -57 193c0 35 5 68 16 99c10 31 25 59 44 83s41 43 68 57
c27 15 56 22 89 22c25 0 48 -3 70 -10s41 -17 58 -30c16 -13 29 -29 39 -49c9 -19 14 -41 14 -64c0 -29 -6 -54 -19 -74s-29 -36 -49 -48c-21 -12 -44 -21 -70 -26c-27 -5 -54 -8 -82 -8h-118c6 -52 23 -91 50 -118s66 -40 118 -40c28 0 55 5 80 14s51 21 76 34l26 -42
l-26 -27c-7 -8 -20 -21 -26 -29c-7 -9 -16 -23 -19 -28c-5 -8 -8 -17 -8 -28c0 -7 1 -16 8 -25c4 -5 9 -10 19 -13c4 -1 9 -2 14 -2c4 0 7 1 11 1c9 2 17 5 25 10zM98 251h121c34 0 62 3 83 9c21 7 38 15 50 25s20 21 24 34s6 25 6 37c0 48 -11 57 -34 75
c-23 19 -53 28 -90 28c-24 0 -46 -6 -65 -18c-20 -12 -37 -28 -51 -47s-25 -41 -32 -66c-8 -25 -12 -50 -12 -77z" />
    <glyph glyph-name="etilde" unicode="&#x1ebd;" horiz-adv-x="522" 
d="M114 621l-33 40c17 14 33 25 48 32c15 8 30 12 45 13c5 1 9 1 14 1c10 0 20 -1 31 -3c15 -4 31 -9 48 -16c14 -6 27 -10 38 -13c8 -2 15 -3 23 -3h9c10 2 20 5 31 10c10 5 21 13 33 23l34 -41c-32 -27 -63 -41 -93 -44h-7l-6 -1c-15 0 -29 2 -43 6s-27 9 -39 14
c-14 5 -26 9 -37 12c-9 2 -16 3 -24 3h-8c-10 -1 -20 -5 -30 -10c-11 -5 -22 -13 -34 -23zM425 90l26 -42c-23 -16 -50 -30 -81 -41s-65 -17 -101 -17c-77 0 -134 22 -171 65c-38 44 -57 108 -57 193c0 35 5 68 16 99c10 31 25 59 44 83s41 43 68 57c27 15 56 22 89 22
c25 0 48 -3 70 -10s41 -17 58 -30c16 -13 29 -29 39 -49c9 -19 14 -41 14 -64c0 -29 -6 -54 -19 -74s-29 -36 -49 -48c-21 -12 -44 -21 -70 -26c-27 -5 -54 -8 -82 -8h-118c6 -52 23 -91 50 -118s66 -40 118 -40c28 0 55 5 80 14s51 21 76 34zM98 251h121c34 0 62 3 83 9
c21 7 38 15 50 25s20 21 24 34s6 25 6 37c0 48 -11 57 -34 75c-23 19 -53 28 -90 28c-24 0 -46 -6 -65 -18c-20 -12 -37 -28 -51 -47s-25 -41 -32 -66c-8 -25 -12 -50 -12 -77z" />
    <glyph glyph-name="f" unicode="f" horiz-adv-x="399" 
d="M52 -260v762c0 34 3 66 8 95s14 55 26 76s28 38 48 50c20 13 45 19 75 19c25 0 46 -4 65 -11c18 -8 33 -18 45 -31s21 -29 27 -46s9 -35 9 -54c0 -61 -18 -107 -53 -138s-84 -47 -147 -47h-48v-163h148v-52h-148v-460h-55zM107 467l48 1c26 0 48 3 66 10s33 17 45 29
c11 12 20 26 25 42s7 33 7 52c0 24 -7 45 -22 63s-37 27 -67 27c-21 0 -38 -5 -51 -15s-24 -23 -31 -41c-8 -17 -13 -37 -16 -59c-3 -23 -4 -46 -4 -71v-38z" />
    <glyph glyph-name="g" unicode="g" horiz-adv-x="542" 
d="M459 499v-611c0 -33 -5 -61 -15 -83c-8 -18 -22 -37 -38 -51c-15 -13 -30 -21 -50 -27c-17 -5 -35 -8 -53 -8c-23 0 -41 5 -59 14s-33 21 -45 36s-21 33 -27 50s-10 37 -10 59c0 25 5 44 12 63c9 24 19 38 34 53c-25 6 -48 17 -69 33c-24 18 -40 40 -52 59
c-16 25 -26 49 -34 80s-12 60 -12 91c0 39 6 69 18 100s28 55 50 78c23 24 46 41 75 54c30 13 61 20 99 20c14 0 38 -1 62 -3l61 -7h53zM311 456h-33c-29 0 -54 -6 -77 -17s-42 -26 -58 -45c-19 -23 -29 -44 -36 -62c-9 -24 -13 -49 -13 -76c0 -31 5 -62 11 -82
c8 -27 21 -53 34 -71c10 -14 26 -30 42 -41s37 -20 68 -20c17 0 37 3 54 12c9 5 30 17 43 27c21 19 39 41 48 58c7 14 12 30 12 40v271l-27 2zM406 -116v185c-15 -15 -31 -29 -46 -42s-33 -23 -52 -29l-39 -26c-12 -8 -22 -17 -30 -26s-14 -19 -18 -30s-6 -24 -6 -39
s2 -28 7 -41c5 -14 12 -24 20 -33c9 -10 18 -18 28 -23c12 -6 24 -8 38 -8c19 0 35 4 47 10c14 7 24 17 30 26s11 21 15 36c3 13 5 27 6 40z" />
    <glyph glyph-name="gacute" unicode="&#x1f5;" horiz-adv-x="542" 
d="M444 686l-172 -110l-22 34l158 125zM459 499v-611c0 -33 -5 -61 -15 -83c-8 -18 -22 -37 -38 -51c-15 -13 -30 -21 -50 -27c-17 -5 -35 -8 -53 -8c-23 0 -41 5 -59 14s-33 21 -45 36s-21 33 -27 50s-10 37 -10 59c0 25 5 44 12 63c9 24 19 38 34 53c-25 6 -48 17 -69 33
c-24 18 -40 40 -52 59c-16 25 -26 49 -34 80s-12 60 -12 91c0 39 6 69 18 100s28 55 50 78c23 24 46 41 75 54c30 13 61 20 99 20c14 0 38 -1 62 -3l61 -7h53zM311 456h-33c-29 0 -54 -6 -77 -17s-42 -26 -58 -45c-19 -23 -29 -44 -36 -62c-9 -24 -13 -49 -13 -76
c0 -31 5 -62 11 -82c8 -27 21 -53 34 -71c10 -14 26 -30 42 -41s37 -20 68 -20c17 0 37 3 54 12c9 5 30 17 43 27c21 19 39 41 48 58c7 14 12 30 12 40v271l-27 2zM406 -116v185c-15 -15 -31 -29 -46 -42s-33 -23 -52 -29l-39 -26c-12 -8 -22 -17 -30 -26s-14 -19 -18 -30
s-6 -24 -6 -39s2 -28 7 -41c5 -14 12 -24 20 -33c9 -10 18 -18 28 -23c12 -6 24 -8 38 -8c19 0 35 4 47 10c14 7 24 17 30 26s11 21 15 36c3 13 5 27 6 40z" />
    <glyph glyph-name="gbreve" unicode="&#x11f;" horiz-adv-x="542" 
d="M358 738h61c-1 -40 -13 -73 -36 -98c-23 -26 -58 -39 -106 -39c-47 0 -82 13 -105 39c-23 25 -36 58 -37 98h61c1 -25 8 -45 21 -60c12 -15 32 -23 60 -23c30 0 51 8 63 23c11 15 17 35 18 60zM459 499v-611c0 -33 -5 -61 -15 -83c-8 -18 -22 -37 -38 -51
c-15 -13 -30 -21 -50 -27c-17 -5 -35 -8 -53 -8c-23 0 -41 5 -59 14s-33 21 -45 36s-21 33 -27 50s-10 37 -10 59c0 25 5 44 12 63c9 24 19 38 34 53c-25 6 -48 17 -69 33c-24 18 -40 40 -52 59c-16 25 -26 49 -34 80s-12 60 -12 91c0 39 6 69 18 100s28 55 50 78
c23 24 46 41 75 54c30 13 61 20 99 20c14 0 38 -1 62 -3l61 -7h53zM311 456h-33c-29 0 -54 -6 -77 -17s-42 -26 -58 -45c-19 -23 -29 -44 -36 -62c-9 -24 -13 -49 -13 -76c0 -31 5 -62 11 -82c8 -27 21 -53 34 -71c10 -14 26 -30 42 -41s37 -20 68 -20c17 0 37 3 54 12
c9 5 30 17 43 27c21 19 39 41 48 58c7 14 12 30 12 40v271l-27 2zM406 -116v185c-15 -15 -31 -29 -46 -42s-33 -23 -52 -29l-39 -26c-12 -8 -22 -17 -30 -26s-14 -19 -18 -30s-6 -24 -6 -39s2 -28 7 -41c5 -14 12 -24 20 -33c9 -10 18 -18 28 -23c12 -6 24 -8 38 -8
c19 0 35 4 47 10c14 7 24 17 30 26s11 21 15 36c3 13 5 27 6 40z" />
    <glyph glyph-name="gcaron" unicode="&#x1e7;" horiz-adv-x="542" 
d="M302 604h-49l-123 142h67l81 -89l80 89h68zM459 499v-611c0 -33 -5 -61 -15 -83c-8 -18 -22 -37 -38 -51c-15 -13 -30 -21 -50 -27c-17 -5 -35 -8 -53 -8c-23 0 -41 5 -59 14s-33 21 -45 36s-21 33 -27 50s-10 37 -10 59c0 25 5 44 12 63c9 24 19 38 34 53
c-25 6 -48 17 -69 33c-24 18 -40 40 -52 59c-16 25 -26 49 -34 80s-12 60 -12 91c0 39 6 69 18 100s28 55 50 78c23 24 46 41 75 54c30 13 61 20 99 20c14 0 38 -1 62 -3l61 -7h53zM311 456h-33c-29 0 -54 -6 -77 -17s-42 -26 -58 -45c-19 -23 -29 -44 -36 -62
c-9 -24 -13 -49 -13 -76c0 -31 5 -62 11 -82c8 -27 21 -53 34 -71c10 -14 26 -30 42 -41s37 -20 68 -20c17 0 37 3 54 12c9 5 30 17 43 27c21 19 39 41 48 58c7 14 12 30 12 40v271l-27 2zM406 -116v185c-15 -15 -31 -29 -46 -42s-33 -23 -52 -29l-39 -26
c-12 -8 -22 -17 -30 -26s-14 -19 -18 -30s-6 -24 -6 -39s2 -28 7 -41c5 -14 12 -24 20 -33c9 -10 18 -18 28 -23c12 -6 24 -8 38 -8c19 0 35 4 47 10c14 7 24 17 30 26s11 21 15 36c3 13 5 27 6 40z" />
    <glyph glyph-name="gcircumflex" unicode="&#x11d;" horiz-adv-x="542" 
d="M426 614h-68l-80 89l-81 -89h-67l123 142h49zM459 499v-611c0 -33 -5 -61 -15 -83c-8 -18 -22 -37 -38 -51c-15 -13 -30 -21 -50 -27c-17 -5 -35 -8 -53 -8c-23 0 -41 5 -59 14s-33 21 -45 36s-21 33 -27 50s-10 37 -10 59c0 25 5 44 12 63c9 24 19 38 34 53
c-25 6 -48 17 -69 33c-24 18 -40 40 -52 59c-16 25 -26 49 -34 80s-12 60 -12 91c0 39 6 69 18 100s28 55 50 78c23 24 46 41 75 54c30 13 61 20 99 20c14 0 38 -1 62 -3l61 -7h53zM311 456h-33c-29 0 -54 -6 -77 -17s-42 -26 -58 -45c-19 -23 -29 -44 -36 -62
c-9 -24 -13 -49 -13 -76c0 -31 5 -62 11 -82c8 -27 21 -53 34 -71c10 -14 26 -30 42 -41s37 -20 68 -20c17 0 37 3 54 12c9 5 30 17 43 27c21 19 39 41 48 58c7 14 12 30 12 40v271l-27 2zM406 -116v185c-15 -15 -31 -29 -46 -42s-33 -23 -52 -29l-39 -26
c-12 -8 -22 -17 -30 -26s-14 -19 -18 -30s-6 -24 -6 -39s2 -28 7 -41c5 -14 12 -24 20 -33c9 -10 18 -18 28 -23c12 -6 24 -8 38 -8c19 0 35 4 47 10c14 7 24 17 30 26s11 21 15 36c3 13 5 27 6 40z" />
    <glyph glyph-name="gcommaaccent" unicode="&#x123;" horiz-adv-x="542" 
d="M459 499v-611c0 -33 -5 -61 -15 -83c-8 -18 -22 -37 -38 -51c-15 -13 -30 -21 -50 -27c-17 -5 -35 -8 -53 -8c-23 0 -41 5 -59 14s-33 21 -45 36s-21 33 -27 50s-10 37 -10 59c0 25 5 44 12 63c9 24 19 38 34 53c-25 6 -48 17 -69 33c-24 18 -40 40 -52 59
c-16 25 -26 49 -34 80s-12 60 -12 91c0 39 6 69 18 100s28 55 50 78c23 24 46 41 75 54c30 13 61 20 99 20c14 0 38 -1 62 -3l61 -7h53zM311 456h-33c-29 0 -54 -6 -77 -17s-42 -26 -58 -45c-19 -23 -29 -44 -36 -62c-9 -24 -13 -49 -13 -76c0 -31 5 -62 11 -82
c8 -27 21 -53 34 -71c10 -14 26 -30 42 -41s37 -20 68 -20c17 0 37 3 54 12c9 5 30 17 43 27c21 19 39 41 48 58c7 14 12 30 12 40v271l-27 2zM406 -116v185c-15 -15 -31 -29 -46 -42s-33 -23 -52 -29l-39 -26c-12 -8 -22 -17 -30 -26s-14 -19 -18 -30s-6 -24 -6 -39
s2 -28 7 -41c5 -14 12 -24 20 -33c9 -10 18 -18 28 -23c12 -6 24 -8 38 -8c19 0 35 4 47 10c14 7 24 17 30 26s11 21 15 36c3 13 5 27 6 40zM95 -285h-54l40 207h64z" />
    <glyph glyph-name="gdotaccent" unicode="&#x121;" horiz-adv-x="542" 
d="M275 717c24 0 43 -19 43 -43c0 -23 -19 -42 -43 -42c-23 0 -42 19 -42 42c0 24 19 43 42 43zM459 499v-611c0 -33 -5 -61 -15 -83c-8 -18 -22 -37 -38 -51c-15 -13 -30 -21 -50 -27c-17 -5 -35 -8 -53 -8c-23 0 -41 5 -59 14s-33 21 -45 36s-21 33 -27 50s-10 37 -10 59
c0 25 5 44 12 63c9 24 19 38 34 53c-25 6 -48 17 -69 33c-24 18 -40 40 -52 59c-16 25 -26 49 -34 80s-12 60 -12 91c0 39 6 69 18 100s28 55 50 78c23 24 46 41 75 54c30 13 61 20 99 20c14 0 38 -1 62 -3l61 -7h53zM311 456h-33c-29 0 -54 -6 -77 -17s-42 -26 -58 -45
c-19 -23 -29 -44 -36 -62c-9 -24 -13 -49 -13 -76c0 -31 5 -62 11 -82c8 -27 21 -53 34 -71c10 -14 26 -30 42 -41s37 -20 68 -20c17 0 37 3 54 12c9 5 30 17 43 27c21 19 39 41 48 58c7 14 12 30 12 40v271l-27 2zM406 -116v185c-15 -15 -31 -29 -46 -42s-33 -23 -52 -29
l-39 -26c-12 -8 -22 -17 -30 -26s-14 -19 -18 -30s-6 -24 -6 -39s2 -28 7 -41c5 -14 12 -24 20 -33c9 -10 18 -18 28 -23c12 -6 24 -8 38 -8c19 0 35 4 47 10c14 7 24 17 30 26s11 21 15 36c3 13 5 27 6 40z" />
    <glyph glyph-name="h" unicode="h" horiz-adv-x="593" 
d="M109 729v-305c21 30 46 52 74 66c27 15 57 22 89 22c59 0 101 -14 128 -41c27 -28 40 -68 40 -120v-268c0 -9 3 -17 10 -24s15 -10 24 -10c13 0 23 5 29 15l46 -31c-18 -26 -43 -40 -75 -40c-25 0 -46 10 -63 27s-26 38 -26 63v265c0 39 -10 67 -29 85s-47 27 -84 27
c-36 0 -66 -9 -91 -27s-49 -43 -72 -75v-355h-55v726h55z" />
    <glyph glyph-name="hbar" unicode="&#x127;" horiz-adv-x="593" 
d="M109 729v-305c21 30 46 52 74 66c27 15 57 22 89 22c59 0 101 -14 128 -41c27 -28 40 -68 40 -120v-268c0 -9 3 -17 10 -24s15 -10 24 -10c13 0 23 5 29 15l46 -31c-18 -26 -43 -40 -75 -40c-25 0 -46 10 -63 27s-26 38 -26 63v265c0 39 -10 67 -29 85s-47 27 -84 27
c-36 0 -66 -9 -91 -27s-49 -43 -72 -75v-355h-55v726h55z" />
    <glyph glyph-name="uni021F" unicode="&#x21f;" horiz-adv-x="593" 
d="M321 595h-49l-123 142h67l81 -89l80 89h68zM109 729v-305c21 30 46 52 74 66c27 15 57 22 89 22c59 0 101 -14 128 -41c27 -28 40 -68 40 -120v-268c0 -9 3 -17 10 -24s15 -10 24 -10c13 0 23 5 29 15l46 -31c-18 -26 -43 -40 -75 -40c-25 0 -46 10 -63 27s-26 38 -26 63
v265c0 39 -10 67 -29 85s-47 27 -84 27c-36 0 -66 -9 -91 -27s-49 -43 -72 -75v-355h-55v726h55z" />
    <glyph glyph-name="hcircumflex" unicode="&#x125;" horiz-adv-x="593" 
d="M445 605h-68l-80 89l-81 -89h-67l123 142h49zM109 729v-305c21 30 46 52 74 66c27 15 57 22 89 22c59 0 101 -14 128 -41c27 -28 40 -68 40 -120v-268c0 -9 3 -17 10 -24s15 -10 24 -10c13 0 23 5 29 15l46 -31c-18 -26 -43 -40 -75 -40c-25 0 -46 10 -63 27
s-26 38 -26 63v265c0 39 -10 67 -29 85s-47 27 -84 27c-36 0 -66 -9 -91 -27s-49 -43 -72 -75v-355h-55v726h55z" />
    <glyph glyph-name="i" unicode="i" horiz-adv-x="237" 
d="M68 708c24 0 43 -19 43 -43c0 -23 -19 -42 -43 -42c-23 0 -42 19 -42 42c0 24 19 43 42 43zM98 500v-420c0 -9 3 -17 10 -24s15 -11 24 -11c13 0 22 5 29 15l46 -30c-9 -13 -19 -22 -32 -29c-13 -8 -28 -11 -43 -11c-25 0 -46 9 -63 26s-26 39 -26 64v420h55z" />
    <glyph glyph-name="dotlessi" unicode="&#x131;" horiz-adv-x="237" 
d="M98 500v-419c0 -9 3 -17 10 -24s15 -11 24 -11c13 0 22 5 29 15l46 -30c-9 -13 -19 -23 -32 -30c-13 -8 -28 -11 -43 -11c-25 0 -46 9 -63 26s-26 39 -26 64v420h55z" />
    <glyph glyph-name="iacute" unicode="&#xed;" horiz-adv-x="237" 
d="M237 677l-172 -110l-22 34l158 125zM98 500v-419c0 -9 3 -17 10 -24s15 -11 24 -11c13 0 22 5 29 15l46 -30c-9 -13 -19 -23 -32 -30c-13 -8 -28 -11 -43 -11c-25 0 -46 9 -63 26s-26 39 -26 64v420h55z" />
    <glyph glyph-name="ibreve" unicode="&#x12d;" horiz-adv-x="237" 
d="M151 729h61c-1 -40 -13 -73 -36 -98c-23 -26 -58 -39 -106 -39c-47 0 -82 13 -105 39c-23 25 -36 58 -37 98h61c1 -25 8 -45 21 -60c12 -15 32 -23 60 -23c30 0 51 8 63 23c11 15 17 35 18 60zM98 500v-419c0 -9 3 -17 10 -24s15 -11 24 -11c13 0 22 5 29 15l46 -30
c-9 -13 -19 -23 -32 -30c-13 -8 -28 -11 -43 -11c-25 0 -46 9 -63 26s-26 39 -26 64v420h55z" />
    <glyph glyph-name="icaron" unicode="&#x1d0;" horiz-adv-x="237" 
d="M95 595h-49l-123 142h67l81 -89l80 89h68zM98 500v-419c0 -9 3 -17 10 -24s15 -11 24 -11c13 0 22 5 29 15l46 -30c-9 -13 -19 -23 -32 -30c-13 -8 -28 -11 -43 -11c-25 0 -46 9 -63 26s-26 39 -26 64v420h55z" />
    <glyph glyph-name="icircumflex" unicode="&#xee;" horiz-adv-x="237" 
d="M219 605h-68l-80 89l-81 -89h-67l123 142h49zM98 500v-420c0 -9 3 -17 10 -24s15 -11 24 -11c13 0 22 5 29 15l46 -30c-9 -13 -19 -22 -32 -29c-13 -8 -28 -11 -43 -11c-25 0 -46 9 -63 26s-26 39 -26 64v420h55z" />
    <glyph glyph-name="idieresis" unicode="&#xef;" horiz-adv-x="237" 
d="M-41 702c24 0 43 -19 43 -43c0 -23 -19 -42 -43 -42c-23 0 -42 19 -42 42c0 24 19 43 42 43zM181 702c24 0 43 -19 43 -43c0 -23 -19 -42 -43 -42c-23 0 -42 19 -42 42c0 24 19 43 42 43zM98 500v-420c0 -9 3 -17 10 -24s15 -11 24 -11c13 0 22 5 29 15l46 -30
c-9 -13 -19 -22 -32 -29c-13 -8 -28 -11 -43 -11c-25 0 -46 9 -63 26s-26 39 -26 64v420h55z" />
    <glyph glyph-name="idotbelow" unicode="&#x1ecb;" horiz-adv-x="237" 
d="M68 708c24 0 43 -19 43 -43c0 -23 -19 -42 -43 -42c-23 0 -42 19 -42 42c0 24 19 43 42 43zM98 500v-420c0 -9 3 -17 10 -24s15 -11 24 -11c13 0 22 5 29 15l46 -30c-9 -13 -19 -22 -32 -29c-13 -8 -28 -11 -43 -11c-25 0 -46 9 -63 26s-26 39 -26 64v420h55zM88 -113
c12 0 22 -4 30 -12s12 -18 12 -30c0 -11 -4 -21 -12 -29s-18 -12 -30 -12c-17 0 -21 4 -29 12s-12 18 -12 29c0 12 4 22 12 30s18 12 29 12z" />
    <glyph glyph-name="igrave" unicode="&#xec;" horiz-adv-x="237" 
d="M104 601l-22 -34l-172 110l36 49zM98 500v-420c0 -9 3 -17 10 -24s15 -11 24 -11c13 0 22 5 29 15l46 -30c-9 -13 -19 -22 -32 -29c-13 -8 -28 -11 -43 -11c-25 0 -46 9 -63 26s-26 39 -26 64v420h55z" />
    <glyph glyph-name="iinvertedbreve" unicode="&#x20b;" horiz-adv-x="237" 
d="M212 568h-61c-1 25 -7 45 -18 60c-12 15 -33 23 -63 23c-28 0 -48 -8 -60 -23c-13 -15 -20 -35 -21 -60h-61c1 40 14 73 37 99c23 25 58 38 105 38c48 0 83 -13 106 -38c23 -26 35 -59 36 -99zM98 500v-420c0 -9 3 -17 10 -24s15 -11 24 -11c13 0 22 5 29 15l46 -30
c-9 -13 -19 -22 -32 -29c-13 -8 -28 -11 -43 -11c-25 0 -46 9 -63 26s-26 39 -26 64v420h55z" />
    <glyph glyph-name="ij" unicode="&#x133;" horiz-adv-x="421" 
d="M68 708c24 0 43 -19 43 -43c0 -23 -19 -42 -43 -42c-23 0 -42 19 -42 42c0 24 19 43 42 43zM310 708c24 0 43 -19 43 -43c0 -23 -19 -42 -43 -42c-23 0 -42 19 -42 42c0 24 19 43 42 43zM341 501v-671c0 -13 -2 -25 -7 -36s-11 -20 -19 -28s-17 -14 -28 -19
s-23 -7 -35 -7c-15 0 -29 3 -42 10s-24 17 -33 30l46 30c7 -10 16 -15 29 -15c9 0 17 3 24 10s10 16 10 25v671h55zM98 500v-420c0 -9 3 -17 10 -24s15 -11 24 -11c13 0 22 5 29 15l46 -30c-9 -13 -19 -22 -32 -29c-13 -8 -28 -11 -43 -11c-25 0 -46 9 -63 26s-26 39 -26 64
v420h55z" />
    <glyph glyph-name="imacron" unicode="&#x12b;" horiz-adv-x="237" 
d="M234 627h-326v57h326v-57zM98 500v-419c0 -9 3 -17 10 -24s15 -11 24 -11c13 0 22 5 29 15l46 -30c-9 -13 -19 -23 -32 -30c-13 -8 -28 -11 -43 -11c-25 0 -46 9 -63 26s-26 39 -26 64v420h55z" />
    <glyph glyph-name="iogonek" unicode="&#x12f;" horiz-adv-x="237" 
d="M111 665c0 -23 -19 -42 -43 -42c-23 0 -42 19 -42 42c0 24 19 43 42 43c24 0 43 -19 43 -43zM190 -130l25 -45c-12 -9 -27 -16 -43 -21s-33 -8 -47 -8c-21 0 -43 6 -62 25c-16 16 -24 37 -24 63c0 13 2 27 8 39c2 4 11 21 19 31c7 9 24 26 26 28l13 12
c-14 4 -26 12 -36 22c-17 17 -26 39 -26 64v420h55v-419c0 -9 3 -17 10 -24s15 -11 24 -11c13 0 22 5 29 15l46 -30c-9 -13 -19 -23 -32 -30l-26 -27c-7 -8 -20 -21 -26 -29c-7 -9 -16 -23 -19 -28c-5 -8 -8 -17 -8 -28c0 -7 1 -16 8 -25c4 -5 9 -10 19 -13c4 -1 9 -2 14 -2
c4 0 7 1 11 1c9 2 17 5 25 10z" />
    <glyph glyph-name="itilde" unicode="&#x129;" horiz-adv-x="237" 
d="M-73 613l-33 41c17 14 33 25 48 32s30 11 45 13h14c10 0 20 -1 31 -3c15 -4 31 -9 48 -16c14 -6 27 -10 38 -13c8 -2 15 -3 23 -3c3 0 6 0 9 1c10 1 20 4 31 9c10 5 21 13 33 23l34 -41c-32 -27 -63 -41 -93 -44h-7l-6 -1c-15 0 -29 2 -43 6s-27 9 -39 14
c-14 5 -26 9 -37 12c-9 2 -16 3 -24 3h-8c-10 -1 -20 -5 -31 -10c-10 -5 -21 -13 -33 -23zM98 500v-419c0 -9 3 -17 10 -24s15 -11 24 -11c13 0 22 5 29 15l46 -30c-9 -13 -19 -23 -32 -30c-13 -8 -28 -11 -43 -11c-25 0 -46 9 -63 26s-26 39 -26 64v420h55z" />
    <glyph glyph-name="j" unicode="j" horiz-adv-x="244" 
d="M133 708c24 0 43 -19 43 -43c0 -23 -19 -42 -43 -42c-23 0 -42 19 -42 42c0 24 19 43 42 43zM164 501v-671c0 -13 -2 -25 -7 -36s-11 -20 -19 -28s-17 -14 -28 -19s-23 -7 -35 -7c-15 0 -29 3 -42 10s-24 17 -33 30l46 30c7 -10 16 -15 29 -15c9 0 17 3 24 10
s10 16 10 25v671h55z" />
    <glyph glyph-name="dotlessj" unicode="&#x237;" horiz-adv-x="244" 
d="M164 501v-671c0 -13 -2 -25 -7 -36s-11 -20 -19 -28s-17 -14 -28 -19s-23 -7 -35 -7c-15 0 -29 3 -42 10s-24 17 -33 30l46 30c7 -10 16 -15 29 -15c9 0 17 3 24 10s10 16 10 25v671h55z" />
    <glyph glyph-name="jcaron" unicode="&#x1f0;" horiz-adv-x="244" 
d="M160 595h-49l-123 142h67l81 -89l80 89h68zM164 501v-671c0 -13 -2 -25 -7 -36s-11 -20 -19 -28s-17 -14 -28 -19s-23 -7 -35 -7c-15 0 -29 3 -42 10s-24 17 -33 30l46 30c7 -10 16 -15 29 -15c9 0 17 3 24 10s10 16 10 25v671h55z" />
    <glyph glyph-name="jcircumflex" unicode="&#x135;" horiz-adv-x="244" 
d="M284 605h-68l-80 89l-81 -89h-67l123 142h49zM164 501v-671c0 -13 -2 -25 -7 -36s-11 -20 -19 -28s-17 -14 -28 -19s-23 -7 -35 -7c-15 0 -29 3 -42 10s-24 17 -33 30l46 30c7 -10 16 -15 29 -15c9 0 17 3 24 10s10 16 10 25v671h55z" />
    <glyph glyph-name="k" unicode="k" horiz-adv-x="584" 
d="M109 727v-317c15 30 36 54 62 72c25 18 57 27 95 27c52 0 91 -13 118 -40s41 -63 42 -109c-1 -21 -4 -38 -9 -53s-11 -27 -19 -38s-17 -21 -28 -29s-23 -16 -37 -24l92 -147c7 -7 16 -11 25 -11s17 3 24 9s10 14 10 23l56 -3c-1 -23 -10 -43 -27 -60s-37 -26 -62 -26
c-15 0 -30 4 -43 11c-14 7 -25 18 -33 31l-96 158h-170v-200h-55v726h55zM111 253h116c34 0 60 4 79 13s32 18 40 27s14 19 19 30c4 11 7 24 9 40c-2 28 -11 51 -28 69c-17 19 -43 28 -80 28c-24 0 -46 -6 -65 -18s-36 -28 -49 -47s-23 -41 -30 -66s-11 -50 -11 -76z" />
    <glyph glyph-name="kcaron" unicode="&#x1e9;" horiz-adv-x="584" 
d="M289 603h-49l-123 142h67l81 -89l80 89h68zM109 727v-317c15 30 36 54 62 72c25 18 57 27 95 27c52 0 91 -13 118 -40s41 -63 42 -109c-1 -21 -4 -38 -9 -53s-11 -27 -19 -38s-17 -21 -28 -29s-23 -16 -37 -24l92 -147c7 -7 16 -11 25 -11s17 3 24 9s10 14 10 23l56 -3
c-1 -23 -10 -43 -27 -60s-37 -26 -62 -26c-15 0 -30 4 -43 11c-14 7 -25 18 -33 31l-96 158h-170v-200h-55v726h55zM111 253h116c34 0 60 4 79 13s32 18 40 27s14 19 19 30c4 11 7 24 9 40c-2 28 -11 51 -28 69c-17 19 -43 28 -80 28c-24 0 -46 -6 -65 -18s-36 -28 -49 -47
s-23 -41 -30 -66s-11 -50 -11 -76z" />
    <glyph glyph-name="kcommaaccent" unicode="&#x137;" horiz-adv-x="584" 
d="M109 727v-317c15 30 36 54 62 72c25 18 57 27 95 27c52 0 91 -13 118 -40s41 -63 42 -109c-1 -21 -4 -38 -9 -53s-11 -27 -19 -38s-17 -21 -28 -29s-23 -16 -37 -24l92 -147c7 -7 16 -11 25 -11s17 3 24 9s10 14 10 23l56 -3c-1 -23 -10 -43 -27 -60s-37 -26 -62 -26
c-15 0 -30 4 -43 11c-14 7 -25 18 -33 31l-96 158h-170v-200h-55v726h55zM111 253h116c34 0 60 4 79 13s32 18 40 27s14 19 19 30c4 11 7 24 9 40c-2 28 -11 51 -28 69c-17 19 -43 28 -80 28c-24 0 -46 -6 -65 -18s-36 -28 -49 -47s-23 -41 -30 -66s-11 -50 -11 -76z
M271 -285h-54l40 207h64z" />
    <glyph glyph-name="kgreenlandic" unicode="&#x138;" horiz-adv-x="530" 
d="M109 511v-101c15 30 36 54 62 72c25 18 57 27 95 27c52 0 91 -13 118 -40s41 -63 42 -109c-1 -21 -4 -38 -9 -53s-11 -27 -19 -38s-17 -21 -28 -29s-23 -16 -37 -24l92 -147c7 -7 16 -11 25 -11s17 3 24 9s10 14 10 23l56 -3c-1 -23 -10 -43 -27 -60s-37 -26 -62 -26
c-15 0 -30 4 -43 11c-14 7 -25 18 -33 31l-96 158h-170v-200h-55v510h55zM111 253h116c34 0 60 4 79 13s32 18 40 27s14 19 19 30c4 11 7 24 9 40c-2 28 -11 51 -28 69c-17 19 -43 28 -80 28c-24 0 -46 -6 -65 -18s-36 -28 -49 -47s-23 -41 -30 -66s-11 -50 -11 -76z" />
    <glyph glyph-name="l" unicode="l" horiz-adv-x="261" 
d="M108 726v-644c0 -9 3 -17 10 -25c7 -7 15 -11 24 -11c12 0 22 5 29 15l46 -30c-9 -13 -19 -22 -32 -29c-13 -9 -28 -12 -43 -12c-12 0 -23 2 -34 7c-11 6 -21 12 -29 20s-14 18 -19 28c-5 12 -7 23 -7 36v645h55z" />
    <glyph glyph-name="lacute" unicode="&#x13a;" horiz-adv-x="261" 
d="M248 903l-172 -110l-22 34l158 125zM108 726v-644c0 -9 3 -17 10 -25c7 -7 15 -11 24 -11c12 0 22 5 29 15l46 -30c-9 -13 -19 -22 -32 -29c-13 -9 -28 -12 -43 -12c-12 0 -23 2 -34 7c-11 6 -21 12 -29 20s-14 18 -19 28c-5 12 -7 23 -7 36v645h55z" />
    <glyph glyph-name="lcaron" unicode="&#x13e;" horiz-adv-x="261" 
d="M108 726v-644c0 -9 3 -17 10 -25c7 -7 15 -11 24 -11c12 0 22 5 29 15l46 -30c-9 -13 -19 -22 -32 -29c-13 -9 -28 -12 -43 -12c-12 0 -23 2 -34 7c-11 6 -21 12 -29 20s-14 18 -19 28c-5 12 -7 23 -7 36v645h55z" />
    <glyph glyph-name="lcommaaccent" unicode="&#x13c;" horiz-adv-x="261" 
d="M108 726v-644c0 -9 3 -17 10 -25c7 -7 15 -11 24 -11c12 0 22 5 29 15l46 -30c-9 -13 -19 -22 -32 -29c-13 -9 -28 -12 -43 -12c-12 0 -23 2 -34 7c-11 6 -21 12 -29 20s-14 18 -19 28c-5 12 -7 23 -7 36v645h55zM110 -285h-54l40 207h64z" />
    <glyph glyph-name="ldot" unicode="&#x140;" horiz-adv-x="261" 
d="M108 726v-644c0 -9 3 -17 10 -25c7 -7 15 -11 24 -11c12 0 22 5 29 15l46 -30c-9 -13 -19 -22 -32 -29c-13 -9 -28 -12 -43 -12c-12 0 -23 2 -34 7c-11 6 -21 12 -29 20s-14 18 -19 28c-5 12 -7 23 -7 36v645h55zM195 386c32 0 59 -27 59 -59c0 -33 -27 -60 -59 -60
c-33 0 -60 27 -60 60c0 32 27 59 60 59z" />
    <glyph glyph-name="lj" unicode="&#x1c9;" horiz-adv-x="445" 
d="M108 726v-644c0 -9 3 -17 10 -25c7 -7 15 -11 24 -11c12 0 22 5 29 15l46 -30c-9 -13 -19 -22 -32 -29c-13 -9 -28 -12 -43 -12c-12 0 -23 2 -34 7c-11 6 -21 12 -29 20s-14 18 -19 28c-5 12 -7 23 -7 36v645h55zM334 708c24 0 43 -19 43 -43c0 -23 -19 -42 -43 -42
c-23 0 -42 19 -42 42c0 24 19 43 42 43zM365 501v-671c0 -13 -2 -25 -7 -36s-11 -20 -19 -28s-17 -14 -28 -19s-23 -7 -35 -7c-15 0 -29 3 -42 10s-24 17 -33 30l46 30c7 -10 16 -15 29 -15c9 0 17 3 24 10s10 16 10 25v671h55z" />
    <glyph glyph-name="lslash" unicode="&#x142;" horiz-adv-x="315" 
d="M211 61l46 -29c-9 -13 -19 -23 -32 -30c-13 -8 -28 -11 -43 -11c-12 0 -23 2 -34 7s-21 11 -29 19s-14 18 -19 29c-5 12 -7 23 -7 36v278l-68 -42v63l68 42v304h55v-269l67 42v-64l-67 -42v-312c0 -9 3 -17 10 -25c7 -7 15 -11 24 -11c12 0 22 5 29 15z" />
    <glyph glyph-name="m" unicode="m" horiz-adv-x="896" 
d="M47 472l34 34c15 -11 27 -24 36 -40c8 -15 14 -32 18 -49c18 31 41 54 68 69s56 22 88 22c33 0 61 -7 86 -22s43 -39 54 -71c19 32 43 56 71 70c27 16 55 23 83 23c48 0 86 -14 115 -41s43 -66 43 -116v-272c0 -9 4 -17 11 -24s15 -11 24 -11c11 0 21 5 29 15l45 -30
c-9 -13 -19 -22 -32 -30c-13 -7 -27 -10 -42 -10c-25 0 -47 9 -64 26s-26 39 -26 64v271c-2 37 -11 64 -28 81s-42 25 -74 25c-61 0 -109 -33 -144 -99v-357h-55v336c0 42 -9 73 -26 92c-18 20 -43 29 -76 29c-13 0 -27 -2 -41 -7s-27 -11 -40 -20s-25 -19 -36 -31
s-19 -26 -26 -41v-358h-55v353c0 53 -13 92 -40 119z" />
    <glyph glyph-name="n" unicode="n" 
d="M30 472l34 34c16 -11 28 -25 37 -42s15 -34 18 -51c43 63 100 95 169 95c57 0 98 -13 125 -38c26 -25 40 -61 43 -108v-285c0 -9 4 -17 11 -24s15 -11 24 -11c11 0 21 5 29 15l45 -30c-9 -13 -19 -22 -32 -30c-13 -7 -27 -10 -42 -10c-25 0 -47 9 -64 26s-26 39 -26 64
v259c0 42 -9 73 -28 92c-19 20 -47 29 -85 29c-36 0 -66 -9 -91 -27s-49 -43 -72 -75v-355h-55v353c0 53 -13 92 -40 119z" />
    <glyph glyph-name="nacute" unicode="&#x144;" 
d="M454 685l-172 -110l-22 34l158 125zM30 472l34 34c16 -11 28 -25 37 -42s15 -34 18 -51c43 63 100 95 169 95c57 0 98 -13 125 -38c26 -25 40 -61 43 -108v-285c0 -9 4 -17 11 -24s15 -11 24 -11c11 0 21 5 29 15l45 -30c-9 -13 -19 -22 -32 -30c-13 -7 -27 -10 -42 -10
c-25 0 -47 9 -64 26s-26 39 -26 64v259c0 42 -9 73 -28 92c-19 20 -47 29 -85 29c-36 0 -66 -9 -91 -27s-49 -43 -72 -75v-355h-55v353c0 53 -13 92 -40 119z" />
    <glyph glyph-name="napostrophe" unicode="&#x149;" 
d="M536 598v60c0 9 3 17 9 24c6 6 14 9 23 9s17 -3 23 -9c6 -7 9 -15 9 -24v-60c0 -28 -5 -56 -16 -83c-11 -28 -29 -51 -54 -69l-34 33c27 27 40 66 40 119zM30 472l34 34c16 -11 28 -25 37 -42s15 -34 18 -51c43 63 100 95 169 95c57 0 98 -13 125 -38
c26 -25 40 -61 43 -108v-285c0 -9 4 -17 11 -24s15 -11 24 -11c11 0 21 5 29 15l45 -30c-9 -13 -19 -22 -32 -30c-13 -7 -27 -10 -42 -10c-25 0 -47 9 -64 26s-26 39 -26 64v259c0 42 -9 73 -28 92c-19 20 -47 29 -85 29c-36 0 -66 -9 -91 -27s-49 -43 -72 -75v-355h-55v353
c0 53 -13 92 -40 119z" />
    <glyph glyph-name="ncaron" unicode="&#x148;" 
d="M312 603h-49l-123 142h67l81 -89l80 89h68zM30 472l34 34c16 -11 28 -25 37 -42s15 -34 18 -51c43 63 100 95 169 95c57 0 98 -13 125 -38c26 -25 40 -61 43 -108v-285c0 -9 4 -17 11 -24s15 -11 24 -11c11 0 21 5 29 15l45 -30c-9 -13 -19 -22 -32 -30
c-13 -7 -27 -10 -42 -10c-25 0 -47 9 -64 26s-26 39 -26 64v259c0 42 -9 73 -28 92c-19 20 -47 29 -85 29c-36 0 -66 -9 -91 -27s-49 -43 -72 -75v-355h-55v353c0 53 -13 92 -40 119z" />
    <glyph glyph-name="ncommaaccent" unicode="&#x146;" 
d="M30 472l34 34c16 -11 28 -25 37 -42s15 -34 18 -51c43 63 100 95 169 95c57 0 98 -13 125 -38c26 -25 40 -61 43 -108v-285c0 -9 4 -17 11 -24s15 -11 24 -11c11 0 21 5 29 15l45 -30c-9 -13 -19 -22 -32 -30c-13 -7 -27 -10 -42 -10c-25 0 -47 9 -64 26s-26 39 -26 64
v259c0 42 -9 73 -28 92c-19 20 -47 29 -85 29c-36 0 -66 -9 -91 -27s-49 -43 -72 -75v-355h-55v353c0 53 -13 92 -40 119zM251 -285h-54l40 207h64z" />
    <glyph glyph-name="uni01F9" unicode="&#x1f9;" 
d="M321 609l-22 -34l-172 110l36 49zM30 472l34 34c16 -11 28 -25 37 -42s15 -34 18 -51c43 63 100 95 169 95c57 0 98 -13 125 -38c26 -25 40 -61 43 -108v-285c0 -9 4 -17 11 -24s15 -11 24 -11c11 0 21 5 29 15l45 -30c-9 -13 -19 -22 -32 -30c-13 -7 -27 -10 -42 -10
c-25 0 -47 9 -64 26s-26 39 -26 64v259c0 42 -9 73 -28 92c-19 20 -47 29 -85 29c-36 0 -66 -9 -91 -27s-49 -43 -72 -75v-355h-55v353c0 53 -13 92 -40 119z" />
    <glyph glyph-name="eng" unicode="&#x14b;" horiz-adv-x="600" 
 />
    <glyph glyph-name="nj" unicode="&#x1cc;" horiz-adv-x="793" 
d="M682 708c24 0 43 -19 43 -43c0 -23 -19 -42 -43 -42c-23 0 -42 19 -42 42c0 24 19 43 42 43zM30 472l34 33c16 -11 28 -25 37 -41c9 -17 15 -34 18 -51c43 63 100 95 169 95c57 0 98 -13 125 -38c26 -25 40 -61 43 -108v-285c0 -9 4 -17 11 -24s15 -11 24 -11
c11 0 21 5 29 15l45 -30c-9 -13 -19 -22 -32 -30c-13 -7 -27 -10 -42 -10c-25 0 -47 9 -64 26s-26 39 -26 64v259c0 42 -9 73 -28 92s-47 28 -85 28c-36 0 -66 -9 -91 -26c-25 -18 -49 -43 -72 -75v-355h-55v353c0 53 -13 92 -40 119zM713 501v-671c0 -13 -2 -25 -7 -36
s-11 -20 -19 -28s-17 -14 -28 -19s-23 -7 -35 -7c-15 0 -29 3 -42 10s-24 17 -33 30l46 30c7 -10 16 -15 29 -15c9 0 17 3 24 10s10 16 10 25v671h55z" />
    <glyph glyph-name="ntilde" unicode="&#xf1;" 
d="M144 621l-33 41c17 14 33 25 48 32s30 11 45 13h14c10 0 20 -1 31 -3c15 -4 31 -9 48 -16c14 -6 27 -10 38 -13c8 -2 15 -3 23 -3c3 0 6 0 9 1c10 1 20 4 31 9c10 5 21 13 33 23l34 -41c-32 -27 -63 -41 -93 -44h-7l-6 -1c-15 0 -29 2 -43 6s-27 9 -39 14
c-14 5 -26 9 -37 12c-9 2 -16 3 -24 3h-8c-10 -1 -20 -5 -30 -10c-11 -5 -22 -13 -34 -23zM30 472l34 33c16 -11 28 -25 37 -41c9 -17 15 -34 18 -51c43 63 100 95 169 95c57 0 98 -13 125 -38c26 -25 40 -61 43 -108v-285c0 -9 4 -17 11 -24s15 -11 24 -11c11 0 21 5 29 15
l45 -30c-9 -13 -19 -22 -32 -30c-13 -7 -27 -10 -42 -10c-25 0 -47 9 -64 26s-26 39 -26 64v259c0 42 -9 73 -28 92s-47 28 -85 28c-36 0 -66 -9 -91 -26c-25 -18 -49 -43 -72 -75v-355h-55v353c0 53 -13 92 -40 119z" />
    <glyph glyph-name="o" unicode="o" 
d="M290 508v2c37 0 70 -6 101 -19s57 -31 79 -55c21 -23 38 -51 50 -82c12 -32 18 -66 18 -103c0 -56 -6 -72 -18 -104s-29 -59 -50 -83c-22 -23 -48 -41 -79 -54c-31 -15 -64 -21 -101 -21s-71 6 -102 20c-31 13 -57 31 -78 53c-22 24 -39 51 -51 82s-18 66 -18 103
s6 71 18 103s29 60 51 83c21 23 47 42 78 55s65 20 102 20zM290 458v-1c-29 0 -56 -5 -79 -15s-43 -24 -60 -42s-30 -40 -39 -65s-14 -53 -14 -84s5 -60 14 -86s22 -48 39 -66s37 -32 60 -42s50 -15 79 -15s55 5 79 16c23 11 43 25 60 43c17 19 30 41 39 67s13 55 13 86
c0 46 -4 58 -13 83s-22 47 -39 65s-37 32 -60 41c-24 10 -50 15 -79 15z" />
    <glyph glyph-name="oacute" unicode="&#xf3;" 
d="M456 685l-172 -110l-22 34l158 125zM290 508v2c37 0 70 -6 101 -19s57 -31 79 -55c21 -23 38 -51 50 -82c12 -32 18 -66 18 -103c0 -56 -6 -72 -18 -104s-29 -59 -50 -83c-22 -23 -48 -41 -79 -54c-31 -15 -64 -21 -101 -21s-71 6 -102 20c-31 13 -57 31 -78 53
c-22 24 -39 51 -51 82s-18 66 -18 103s6 71 18 103s29 60 51 83c21 23 47 42 78 55s65 20 102 20zM290 458v-1c-29 0 -56 -5 -79 -15s-43 -24 -60 -42s-30 -40 -39 -65s-14 -53 -14 -84s5 -60 14 -86s22 -48 39 -66s37 -32 60 -42s50 -15 79 -15s55 5 79 16
c23 11 43 25 60 43c17 19 30 41 39 67s13 55 13 86c0 46 -4 58 -13 83s-22 47 -39 65s-37 32 -60 41c-24 10 -50 15 -79 15z" />
    <glyph glyph-name="obreve" unicode="&#x14f;" 
d="M370 737h61c-1 -40 -13 -73 -36 -98c-23 -26 -58 -39 -106 -39c-47 0 -82 13 -105 39c-23 25 -36 58 -37 98h61c1 -25 8 -45 21 -60c12 -15 32 -23 60 -23c30 0 51 8 63 23c11 15 17 35 18 60zM290 508v2c37 0 70 -6 101 -19s57 -31 79 -55c21 -23 38 -51 50 -82
c12 -32 18 -66 18 -103c0 -56 -6 -72 -18 -104s-29 -59 -50 -83c-22 -23 -48 -41 -79 -54c-31 -15 -64 -21 -101 -21s-71 6 -102 20c-31 13 -57 31 -78 53c-22 24 -39 51 -51 82s-18 66 -18 103s6 71 18 103s29 60 51 83c21 23 47 42 78 55s65 20 102 20zM290 458v-1
c-29 0 -56 -5 -79 -15s-43 -24 -60 -42s-30 -40 -39 -65s-14 -53 -14 -84s5 -60 14 -86s22 -48 39 -66s37 -32 60 -42s50 -15 79 -15s55 5 79 16c23 11 43 25 60 43c17 19 30 41 39 67s13 55 13 86c0 46 -4 58 -13 83s-22 47 -39 65s-37 32 -60 41c-24 10 -50 15 -79 15z
" />
    <glyph glyph-name="ocaron" unicode="&#x1d2;" 
d="M314 603h-49l-123 142h67l81 -89l80 89h68zM290 508v2c37 0 70 -6 101 -19s57 -31 79 -55c21 -23 38 -51 50 -82c12 -32 18 -66 18 -103c0 -56 -6 -72 -18 -104s-29 -59 -50 -83c-22 -23 -48 -41 -79 -54c-31 -15 -64 -21 -101 -21s-71 6 -102 20c-31 13 -57 31 -78 53
c-22 24 -39 51 -51 82s-18 66 -18 103s6 71 18 103s29 60 51 83c21 23 47 42 78 55s65 20 102 20zM290 458v-1c-29 0 -56 -5 -79 -15s-43 -24 -60 -42s-30 -40 -39 -65s-14 -53 -14 -84s5 -60 14 -86s22 -48 39 -66s37 -32 60 -42s50 -15 79 -15s55 5 79 16
c23 11 43 25 60 43c17 19 30 41 39 67s13 55 13 86c0 46 -4 58 -13 83s-22 47 -39 65s-37 32 -60 41c-24 10 -50 15 -79 15z" />
    <glyph glyph-name="ocircumflex" unicode="&#xf4;" 
d="M438 613h-68l-80 89l-81 -89h-67l123 142h49zM290 508v2c37 0 70 -6 101 -19s57 -31 79 -55c21 -23 38 -51 50 -82c12 -32 18 -66 18 -103c0 -56 -6 -72 -18 -104s-29 -59 -50 -83c-22 -23 -48 -41 -79 -54c-31 -15 -64 -21 -101 -21s-71 6 -102 20c-31 13 -57 31 -78 53
c-22 24 -39 51 -51 82s-18 66 -18 103s6 71 18 103s29 60 51 83c21 23 47 42 78 55s65 20 102 20zM290 458v-1c-29 0 -56 -5 -79 -15s-43 -24 -60 -42s-30 -40 -39 -65s-14 -53 -14 -84s5 -60 14 -86s22 -48 39 -66s37 -32 60 -42s50 -15 79 -15s55 5 79 16
c23 11 43 25 60 43c17 19 30 41 39 67s13 55 13 86c0 46 -4 58 -13 83s-22 47 -39 65s-37 32 -60 41c-24 10 -50 15 -79 15z" />
    <glyph glyph-name="ocircumflexacute" unicode="&#x1ed1;" 
d="M456 905l-172 -110l-22 34l158 125zM438 613h-68l-80 89l-81 -89h-67l123 142h49zM290 508v2c37 0 70 -6 101 -19s57 -31 79 -55c21 -23 38 -51 50 -82c12 -32 18 -66 18 -103c0 -56 -6 -72 -18 -104s-29 -59 -50 -83c-22 -23 -48 -41 -79 -54c-31 -15 -64 -21 -101 -21
s-71 6 -102 20c-31 13 -57 31 -78 53c-22 24 -39 51 -51 82s-18 66 -18 103s6 71 18 103s29 60 51 83c21 23 47 42 78 55s65 20 102 20zM290 458v-1c-29 0 -56 -5 -79 -15s-43 -24 -60 -42s-30 -40 -39 -65s-14 -53 -14 -84s5 -60 14 -86s22 -48 39 -66s37 -32 60 -42
s50 -15 79 -15s55 5 79 16c23 11 43 25 60 43c17 19 30 41 39 67s13 55 13 86c0 46 -4 58 -13 83s-22 47 -39 65s-37 32 -60 41c-24 10 -50 15 -79 15z" />
    <glyph glyph-name="ocircumflexgrave" unicode="&#x1ed3;" 
d="M323 839l-22 -34l-172 110l36 49zM438 613h-68l-80 89l-81 -89h-67l123 142h49zM290 508v2c37 0 70 -6 101 -19s57 -31 79 -55c21 -23 38 -51 50 -82c12 -32 18 -66 18 -103c0 -56 -6 -72 -18 -104s-29 -59 -50 -83c-22 -23 -48 -41 -79 -54c-31 -15 -64 -21 -101 -21
s-71 6 -102 20c-31 13 -57 31 -78 53c-22 24 -39 51 -51 82s-18 66 -18 103s6 71 18 103s29 60 51 83c21 23 47 42 78 55s65 20 102 20zM290 458v-1c-29 0 -56 -5 -79 -15s-43 -24 -60 -42s-30 -40 -39 -65s-14 -53 -14 -84s5 -60 14 -86s22 -48 39 -66s37 -32 60 -42
s50 -15 79 -15s55 5 79 16c23 11 43 25 60 43c17 19 30 41 39 67s13 55 13 86c0 46 -4 58 -13 83s-22 47 -39 65s-37 32 -60 41c-24 10 -50 15 -79 15z" />
    <glyph glyph-name="ocircumflextilde" unicode="&#x1ed7;" 
d="M146 801l-33 41c17 14 33 25 48 32s30 11 45 13h14c10 0 20 -1 31 -3c15 -4 31 -9 48 -16c14 -6 27 -10 38 -13c8 -2 15 -3 23 -3c3 0 6 0 9 1c10 1 20 4 31 9c10 5 21 13 33 23l34 -41c-32 -27 -63 -41 -93 -44h-7l-6 -1c-15 0 -29 2 -43 6s-27 9 -39 14
c-14 5 -26 9 -37 12c-9 2 -16 3 -24 3h-8c-10 -1 -20 -5 -30 -10c-11 -5 -22 -13 -34 -23zM438 613h-68l-80 89l-81 -89h-67l123 142h49zM290 508v2c37 0 70 -6 101 -19s57 -31 79 -55c21 -23 38 -51 50 -82c12 -32 18 -66 18 -103c0 -56 -6 -72 -18 -104s-29 -59 -50 -83
c-22 -23 -48 -41 -79 -54c-31 -15 -64 -21 -101 -21s-71 6 -102 20c-31 13 -57 31 -78 53c-22 24 -39 51 -51 82s-18 66 -18 103s6 71 18 103s29 60 51 83c21 23 47 42 78 55s65 20 102 20zM290 458v-1c-29 0 -56 -5 -79 -15s-43 -24 -60 -42s-30 -40 -39 -65
s-14 -53 -14 -84s5 -60 14 -86s22 -48 39 -66s37 -32 60 -42s50 -15 79 -15s55 5 79 16c23 11 43 25 60 43c17 19 30 41 39 67s13 55 13 86c0 46 -4 58 -13 83s-22 47 -39 65s-37 32 -60 41c-24 10 -50 15 -79 15z" />
    <glyph glyph-name="odieresis" unicode="&#xf6;" 
d="M178 625c-23 0 -42 19 -42 42c0 24 19 43 42 43c24 0 43 -19 43 -43c0 -23 -19 -42 -43 -42zM400 625c-23 0 -42 19 -42 42c0 24 19 43 42 43c24 0 43 -19 43 -43c0 -23 -19 -42 -43 -42zM290 508v2c37 0 70 -6 101 -19s57 -31 79 -55c21 -23 38 -51 50 -82
c12 -32 18 -66 18 -103c0 -56 -6 -72 -18 -104s-29 -59 -50 -83c-22 -23 -48 -41 -79 -54c-31 -15 -64 -21 -101 -21s-71 6 -102 20c-31 13 -57 31 -78 53c-22 24 -39 51 -51 82s-18 66 -18 103s6 71 18 103s29 60 51 83c21 23 47 42 78 55s65 20 102 20zM290 458v-1
c-29 0 -56 -5 -79 -15s-43 -24 -60 -42s-30 -40 -39 -65s-14 -53 -14 -84s5 -60 14 -86s22 -48 39 -66s37 -32 60 -42s50 -15 79 -15s55 5 79 16c23 11 43 25 60 43c17 19 30 41 39 67s13 55 13 86c0 46 -4 58 -13 83s-22 47 -39 65s-37 32 -60 41c-24 10 -50 15 -79 15z
" />
    <glyph glyph-name="uni022B" unicode="&#x22b;" 
d="M373 635h-167c-8 -6 -17 -10 -28 -10c-10 0 -20 4 -27 10h-24v57h17c7 11 20 18 34 18c15 0 27 -7 35 -18h153c7 11 20 18 34 18c15 0 27 -7 35 -18h18v-57h-25c-8 -6 -17 -10 -28 -10c-10 0 -20 4 -27 10zM290 508v2c37 0 70 -6 101 -19s57 -31 79 -55
c21 -23 38 -51 50 -82c12 -32 18 -66 18 -103c0 -56 -6 -72 -18 -104s-29 -59 -50 -83c-22 -23 -48 -41 -79 -54c-31 -15 -64 -21 -101 -21s-71 6 -102 20c-31 13 -57 31 -78 53c-22 24 -39 51 -51 82s-18 66 -18 103s6 71 18 103s29 60 51 83c21 23 47 42 78 55
s65 20 102 20zM290 458v-1c-29 0 -56 -5 -79 -15s-43 -24 -60 -42s-30 -40 -39 -65s-14 -53 -14 -84s5 -60 14 -86s22 -48 39 -66s37 -32 60 -42s50 -15 79 -15s55 5 79 16c23 11 43 25 60 43c17 19 30 41 39 67s13 55 13 86c0 46 -4 58 -13 83s-22 47 -39 65s-37 32 -60 41
c-24 10 -50 15 -79 15z" />
    <glyph glyph-name="odotbelow" unicode="&#x1ecd;" 
d="M290 508v2c37 0 70 -6 101 -19s57 -31 79 -55c21 -23 38 -51 50 -82c12 -32 18 -66 18 -103c0 -56 -6 -72 -18 -104s-29 -59 -50 -83c-22 -23 -48 -41 -79 -54c-31 -15 -64 -21 -101 -21s-71 6 -102 20c-31 13 -57 31 -78 53c-22 24 -39 51 -51 82s-18 66 -18 103
s6 71 18 103s29 60 51 83c21 23 47 42 78 55s65 20 102 20zM290 458v-1c-29 0 -56 -5 -79 -15s-43 -24 -60 -42s-30 -40 -39 -65s-14 -53 -14 -84s5 -60 14 -86s22 -48 39 -66s37 -32 60 -42s50 -15 79 -15s55 5 79 16c23 11 43 25 60 43c17 19 30 41 39 67s13 55 13 86
c0 46 -4 58 -13 83s-22 47 -39 65s-37 32 -60 41c-24 10 -50 15 -79 15zM287 -111c12 0 22 -4 30 -12s12 -18 12 -30c0 -11 -4 -21 -12 -29s-18 -12 -30 -12c-17 0 -21 4 -29 12s-12 18 -12 29c0 12 4 22 12 30s18 12 29 12z" />
    <glyph glyph-name="ograve" unicode="&#xf2;" 
d="M323 609l-22 -34l-172 110l36 49zM290 508v2c37 0 70 -6 101 -19s57 -31 79 -55c21 -23 38 -51 50 -82c12 -32 18 -66 18 -103c0 -56 -6 -72 -18 -104s-29 -59 -50 -83c-22 -23 -48 -41 -79 -54c-31 -15 -64 -21 -101 -21s-71 6 -102 20c-31 13 -57 31 -78 53
c-22 24 -39 51 -51 82s-18 66 -18 103s6 71 18 103s29 60 51 83c21 23 47 42 78 55s65 20 102 20zM290 458v-1c-29 0 -56 -5 -79 -15s-43 -24 -60 -42s-30 -40 -39 -65s-14 -53 -14 -84s5 -60 14 -86s22 -48 39 -66s37 -32 60 -42s50 -15 79 -15s55 5 79 16
c23 11 43 25 60 43c17 19 30 41 39 67s13 55 13 86c0 46 -4 58 -13 83s-22 47 -39 65s-37 32 -60 41c-24 10 -50 15 -79 15z" />
    <glyph glyph-name="ohorn" unicode="&#x1a1;" 
d="M552 451l23 44c15 -7 61 -31 61 -90c0 -67 -59 -93 -103 -97c3 -19 5 -37 5 -57c0 -56 -6 -72 -18 -104s-29 -59 -50 -83c-22 -23 -48 -41 -79 -54c-31 -15 -64 -21 -101 -21s-71 6 -102 20c-31 13 -57 31 -78 53c-22 24 -39 51 -51 82s-18 66 -18 103s6 71 18 103
s29 60 51 83c21 23 47 42 78 55s65 20 102 20v2c37 0 70 -6 101 -19s57 -31 79 -55c21 -23 37 -50 49 -80l8 -1c25 0 58 15 58 50c0 27 -19 37 -33 46zM290 458v-1c-29 0 -56 -5 -79 -15s-43 -24 -60 -42s-30 -40 -39 -65s-14 -53 -14 -84s5 -60 14 -86s22 -48 39 -66
s37 -32 60 -42s50 -15 79 -15s55 5 79 16c23 11 43 25 60 43c17 19 30 41 39 67s13 55 13 86c0 46 -4 58 -13 83s-22 47 -39 65s-37 32 -60 41c-24 10 -50 15 -79 15z" />
    <glyph glyph-name="ohungarumlaut" unicode="&#x151;" 
d="M344 720l-151 -125l-39 36l152 126zM536 720l-153 -125l-39 36l151 126zM290 508v2c37 0 70 -6 101 -19s57 -31 79 -55c21 -23 38 -51 50 -82c12 -32 18 -66 18 -103c0 -56 -6 -72 -18 -104s-29 -59 -50 -83c-22 -23 -48 -41 -79 -54c-31 -15 -64 -21 -101 -21
s-71 6 -102 20c-31 13 -57 31 -78 53c-22 24 -39 51 -51 82s-18 66 -18 103s6 71 18 103s29 60 51 83c21 23 47 42 78 55s65 20 102 20zM290 458v-1c-29 0 -56 -5 -79 -15s-43 -24 -60 -42s-30 -40 -39 -65s-14 -53 -14 -84s5 -60 14 -86s22 -48 39 -66s37 -32 60 -42
s50 -15 79 -15s55 5 79 16c23 11 43 25 60 43c17 19 30 41 39 67s13 55 13 86c0 46 -4 58 -13 83s-22 47 -39 65s-37 32 -60 41c-24 10 -50 15 -79 15z" />
    <glyph glyph-name="oinvertedbreve" unicode="&#x20f;" 
d="M432 568h-61c-1 25 -7 45 -18 60c-12 15 -33 23 -63 23c-28 0 -48 -8 -60 -23c-13 -15 -20 -35 -21 -60h-61c1 40 14 73 37 99c23 25 58 38 105 38c48 0 83 -13 106 -38c23 -26 35 -59 36 -99zM290 508c37 0 70 -6 101 -19s57 -31 79 -54c21 -23 38 -51 50 -82
c12 -32 18 -66 18 -103c0 -56 -6 -72 -18 -104s-29 -59 -50 -82c-22 -23 -48 -41 -79 -54c-31 -14 -64 -20 -101 -20s-71 6 -102 19s-57 31 -78 54c-22 23 -39 50 -51 81s-18 66 -18 103s6 71 18 103s29 60 51 83c21 23 47 42 78 55s65 20 102 20zM290 456
c-29 0 -56 -5 -79 -15s-43 -24 -60 -42s-30 -40 -39 -65s-14 -53 -14 -84s5 -60 14 -85c9 -26 22 -48 39 -66s37 -32 60 -42s50 -15 79 -15s55 5 79 16c23 10 43 24 60 43c17 18 30 40 39 66c9 25 13 54 13 85c0 46 -4 59 -13 84s-22 46 -39 64s-37 32 -60 42
c-24 9 -50 14 -79 14z" />
    <glyph glyph-name="omacron" unicode="&#x14d;" 
d="M453 635h-326v57h326v-57zM290 508v2c37 0 70 -6 101 -19s57 -31 79 -55c21 -23 38 -51 50 -82c12 -32 18 -66 18 -103c0 -56 -6 -72 -18 -104s-29 -59 -50 -83c-22 -23 -48 -41 -79 -54c-31 -15 -64 -21 -101 -21s-71 6 -102 20c-31 13 -57 31 -78 53
c-22 24 -39 51 -51 82s-18 66 -18 103s6 71 18 103s29 60 51 83c21 23 47 42 78 55s65 20 102 20zM290 458v-1c-29 0 -56 -5 -79 -15s-43 -24 -60 -42s-30 -40 -39 -65s-14 -53 -14 -84s5 -60 14 -86s22 -48 39 -66s37 -32 60 -42s50 -15 79 -15s55 5 79 16
c23 11 43 25 60 43c17 19 30 41 39 67s13 55 13 86c0 46 -4 58 -13 83s-22 47 -39 65s-37 32 -60 41c-24 10 -50 15 -79 15z" />
    <glyph glyph-name="oogonek" unicode="&#x1eb;" 
d="M433 33l-19 -20c-7 -8 -20 -21 -26 -29c-7 -9 -16 -23 -19 -28c-5 -8 -8 -17 -8 -28c0 -7 1 -16 8 -25c4 -5 9 -10 19 -13c4 -1 9 -2 14 -2c4 0 7 1 11 1c9 2 17 5 25 10l17 10l25 -45c-12 -9 -27 -16 -43 -21s-33 -8 -47 -8c-21 0 -43 6 -62 25c-16 16 -24 37 -24 63
c0 13 2 27 8 39c2 4 10 20 18 30c-13 -2 -26 -3 -40 -3c-37 0 -71 6 -102 20c-31 13 -57 31 -78 53c-22 24 -39 51 -51 82s-18 66 -18 103s6 71 18 103s29 60 51 83c21 23 47 42 78 55s65 20 102 20v2c37 0 70 -6 101 -19s57 -31 79 -55c21 -23 38 -51 50 -82
c12 -32 18 -66 18 -103c0 -56 -6 -72 -18 -104s-29 -59 -50 -83c-11 -12 -24 -22 -37 -31zM290 458v-1c-29 0 -56 -5 -79 -15s-43 -24 -60 -42s-30 -40 -39 -65s-14 -53 -14 -84s5 -60 14 -86s22 -48 39 -66s37 -32 60 -42s50 -15 79 -15s55 5 79 16c23 11 43 25 60 43
c17 19 30 41 39 67s13 55 13 86c0 46 -4 58 -13 83s-22 47 -39 65s-37 32 -60 41c-24 10 -50 15 -79 15z" />
    <glyph glyph-name="oogonekmacron" unicode="&#x1ed;" 
d="M453 635h-326v57h326v-57zM433 33l-19 -20c-7 -8 -20 -21 -26 -29c-7 -9 -16 -23 -19 -28c-5 -8 -8 -17 -8 -28c0 -7 1 -16 8 -25c4 -5 9 -10 19 -13c4 -1 9 -2 14 -2c4 0 7 1 11 1c9 2 17 5 25 10l17 10l25 -45c-12 -9 -27 -16 -43 -21s-33 -8 -47 -8
c-21 0 -43 6 -62 25c-16 16 -24 37 -24 63c0 13 2 27 8 39c2 4 10 20 18 30c-13 -2 -26 -3 -40 -3c-37 0 -71 6 -102 20c-31 13 -57 31 -78 53c-22 24 -39 51 -51 82s-18 66 -18 103s6 71 18 103s29 60 51 83c21 23 47 42 78 55s65 20 102 20v2c37 0 70 -6 101 -19
s57 -31 79 -55c21 -23 38 -51 50 -82c12 -32 18 -66 18 -103c0 -56 -6 -72 -18 -104s-29 -59 -50 -83c-11 -12 -24 -22 -37 -31zM290 458v-1c-29 0 -56 -5 -79 -15s-43 -24 -60 -42s-30 -40 -39 -65s-14 -53 -14 -84s5 -60 14 -86s22 -48 39 -66s37 -32 60 -42
s50 -15 79 -15s55 5 79 16c23 11 43 25 60 43c17 19 30 41 39 67s13 55 13 86c0 46 -4 58 -13 83s-22 47 -39 65s-37 32 -60 41c-24 10 -50 15 -79 15z" />
    <glyph glyph-name="oslash" unicode="&#xf8;" 
d="M479 489l-27 -38c28 -23 49 -52 64 -86c15 -35 22 -73 22 -115c0 -56 -6 -72 -18 -104s-29 -59 -50 -82c-22 -23 -48 -41 -79 -54c-31 -14 -64 -20 -101 -20c-23 0 -44 2 -63 7c-20 5 -39 11 -56 20l-22 -38l-49 30l26 37c-28 23 -49 52 -63 87c-15 34 -22 72 -22 114
c0 37 6 71 18 103s29 60 51 83c21 23 47 42 78 55s65 20 102 20c22 0 43 -2 62 -7s38 -11 55 -20l23 38zM153 91l225 348c-45 17 -59 17 -88 17s-56 -5 -79 -15s-43 -24 -60 -42s-30 -40 -39 -65s-14 -53 -14 -84c0 -69 18 -122 55 -159zM426 407l-225 -348
c26 -11 56 -17 89 -17c43 0 55 5 79 16c23 10 43 24 60 43c17 18 30 40 39 66c9 25 13 54 13 85c0 69 -18 120 -55 155z" />
    <glyph glyph-name="oslashacute" unicode="&#x1ff;" 
d="M449 677l-172 -110l-22 34l158 125zM479 489l-27 -38c28 -23 49 -52 64 -86c15 -35 22 -73 22 -115c0 -56 -6 -72 -18 -104s-29 -59 -50 -82c-22 -23 -48 -41 -79 -54c-31 -14 -64 -20 -101 -20c-23 0 -44 2 -63 7c-20 5 -39 11 -56 20l-22 -38l-49 30l26 37
c-28 23 -49 52 -63 87c-15 34 -22 72 -22 114c0 37 6 71 18 103s29 60 51 83c21 23 47 42 78 55s65 20 102 20c22 0 43 -2 62 -7s38 -11 55 -20l23 38zM153 91l225 348c-45 17 -59 17 -88 17s-56 -5 -79 -15s-43 -24 -60 -42s-30 -40 -39 -65s-14 -53 -14 -84
c0 -69 18 -122 55 -159zM426 407l-225 -348c26 -11 56 -17 89 -17c43 0 55 5 79 16c23 10 43 24 60 43c17 18 30 40 39 66c9 25 13 54 13 85c0 69 -18 120 -55 155z" />
    <glyph glyph-name="otilde" unicode="&#xf5;" 
d="M146 621l-33 41c17 14 33 25 48 32s30 11 45 13h14c10 0 20 -1 31 -3c15 -4 31 -9 48 -16c14 -6 27 -10 38 -13c8 -2 15 -3 23 -3c3 0 6 0 9 1c10 1 20 4 31 9c10 5 21 13 33 23l34 -41c-32 -27 -63 -41 -93 -44h-7l-6 -1c-15 0 -29 2 -43 6s-27 9 -39 14
c-14 5 -26 9 -37 12c-9 2 -16 3 -24 3h-8c-10 -1 -20 -5 -30 -10c-11 -5 -22 -13 -34 -23zM290 508v2c37 0 70 -6 101 -19s57 -31 79 -55c21 -23 38 -51 50 -82c12 -32 18 -66 18 -103c0 -56 -6 -72 -18 -104s-29 -59 -50 -83c-22 -23 -48 -41 -79 -54
c-31 -15 -64 -21 -101 -21s-71 6 -102 20c-31 13 -57 31 -78 53c-22 24 -39 51 -51 82s-18 66 -18 103s6 71 18 103s29 60 51 83c21 23 47 42 78 55s65 20 102 20zM290 458v-1c-29 0 -56 -5 -79 -15s-43 -24 -60 -42s-30 -40 -39 -65s-14 -53 -14 -84s5 -60 14 -86
s22 -48 39 -66s37 -32 60 -42s50 -15 79 -15s55 5 79 16c23 11 43 25 60 43c17 19 30 41 39 67s13 55 13 86c0 46 -4 58 -13 83s-22 47 -39 65s-37 32 -60 41c-24 10 -50 15 -79 15z" />
    <glyph glyph-name="oe" unicode="&#x153;" horiz-adv-x="957" 
d="M859 90l26 -42c-23 -16 -50 -30 -81 -41s-65 -17 -101 -17c-54 0 -97 11 -129 34c-33 22 -57 54 -72 97c-28 -60 -46 -72 -82 -95c-36 -24 -79 -36 -130 -36c-37 0 -71 6 -102 19s-57 31 -78 54c-22 23 -39 50 -51 81s-18 66 -18 103s6 71 18 103s29 60 51 83
c21 23 47 42 78 55s65 20 102 20c53 0 97 -13 134 -38s64 -59 82 -101c15 41 39 74 70 100s70 39 116 39c25 0 48 -3 70 -10s41 -17 58 -30c16 -13 29 -29 39 -48c9 -19 14 -41 14 -64c0 -29 -6 -54 -19 -74s-29 -36 -49 -48c-21 -12 -44 -21 -70 -26c-27 -5 -54 -8 -82 -8
h-117c6 -52 22 -91 49 -118s66 -40 118 -40c28 0 55 5 80 14s51 21 76 34zM533 252h120c34 0 62 3 83 10c21 6 38 14 50 24s20 21 24 34c4 12 6 24 6 36c0 48 -11 57 -34 76c-23 18 -53 27 -90 27c-24 0 -46 -6 -65 -18c-20 -12 -37 -28 -50 -47c-14 -19 -25 -41 -32 -66
c-8 -25 -12 -50 -12 -76zM290 456c-29 0 -56 -5 -79 -15s-43 -24 -60 -42s-30 -40 -39 -65s-14 -53 -14 -84s5 -60 14 -85c9 -26 22 -48 39 -66s37 -32 60 -42s50 -15 79 -15s55 5 79 16c23 10 43 24 60 43c17 18 30 40 39 66c9 25 13 54 13 85c0 46 -4 59 -13 84
s-22 46 -39 64s-37 32 -60 42c-24 9 -50 14 -79 14z" />
    <glyph glyph-name="p" unicode="p" horiz-adv-x="558" 
d="M30 472l34 34c15 -11 26 -24 35 -38c8 -14 14 -29 18 -46c21 42 35 50 63 64c27 16 59 23 95 23c34 0 64 -7 91 -20c26 -13 48 -32 67 -55c18 -23 32 -50 41 -81s14 -65 14 -101c0 -37 -5 -72 -16 -104s-27 -60 -47 -83c-21 -23 -45 -42 -74 -55s-61 -20 -96 -20
c-28 0 -53 1 -74 3c-22 2 -41 4 -56 6v-260h-55v614c0 53 -13 92 -40 119zM125 52l53 -6c23 -3 48 -4 76 -4c27 0 51 5 73 15c21 10 40 24 56 42c15 18 27 40 36 65c8 25 12 53 12 84c0 40 -3 53 -10 78s-16 48 -29 67s-30 34 -49 46s-42 18 -68 18c-16 0 -32 -3 -49 -8
s-33 -13 -47 -24c-15 -11 -27 -24 -36 -40c-10 -16 -16 -35 -18 -56v-277z" />
    <glyph glyph-name="thorn" unicode="&#xfe;" horiz-adv-x="542" 
d="M53 726l55 1c0 -64 0 -120 -1 -168c-1 -49 -3 -92 -4 -130c23 38 36 45 63 59c27 15 57 22 92 22c34 0 64 -7 91 -20c26 -13 48 -32 67 -55c18 -23 32 -50 41 -81s14 -65 14 -101c0 -37 -5 -72 -16 -104s-27 -60 -47 -83c-21 -23 -45 -42 -74 -55s-61 -20 -96 -20
c-28 0 -53 1 -74 3c-22 2 -41 4 -56 6v-249h-55v975zM108 53l53 -5c23 -3 48 -4 76 -4c27 0 51 5 73 15c21 10 40 24 56 42c15 18 27 40 36 65c8 25 12 53 12 84c0 27 -3 53 -10 78s-16 47 -29 66s-30 35 -49 46c-19 12 -42 18 -68 18c-16 0 -32 -3 -49 -8s-33 -13 -47 -24
c-15 -11 -27 -24 -36 -40c-10 -16 -16 -35 -18 -56v-277z" />
    <glyph glyph-name="q" unicode="q" horiz-adv-x="543" 
d="M403 -261v325c-15 -23 -36 -41 -62 -54c-26 -15 -55 -21 -88 -21c-34 0 -64 7 -90 21c-27 13 -49 32 -67 55c-19 23 -33 51 -42 81c-9 32 -14 65 -14 101c0 37 6 71 17 103s26 60 47 83c20 23 44 42 73 55s61 20 96 20c49 0 87 -2 116 -6c28 -4 51 -9 69 -14v-749h-55z
M403 170v276c-12 2 -29 4 -52 6c-23 3 -49 4 -77 4c-27 0 -51 -5 -72 -15c-22 -10 -41 -24 -56 -42c-16 -18 -28 -40 -36 -65c-9 -25 -13 -53 -13 -84c0 -41 3 -53 10 -78c6 -25 16 -47 29 -66s29 -35 49 -46c19 -12 42 -18 68 -18c16 0 33 3 50 8s32 13 46 23
c14 11 26 24 36 40s16 35 18 57z" />
    <glyph glyph-name="r" unicode="r" horiz-adv-x="394" 
d="M40 472l34 34c15 -11 27 -24 36 -40c9 -15 15 -32 19 -49c17 31 38 54 61 69s51 22 85 22c13 0 24 -1 34 -3l25 -5v-52c-15 3 -26 5 -35 6s-20 1 -31 1c-28 0 -53 -9 -74 -26c-22 -17 -42 -41 -59 -72v-357h-55v353c0 53 -13 92 -40 119z" />
    </font>
</defs>
</svg>
